<svg viewBox="0 0 1920 2138">

  <path class="bg-arc rellax" data-rellax-speed="-2" d="M1582.76,726.29a83.17,83.17,0,0,0,36.74,5.11c8.65-.78,17.06,1.46,25.5,1.05,8.94-.43,13.78,5.66,19.88,10a5.4,5.4,0,0,1,2.18,4.13c.18,2.68,1.69,4.07,3.81,5.26,6.52,3.65,12.09,8.53,17.66,13.45a153.15,153.15,0,0,0,12.79,10.44c2.91,2.06,4.81,5,7.28,7.38,5.67,5.48,12.66,8.85,19,13.18a45,45,0,0,0,12.25,5.46c4,1.21,7.94,2.87,10.86,6,7.13,7.6,9.54,7,19.13,2.9,2.08-.89,3.79-2.67,5.65-4.06,6.78-5,14.64-7.69,22.46-10.61,8-3,16.39-6.08,22.42-12.38s13.39-12,18.1-19.77a155.12,155.12,0,0,0,11.31-23.22,8.25,8.25,0,0,0,.32-3.39c-.07-4.53,1.29-8.78,2.07-13.16,1.33-7.48,4.94-14.1,6.87-21.31.75-2.8.22-4.82-1.83-6.35a23.45,23.45,0,0,0-6.68-3.88,62.09,62.09,0,0,1-8.26-3.7,50.46,50.46,0,0,0-5.58-2.38c-3.62-1.29-7.22-2.89-8.07-7.7-.48-2.72-3.54-4.33-5.59-5.88-8.87-6.71-14.35-16-20.57-24.85-5.43-7.69-11.25-15-19-20.81-8.18-6.2-16.72-11.83-25.31-17.37A150.26,150.26,0,0,1,1738,593.54c-3.61-3.32-8.12-5.3-12.07-8.15-8.48-6.11-17.35-11.56-25.21-18.67-9.42-8.53-21-14.3-32.1-20.4-5.89-3.22-12-6-17.64-9.73-5.28-3.54-11-3.41-16.45-.38-4.52,2.5-9.4,4.16-14,6.52s-8.42,5.6-12.23,8.87c-4.43,3.79-8.72,7.7-13.91,10.47a14,14,0,0,0-3,2.24c-6.65,6.35-13.11,12.91-19.94,19.06-5.84,5.27-12,10-19.36,13.39-6.72,3.05-12.82,7.56-18.53,12.47-4.39,3.77-9.61,6.5-13.84,10.54a116.26,116.26,0,0,0-9.35,10.52c-1.43,1.74-1.44,4-2.31,6a19.73,19.73,0,0,1-6.71,8.25,65.41,65.41,0,0,0-10.45,9.43c-2.54,2.74-6.19,3.82-8.74,6.64-3.62,4-4,8.31-.3,12.08a29.05,29.05,0,0,1,3.1,4.05,31.45,31.45,0,0,0,15.27,12.08,17.2,17.2,0,0,1,7.47,4.89,11.78,11.78,0,0,0,7.92,4.06c5.5.72,10.22,3.61,15.37,5.28,8.78,2.85,17.36,6.06,25.19,11.15a86.25,86.25,0,0,1,7.77,5.4c5.4,4.44,12.13,5,18.42,6.88"/>
  <path class="bg-arc rellax" data-rellax-speed="-1" d="M1194.25,1708.75c-5.28.53-7,4.86-9.41,8.6-2.59,4.06-2.16,8.79-3.32,13.15a2.24,2.24,0,0,0,.7,2.27c5,5.13,7.57,11.85,10.76,18,4.81,9.36,12.57,15,21.56,19.35a12.22,12.22,0,0,1,3.29,2c3,3,6.49,4.43,10.48,5.78,5.29,1.79,9.15,6.25,12.34,10.74a61.74,61.74,0,0,0,10.22,11.56,74.57,74.57,0,0,1,14.9,18.05c6.82,11.12,14.87,20.88,25.57,28.49,8.07,5.73,15.82,11.9,23.64,18a54.73,54.73,0,0,1,5.2,5.29c5.6,5.74,12.49,9.94,18.13,15.62,1.24,1.25,3.25,1.72,4.81,2.7,7.79,4.89,16.22,8.6,24.47,12.56,6.06,2.91,12.86,4.37,19.43,6.12a29.67,29.67,0,0,1,15.15,8.91c6.26,6.87,11.38,14.82,18.64,20.71,5.89,4.79,12.25,9,18.31,13.58,5.81,4.39,10.68,9.79,15.85,14.9,6.41,6.33,12.09,13.81,21.3,16.56,3.61,1.08,7.12.68,10.91-.17,6.53-1.47,12.85-3.9,19.84-3.77,4.31.08,9.1-.72,12.73-3.92,1.32-1.16,3-1.26,4.53-1.81,3.43-1.25,6.27-3.53,9.42-5.17,9.56-5,19.51-8.73,30.69-8.08,6.25.36,12.16-2.51,18.37-2.89,5.94-.37,10.47-4.51,16.11-5.7,5.46-1.15,10.78-2.9,16.17-4.32a31.07,31.07,0,0,0,9-3.89c5.42-3.45,11.48-5.54,17.2-8.36a30.51,30.51,0,0,0,13.16-11.53c4-6.72,10.4-10.26,17.28-13.08a184,184,0,0,0,24.29-12.16c3.1-1.85,5.34-5.12,7.6-8.11,5.37-7.09,11.87-13.2,18.47-19a216.09,216.09,0,0,1,30.57-22.36c3.93-2.39,5.87-7.08,9.1-10.36,2-2.05,2.35-4.85,3.73-7.15a31,31,0,0,1,6.39-7.86c3.07-2.61,3.86-6.4,5.09-9.83.9-2.5-.67-5.3-2.54-7-9-8.26-18.77-15.46-30.68-19.24a45.42,45.42,0,0,1-8.18-3.85c-6.84-3.82-14.25-6.28-21.55-8.56-5.88-1.84-12.07-2.75-18-4.92-2.66-1-6.13-.94-9.28-1.06-5-.18-9.84-1.66-14.65-3.24-6.41-2.1-13-3.68-19.48-5.51-8.13-2.3-16.13-5.39-24.41-6.73-9.7-1.57-19.12-4.82-29.22-4.48-7.54.25-15.06-1.41-22.48-2.9-5.92-1.19-10.86-4.9-16-7.68-8.5-4.6-17-9.11-26-12.47a19.35,19.35,0,0,1-5.55-3.49c-4.21-3.49-9.06-4.29-14.29-5-5.82-.73-11.83-1.37-17.24-3.86a131.57,131.57,0,0,0-20.72-7,61.24,61.24,0,0,0-15.32-2.33c-5.09,0-9.71-1.7-14.19-3.32a217.44,217.44,0,0,0-24.05-7.37c-10-2.36-20-5.08-30-7.42a70.07,70.07,0,0,0-13.68-1.38c-12.3-.38-23.81-3.82-35.46-7.18-8.56-2.47-17.35-4.86-26.22-5.09-6.17-.16-12.51-1.19-18.77.38-2.47.62-5.3-.3-7.84.17a128.2,128.2,0,0,0-30.05,9.59,90.8,90.8,0,0,1-20.93,6.63c-8.29,1.56-16,5.34-23.58,9s-14.25,8.43-21.82,11.85"/>
  <path class="bg-arc rellax" data-rellax-speed="-4" d="M911.73,1367.11c-.21,1.54.84,1.75,1.87,1.47,3.57-1,7,.07,10.51.42a95.85,95.85,0,0,0,26.3-.47c7.39-1.27,15.16-2.09,22.82-1a38.55,38.55,0,0,0,11.94.07c6-1.15,11.09,1.35,16.55,2.23a50.76,50.76,0,0,1,10.84,2.67c4.16,1.67,6.52,5.61,9.49,8.83a192,192,0,0,0,19.42,18.45,18.2,18.2,0,0,1,2.24,1.89c7.28,8.27,16,15,23.88,22.62,7.71,7.38,15.91,14.28,22.76,22.63a50.3,50.3,0,0,0,19.29,14.55c5.84,2.5,10.5,7.31,14.67,12.21,3.54,4.15,7.9,7.1,12.29,10.26,8.57,6.17,18.4,10.71,25,19.61,3.18,4.28,7.92,7.32,10.78,12.08,5.22,8.69,3.81,22.54-3.43,27a70.44,70.44,0,0,1-7.12,3.76c-6.2,2.9-11.27,7.48-16.9,11.22-7.92,5.25-13.58,13-21.27,18.53-6.44,4.64-12.29,9.65-20.67,11-6.14,1-12.11,2.67-18.41,1.87l-.37-1.31c.14.89-.16,1.2-1.1,1.56-4.66,1.8-9.65,2.41-14.32,4.32-5.69,2.32-11.35,4.91-17.57,5.79-4.32.61-8.66,14.08-12.79,15.89-5.92,2.59-10.59-6-16.09-2.81-5.15,3-10,6.79-15.45,8.81a106.81,106.81,0,0,1-29.56,5.83c-7.22.51-13.1-1.73-17.64-7.51-7.35-9.36-17-15.88-26.91-22.25-10.86-7-21.26-14.75-30-24.35-5.35-5.89-11.38-10.58-18.88-12.91-3.93-1.22-7.23-3.64-11.19-4.69a127.51,127.51,0,0,1-14.24-4.52c-4.88-1.93-9.49-4.51-14.29-6.66-13.4-6-25.66-13.53-32.15-27.43-3.9-8.34-9.52-15.4-15.62-21.94-5.49-5.88-11.24-11.54-16.3-17.8s-11.41-11.36-15.32-18.39c-2.8-5-7.25-8.74-9.6-14.14-2.55-5.87-7.76-9.86-12.23-14.33-4.69-4.69-5.58-10.19-3.5-16.51.85-2.59,2.6-4.56,3.57-7.06,3-7.82,9-12.24,17.16-13.9,3.24-.66,6.52-1.18,9.75-1.9,7.79-1.73,15.52-3.7,23.64-2.28a44.45,44.45,0,0,0,9.37.18c4.74-.19,9.48-.64,14.24-.72,4.24-.07,8.5.2,12.76-.1,6.77-.48,13-3,19-5.51,9.87-4.1,20-5.54,30.46-5.77a38,38,0,0,0,10.51-1.86c7.22-2.23,14-6.12,21.73-6.42"/>
  <path class="bg-arcrellax" data-rellax-speed="-2" d="M1019.6,64.62c.21-1.54-.79-1.5-1.87-1.51-12.95-.15-26,.17-38.17,4.72-8.69,3.25-18,5.2-26,10.28-6,3.79-12.71,5.52-19.49,7.15a7.06,7.06,0,0,0-1.5.73c-6.55,3.41-13.31,6.37-19.92,9.65-9.57,4.75-19.14,9.48-28.46,14.71-3.95,2.21-5.89,6-7.88,9.75-2.45,4.65-4.62,9.51-7.58,13.82-4.17,6.09-3.84,13.41-6.3,19.93-.5,1.33.41,2.56.87,3.31A106.77,106.77,0,0,0,880,178.31a96.18,96.18,0,0,0,11.69,9.3,25.66,25.66,0,0,1,6.68,7.56c1.74,2.69,1.27,6.14,1,8.94a17.13,17.13,0,0,0,4.74,14.24c3.38,3.66,4.2,8.14,5.35,12.75,1.61,6.41,2.94,13.12,7.4,18.38,3.38,4,6.72,8.18,11.27,10.81a21.72,21.72,0,0,0,14.19,3,84.44,84.44,0,0,1,18-.76,73.8,73.8,0,0,0,14.6-.43,14.71,14.71,0,0,0,9.42-5.84c5.83-7.44,9.32-16,12.55-24.77,2.47-6.68,6.91-12.34,9.94-18.75,3.3-7,6.71-13.9,7.51-21.75.37-3.61,2.51-6.62,3.8-9.91,4.81-12.3,13.55-22.11,22.28-31.5,6.94-7.46,13.92-15,21.78-21.72a87.85,87.85,0,0,0,19.28-23.47c4.8-8.4,5.48-17.69,4.14-26.6a20.25,20.25,0,0,0-16.92-16.63c-7.61-1.24-15-3.44-22.89-3a36.94,36.94,0,0,0-9.34,1.7c-4.93,1.58-9.73,3.36-15,2.95-.6,0-1.25.46-1.87.71"/>
  <path class="bg-arc rellax" data-rellax-speed="-3" d="M453.57,1984a1.28,1.28,0,0,1,1.86-1.09c6.48,2.34,13.31,3.3,19.87,5.27a6.06,6.06,0,0,0,3,.28c6.43-1.44,12.76.27,19.14.4,2.33,0,4.32,1,6.38,1.88,3.37,1.44,7,.74,10.5,1.05,5,.45,9.35,2.45,13.87,4.2,4.82,1.87,9.68,3.75,15,3.37,5.92-.42,12-1,17.16-3.89a16.69,16.69,0,0,1,8.34-1.94c4,0,8-1,12-1,4.94,0,9.46-3.52,11.23-8.59a151.72,151.72,0,0,1,6.64-15.05c2.41-5.06,5-10,7.46-15a12.24,12.24,0,0,0-1.54-12.5c-3.88-4.77-5.7-10.71-9.86-15.22-1.58-1.72-3-3.47-5.31-4.06-7.85-2-14.06-6.93-20.17-11.73a108.07,108.07,0,0,0-25.88-15.07,131.2,131.2,0,0,1-21.35-11.6c-4.78-3.11-9.94-5.45-14.7-8.52A159.38,159.38,0,0,0,487,1864.29c-2.63-1.2-4.66-3.63-7.19-5.12-5.94-3.51-12.19-6.36-19.1-7.33-4.79-.67-8-4-11.58-6.65a29.82,29.82,0,0,0-18.42-6.18c-9.23,0-16.67,3.75-20,14.45-1,3.33-3.79,5.95-6.57,8.35-3,2.63-6.63,4.31-9.85,6.62-8.28,6-13.76,14.29-19.9,22.14a105.82,105.82,0,0,1-12.17,12.57,50.05,50.05,0,0,0-9.62,12.92c-2.3,4.16-5.73,7.73-7.7,12.09-4,8.74-5.82,17.84-3,27.34,1.13,3.85,4.62,5.24,7.85,6.74a39.68,39.68,0,0,0,18,4c5.79-.19,11.74.41,16.74,2.33,6.48,2.49,13.39,3.65,19.66,6.72,3.11,1.53,6.48,2.54,9.72,3.8,1.2.47,2.26.68,3.4-.35a8.36,8.36,0,0,1,5.23-1.81c10.06-.44,20,.33,29.24,4.81a11,11,0,0,1,1.89,1.48"/>
  <path class="cls-1" d="M1023.1,1862.51a18.49,18.49,0,0,1,9.49-5.78c13.61-3.41,25.33-10.85,37.44-17.42,5.32-2.88,10.27-6.47,15.42-9.67s9.68-7,14.63-10.39a33.36,33.36,0,0,1,6.37-3.56,14.79,14.79,0,0,1,8.07-1.15c5.73.85,11.48.43,17.27-.22,5.44-.62,10.95-1.25,16.32,1.43,6.38,3.19,12,7.24,16.21,13,4,5.46,9,10,13.72,14.82a15.54,15.54,0,0,1,2.66,3c4.15,7.34,9.31,14,13.46,21.41,3.31,5.88,8.58,10.05,14,14,3.76,2.7,6.2,6.5,8.21,10.6a2.36,2.36,0,0,1,.07,1.68c-1.42,6.24-2.83,12.34-7.78,17.12-3.22,3.11-6.44,3.39-10.62,2.89-6.46-.77-12.43-3.13-18.69-4.46a63.12,63.12,0,0,1-8.25-2.81c-7-2.49-14.2-2.55-21.48-2.1-10.66.67-21.24,2.85-32,1.65-6.83-.76-13.62-1.54-20-4.27a6,6,0,0,0-1.84-.55c-7.42-.74-14.21-3.66-21.05-6.37a5.69,5.69,0,0,1-2.57-1.6c-3.43-4.24-8.35-4.69-13.3-5.23-8.43-.93-16.55-3-23.75-7.71a18,18,0,0,1-6.35-6.75c-2.18-4.18-4.61-8.23-6.93-12.33"/>
  <path class="bg-arc rellax" data-rellax-speed="-2" d="M1208.4,330.18l4.12,3.38a51.58,51.58,0,0,0,14.33,8c4.11,1.59,8.23,3.09,11.46,5.92a34.88,34.88,0,0,0,11,6.27,101.94,101.94,0,0,0,11.27,4c4.7,1.17,9.68,1.87,13.38,5.07,2.91,2.51,5.9,3.09,9.46,3.35,5.5.41,10.57,1.65,13.68,7.32,1.24,2.25,1.93,4.87,3.61,6.82,6,7,9.53,15.27,13.26,23.58,2.82,6.28,6.67,12.14,9.63,18.43,1.47,3.13,3,6.43,5.29,8.94,6.14,6.75,11.24,14.27,16.75,21.48,3.44,4.51,7.16,8.65,12.05,11.57,1.41.84,2.55,2,3.82,2.91,4.41,3.09,8.47,7.1,15,5.14a26.19,26.19,0,0,1,11.57-.83c4.85.78,9.35-.81,13.43-2.5a93.18,93.18,0,0,1,23.34-6.44,112.87,112.87,0,0,1,24.36-.93,32.93,32.93,0,0,0,10.49-.35,94.91,94.91,0,0,1,17.26-2.23c6.83-.39,13.65-.52,20.3-2.83a56.44,56.44,0,0,1,8.57-2.41c7.61-1.35,15.15-2.83,22.89-.43,6.11,1.89,11.62-1.22,17.22-3,2.62-.82,3.23-3.27,3.31-5.59a17.05,17.05,0,0,1,1.05-5.3c1.47-4.22,4.72-7.29,6.48-11.22,3-6.8,5.77-13.74,8.68-20.6,2.54-6,4.15-12.32,8.16-17.69,2.39-3.19,2.69-7.23,2.3-11.19-.1-1-.79-2-.68-3a125.78,125.78,0,0,0,.63-18.75c-.07-2.3.66-3.82,2.7-4.47a62.51,62.51,0,0,1,22.12-2.76c4.1.2,8.12,1.28,12.4.24,4.92-1.19,8.18-4.56,11.93-7.31,2.68-2,5.62-4.05,6.69-7.3a13.54,13.54,0,0,1,7.64-8.31c6.56-3,11.24-7.86,15.76-13.18,2.7-3.18,4.39-7.22,7.21-10a71,71,0,0,0,14.11-20c3.55-7.43,6.91-15,7.83-23.25a33.32,33.32,0,0,1,2.63-9.39c3.29-7.81,7-15.21,13.86-20.68,1.13-.91,2.29-2.58,1.54-4.42-1.38-3.37-2.2-7.07-4.88-9.73a39.28,39.28,0,0,1-7.6-10.64c-2.27-4.71-5.78-4.84-9.63-4.86-2.81,0-5.77.21-8.2-.94-5.94-2.81-12.2-3.07-18.41-2.55a67.32,67.32,0,0,1-10.52-.1c-3.58-.26-6.7-2-10.11-2.75-5.36-1.24-10.51-3.06-16.12-3.52-3-.25-5.88-1.78-9-.21a53,53,0,0,1-6.35,2.29c-2.43.84-4.62.61-6.38-1.49-1.36-1.64-2.45-3.75-4.18-4.78-5.13-3.07-10-6.58-15.66-8.8-4.73-1.86-10.4-2.92-11.66-9.29l1.13,3.38c-4,.69-6-2.67-8.58-4.56-15.88-11.68-32.4-21.68-52.53-24.44a76.46,76.46,0,0,1-27.83-9.88c-8-4.6-16.7-7.88-25.15-11.54-7.95-3.44-15.4-7.73-23.12-11.54a42.16,42.16,0,0,0-9.08-3.52c-4.08-.93-7.57-3-11.18-4.72-7.5-3.62-14.71-7.84-22.2-11.47a45.52,45.52,0,0,0-10.48-3.35,9.51,9.51,0,0,0-7.12,1,10.66,10.66,0,0,1-4.48,1.91v1.13c0-2-1.4-1.07-2.25-1.1-4.16-.16-8,1.56-12,2.28a15.86,15.86,0,0,1-10.84-1.64c-2.08-1.16-4.33-1.32-6.44-2.12-2.41-.92-4.2,1.11-5.51,2.32-5.54,5.11-9.83,11.61-11.37,18.72a157.25,157.25,0,0,1-4.53,16c-1.2,3.63-3.28,6.91-4.75,10.47-2.31,5.6-2.53,11.61-3.95,17.36-1.46,5.93-4.76,10.05-8.93,13.75a53.49,53.49,0,0,0-10.15,11.26,8.92,8.92,0,0,0-1.67,4.55,7.9,7.9,0,0,1-2.8,6.7c-4.23,3.38-4.66,9-8.17,12.83-3.27,3.53-5.69,7.58-10.42,9.95-3.69,1.84-4.78,6.54-5.75,10.65-1.21,5.12-4.16,9.06-7.81,12.81-7.63,7.85-15.51,15.61-18.11,26.93a16.66,16.66,0,0,1-5.17,8.67,14.93,14.93,0,0,0-5,12c.08,4-.69,8.09-3.67,11.23a10.48,10.48,0,0,0-2.59,5.64,238.57,238.57,0,0,0-3.27,24c-.08,1.07.55,1.78.56,2.63s.83,2.32-1.05,2.44"/>
  <path class="bg-arc" d="M865.65,1315c-3.89-3.35-7.45-7-13.1-7.68a14.14,14.14,0,0,0-5.23.71c-2.92.7-5.81-1.09-8.7.53-2.24,1.26-4.24,2.25-4.16,5.32a9.5,9.5,0,0,1-1.08,3.74c-2.71,6.32-5.14,12.77-8.57,18.78-1.65,2.9-2.93,6-.8,9.36s4.5,3.92,7.89,1.88a55.35,55.35,0,0,0,13.79-11.33,51.52,51.52,0,0,1,11.43-9.53c4.43-2.89,7.5-6.23,8.55-11.39,0-.23.47-.38.72-.57"/>
  <path class="bg-arc rellax" data-rellax-speed="-6" d="M375.64,680a24.88,24.88,0,0,1-19.86,2.21,53.81,53.81,0,0,1-16.12-8.22c-4.12-2.95-7.27-7.11-11.66-9.7a80.15,80.15,0,0,0-17.63-7.81c-8.53-2.56-16.87-5.91-25.85-6.85-7.42-.77-14.05-3.18-19.54-8.58a37.4,37.4,0,0,0-22.82-11.06c-9.41-1-18.93-1.82-28.15-4.34-3-.81-5.94-1.7-9-.39v1.13c0-2.21-1.51-1.59-2.62-1.29-4.77,1.29-8.15,4.44-10.88,8.41-3,4.37-6.4,8.54-8.88,13.19-2.09,3.93-2.7,8.64-4.7,12.65-6.07,12.16-11,24.84-17.52,36.8-3.08,5.69-5.92,11.44-10.05,16.57-3.87,4.8-2.83,10.36-.47,15.67a42.69,42.69,0,0,0,2.27,4.86,143.18,143.18,0,0,1,10.89,21.37c1.83,4.63,2.18,9.62,3.8,14.23,1.82,5.16,2.13,10.52,2.81,15.79,1.24,9.65,2,19.35,4.22,28.86a5.17,5.17,0,0,1,0,1.12h-1.12c3.22,1.38,2.32,4.78,3.25,7.17,3.44,8.88,6,18.11,9.61,26.9,3.23,7.85,9.26,12.54,18.26,12.47,1,0,2.84-1,2.62,1.46l.38-1.31c3.13-.28,6.46.24,9.35-1a102.51,102.51,0,0,1,33.4-7.92c3.37-.24,7.09-.1,10.1-1.83,11.23-6.46,23.75-9.93,35.33-15.59,7.38-3.61,15.07-6.45,21.42-12,2.32-2,5.61-2.69,8.55-.12,2.67,2.34,6.08,2.29,9.36,2.66,2,.22,3.65-1.2,5.63-.78,7.11,1.53,13.12-2.23,19.49-4.16,5.64-1.71,10.2-6.09,16.15-7,4.34-.68,8.09-3.38,12.37-3.7a63.5,63.5,0,0,0,19.82-5.09c4.15-1.74,9-2.76,11.64-7,1.55-2.51,2.82-5.21,4.15-7.86,2.18-4.37,4.79-8.73,5.48-13.52a54,54,0,0,1,5.7-18c3.21-6,6.12-12.36,5.26-19.45-.63-5.17-2-10.25-2.91-15.39-.41-2.2-.52-4.39-1.85-6.4A40.67,40.67,0,0,0,421,703.66a25.32,25.32,0,0,1-9.63-8.75,9.43,9.43,0,0,0-1.53-1.87c-3.39-3.3-7.7-5.09-11.64-7.5A33.26,33.26,0,0,0,379,680.32c-1.38.06-2.92.32-3.56-1.49"/>
  <path class="bg-arc rellax" data-rellax-speed="-3" d="M82.22,1362c1.11-.11,1.44.38,1.53,1.5.73,8.53,4.23,16.14,8.7,23.18,3.54,5.57,7.06,11.19,11.44,16.26,10.17,11.77,21.2,22.25,35.67,28.7,6.45,2.87,12.4,6.83,18.82,9.79a63.22,63.22,0,0,1,18.29,12.5c7,6.91,13.66,14.1,20.27,21.35,6.84,7.51,13.43,15.13,22.45,20.37,4.5,2.61,8,7,12.87,9.16,11.06,5,21.06,11.88,31.87,17.27a33.9,33.9,0,0,1,6.31,4.22c6.81,5.58,13.84,11.1,21.55,15.07,8.37,4.31,14.49,11.28,22.33,16.07a29.78,29.78,0,0,1,5.63,4.85c2.91,3,6.73,4.16,10.54,4.75a41,41,0,0,0,22.54-3.15c6.41-2.69,13.1-4.76,19.43-7.67,5.44-2.5,11-5.16,14.19-10.51s6.29-10.88,9.82-16.08c1.77-2.61,3.5-5.25,5.25-7.87,3.56-5.32,9.14-7.79,14.6-10.55,7.66-3.87,14.8-8.69,19.8-15.78,3.14-4.45,6.29-9,8.46-14.13,1.66-3.94,4.4-7.37,6.36-11.25,3.74-7.4,7.5-14.79,9.21-22.94,1-4.93,3.87-8.72,6.9-12.3a118.75,118.75,0,0,0,16.46-25.17c1.81-3.75,4.87-6.72,6.79-10.48,2.67-5.22,4.31-10.19,1.1-15.82-2.35-4.12-2.34-9-2.45-13.48-.14-5.66-3.35-9.65-5.52-14.22-3.53-7.43-10-12.41-15.73-18-2.85-2.78-6.94-3.15-10.49-4.47-8.65-3.2-16.72-7.18-22.44-14.72a15.75,15.75,0,0,0-4.85-3.83,41.93,41.93,0,0,1-7.16-5.92c-3.5-3.39-7.7-5.09-12.4-6a40,40,0,0,1-14.19-6.07c-6.63-4.36-13.89-7.22-21-10.58s-14.66-4.32-21.84-6.92c-5.44-2-10.51-4.82-16.11-6.43-7.16-2.06-14.21-2.4-21.41-.06a25.94,25.94,0,0,1-7.85.79c-5.75,0-11.51,0-17.25-.39a33.74,33.74,0,0,0-15.73,3.11c-8.84,3.85-18.2,5.94-27.38,8.64-4.42,1.3-8.73,3-13.12,4.51a216.55,216.55,0,0,0-21.09,8.77c-5.42,2.48-11.46,3.57-17.18,5.41-10.52,3.38-21.86,4.09-31.81,9.13-4.31,2.19-8.51,4.72-12.83,7-6.6,3.44-13.81,4.87-21,6.39-2.27.48-4.57,1-6.38,2.61v1.13c.11-1.11-.37-2-1.48-1.46-8.66,4-18.3,5.16-27,9-7.63,3.36-13,13.38-12,21.72a4.06,4.06,0,0,1-.35,3Z"/>
  <path class="bg-arc" d="M937.1,313.62c3.44-2.22,6.38-5,10.45-6.52,5.72-2.1,8-7.55,9.31-13,.75-3.07-2-5.37-4.08-7-4.73-3.63-17.1-2.88-22.09.6a8.3,8.3,0,0,0-3.63,7.18,64.07,64.07,0,0,1-1,11.6,7,7,0,0,0,.2,2.64c1.06,6.81,3.18,7.88,9.3,4.89a9.07,9.07,0,0,1,1.12-.38"/>
  <path class="bg-arc" d="M1108.46,1022.13c.21-1.94-1.21-1.48-2.25-1.49-9-.07-18,.06-27-.3-7.82-.31-15-1-21.11-7.09a61.92,61.92,0,0,0-20.48-13.3,15.49,15.49,0,0,1-5.58-3.75c-4.46-5-10.66-6.08-16.58-7.78a105.34,105.34,0,0,0-11.25-2.61c-4-.69-6.8-3.42-10.17-5.19-6.94-3.65-12-10-19.43-12.89a55.5,55.5,0,0,0-14.65-3.65,32.25,32.25,0,0,1-6-1.68,60.24,60.24,0,0,0-13.91-2c-6.87-.4-11.75-3.49-14.53-9.52-1.79-3.88-5.75-6.23-6.64-10.8-.37-1.9-.61-3.09.94-4.14,2.81-1.91,3.72-5,3.81-7.9.21-7,4.7-11.54,8.57-16.48,4.71-6,10.35-11.14,16.09-16.16a15,15,0,0,0,3.83-6,97,97,0,0,1,16.41-26.67,85.16,85.16,0,0,1,8.22-7.91c3.93-3.52,8.54-4.6,13.54-5.26a41.25,41.25,0,0,0,12.1-3.48c4.56-2.11,9.75-2.82,14.57-4.61a211.48,211.48,0,0,0,20.2-8.75c3.38-1.67,6.75-4,8.47-7.18,2.47-4.53,6.47-6,10.69-7.35,6.43-2,11.71-6.1,17.61-9.05,3.57-1.78,7.14-4.62,11.21-3.61,6,1.47,12.19.63,18,2.2,11.47,3.08,23,5.44,34.89,6,5,.24,10,1.64,15,2.52a8.56,8.56,0,0,0,1.87.35c6.4-.38,12.73.85,19.12.95,3.57.05,7.42-.3,10.87,1.34,2.9,1.38,6,.55,9,1,9,1.47,17.17,6,26.24,7.22,5.41.75,10.67,2.34,16.12,3.06,4.87.64,9.73,1.76,14.64,1.72a82,82,0,0,1,21.72,3.18c6.53,1.73,13.2,2.89,19.61,5.3,3,1.14,6.92-.13,10.42-.14,7.36,0,14.72,6.23,15.69,13.49.34,2.51,1.48,4.73,1.38,7.5-.17,4.76-1,8.79-3.81,12.84s-2.83,9-4.83,13.49a50.74,50.74,0,0,1-11.51,16.33c-4.46,4.21-7,9.46-9.7,14.69q-6.6,12.64-13.5,25.12a81.63,81.63,0,0,0-5.23,12.39c-1.27,3.59-2.78,7.06-5.62,9.75-7.86,7.42-14.09,15.71-18,26.13a35.52,35.52,0,0,1-8.2,13c-5.06,4.92-11.13,6.61-17.71,6.57a208.26,208.26,0,0,0-22.88,1,40.14,40.14,0,0,1-9.78-.28c-3.34-.47-6.94.78-10.45,1.1-1.14.1-2.51.43-3.77.52-1.08.08-2.08,0-1.87,1.53v-1.12c-5.36-.21-10.33,1.46-15.39,2.94-8.16,2.39-15.82,6.34-24.35,7.6-4.94.73-9.54-.44-14.28-1.44-3.51-.74-6.62-3.29-10.48-2.35Z"/>
  <path class="bg-arc rellax" data-rellax-speed="-4" d="M180.57,302.79c8.75,1.24,17,4.12,25.2,7.31,4.64,1.8,9.84,2.52,14.91,3.3,8.44,1.29,15.15,5.92,20.2,12.69,2.4,3.22,5.6,3.78,9.06,4.06,2.87.23,5.75.29,8.62.39,1.32,0,2.72-.11,2.62,1.88v-1.12c6.51-.71,11.75-3,15.19-9.27a22.84,22.84,0,0,1,6.91-7.65,22.74,22.74,0,0,0,6.78-8.21,21.17,21.17,0,0,1,7.06-7.6,52.47,52.47,0,0,0,13.51-12.69c4.39-6.14,8.8-12.18,15.45-16,2.66-1.55,4.19-4,5.55-6.44A121,121,0,0,1,339.08,251a27.4,27.4,0,0,0,4.84-13.77,27.28,27.28,0,0,1,4.28-12h-.75c-1.75-3.13-3.53-6.24-5.24-9.38-3.39-6.2-6.49-12.47-11.52-17.73-4.37-4.57-8.33-9.72-10.24-16-.76-2.5-1.3-5.08-2.29-7.48-2.38-5.79-3.47-12-6.15-17.73-1.37-2.94-2.51-5.9-5.11-7.72-4.46-3.11-9.27-5.71-13.78-8.76a5.23,5.23,0,0,0-3.05-.67c-5.24-.38-10.32-1.11-13.88-5.63-.55-.7-1.47-.82-2.2-1.2-7-3.67-14.9-4-22.25-6.41-7.71-2.54-16-3.3-23.93-5.63-5.5-1.63-11.29-2-16.9-3.47-11.41-3.07-22.4-7.34-33.66-10.8-10.23-3.14-20.36-5.86-31.17-5.16-1.11.07-2.49-.53-3.37-.52-7.27,0-14.75-.66-20,6.49-2.55,3.48-5.73,7-11.16,5.8a3.14,3.14,0,0,0-2.53,1.45c-1.88,3.54-5.28,5.25-8.29,7.5-5.43,4.07-9.6,8.86-8.32,16.47.64,3.82-1,7.55-2.41,10.78-2.23,5-4,10.11-6,15.14-.93,2.33-2.57,5-1.26,7.81,2.42,5.24,2.28,11,3.28,16.52a111.07,111.07,0,0,1,1.16,13.49c.07,1.33.75,1.14,1.55,1.12l-1.31.38a39.18,39.18,0,0,0,.81,11.27c1.08,5.89-.15,11.75-2.59,17.19a10.75,10.75,0,0,0-1,5.29,51.71,51.71,0,0,0,7.14,22.86c1.54,2.63,3.59,4.94,5.19,7.54,2.45,4,6.41,5.06,10.53,5.11a13.06,13.06,0,0,1,7.08,2.45,25,25,0,0,0,7.17,3.32c8.16,2.15,14.71,6.82,20.73,12.62,2.11,2,5.27,3.29,8.18,4.12a94.74,94.74,0,0,1,9.69,3.57,38.93,38.93,0,0,0,12,2.5,36.82,36.82,0,0,1,5.64,1.11c.76.17,2.16.66,2.24-1.06"/>
  <path class="bg-arc rellax" data-rellax-speed="-3" d="M1406.74,1132c-1.28,2.15-3.48,1.71-5.24,1.43-7.15-1.14-14.26-2.58-21.39-3.84a3.4,3.4,0,0,1-2.64-2.08,19.25,19.25,0,0,1-.14-18.08c2.22-4.64,5.88-8.91,5.58-14.55-.17-3.17,2-4.41,4.32-5.64a59.53,59.53,0,0,0,25.83-25.52c3.06-5.84,5.35-12.08,8.36-17.94s5.75-11.5,8.6-17.26c4.44-9,7.53-18.57,13-27.06,2.18-3.38,3-8,8.71-6.37.53.15,1.23-.38,1.86-.51,4-.77,7.83-2.17,11.67-2.94,7.77-1.56,15.46-3.44,23.2-5.1,11.86-2.54,24-2.12,36-3.39.79-.08,1.73-.23,1.5,1.12l8.25-3.75c1.47,2.25,3.48,1.06,5.24.71,3.3-.64,6.39-2.05,9.75-2.64,6.16-1.07,12.28-2.34,18.38-3.73,7.78-1.76,15.57-3.49,23.23-5.7,3.61-1,7.3-.63,11-1.89,4.75-1.63,9.35-3.94,14.2-5a56.9,56.9,0,0,0,16-6c6.6-3.67,13.15-6.88,20.72-7.72.88-.1.23-.71.19-1.11l.56,1.13c14.89,3.65,29.75,7.19,44,13.26,5.49,2.35,10.39,5.55,15.56,8.29a100.32,100.32,0,0,0,27.47,9.93c11.32,2.26,22.19,5.18,31.59,12.66,8.83,7,19,12.39,27.47,19.82,7.71,6.79,16,13.21,22,21.9,4.33,6.34,10.74,10.51,16.45,15.42,4.89,4.21,9.7,8.55,14.21,13.16a45,45,0,0,0,8,6.25,25.65,25.65,0,0,1,9.38,10.16c1.17,2.32,3.36,3.87,5.23,5.63,2.06,1.95,2.05,3.56,0,5.68-5.25,5.5-10.47,11.06-15.35,16.89-3.13,3.73-5.26,8.25-7.78,12.42-2.64,4.38-6.18,7.58-9.91,10.78-5.61,4.82-12.7,7.18-18.73,11.28-4,2.72-8.47,4.74-12.11,8.12a18.9,18.9,0,0,1-5.85,3.24c-6.2,2.48-10.61,7.53-13.76,13.08s-7.85,9-12.21,13c-5.32,4.89-11.87,7.62-18.68,9.87a19.76,19.76,0,0,1-6.4.9c-6.25-.08-11.9,2.72-18,3.23-1,.09-1.95.46-3-.06a17.78,17.78,0,0,0-11.24-1.51c-5,.92-9.71-1.79-14.62-1.46-6.67.45-13.48-2.2-20,2.43-6,4.26-13.2,3.58-20.14,2a111.08,111.08,0,0,1-17.27-5.58,68.5,68.5,0,0,1-12.06-6.31c-5.61-3.69-11.67-6.88-18.33-8.24-3-.62-5.7-1.94-8.59-2.78-10.88-3.18-21.16-8.14-32.61-9.74-5-.7-10-1.16-15-1.51a72.21,72.21,0,0,1-15.74-3.39c-9.31-2.8-18.5-6-27.78-8.92-4.88-1.53-10.05-.18-15-1.18-4.44-.91-8.75.51-13.13.39-1,0-2.53.56-2.25-1.49l-.37,1.31a79.07,79.07,0,0,1-11.25.22c-4.36-.4-8.75-.51-13.12-.79-5.44-.35-9.05-4.41-13.47-6.79-7.77-4.18-15.9-6.72-24.78-6.72-6.37,0-12.75-.11-19.12-.17"/>
  <path class="bg-arc rellax" data-rellax-speed="-2" d="M679.55,645.38c-8.77,2-17.75,1.77-26.63,2.33-11.35.71-22.74.74-34.12.81-6.06,0-12.14-.07-18,1.64-3.42,1-6.89-.15-10.13.74a74,74,0,0,1-16.91,2.31c-9.28.36-18.24.86-26.66,5.4-4.67,2.52-8.91,1.49-11.54-2.2-1.74-2.45-2.88-5.33-4.58-7.82-2.39-3.49-3.79-7.47-6.24-11-6.34-9.07-14.08-17.63-13.28-29.94.06-1-.72-2-1.06-3a7.11,7.11,0,0,1,.36-6,139.17,139.17,0,0,1,7.08-12,102.9,102.9,0,0,0,7.85-12.75,71.06,71.06,0,0,0,6.3-18.67c1.51-8,6.34-14.8,11.08-21.38a25.75,25.75,0,0,0,4.2-8.25c.85-3,1.38-6.14,2.8-9.07,4.06-8.39,9.59-15.87,15.24-23.09,6.94-8.86,13.95-17.56,19.43-27.45a34.62,34.62,0,0,1,8.44-10.28c6.51-5.28,10.19-12.88,14.73-19.76,2-3,4-6.14,4.4-9.77a14.69,14.69,0,0,1,3.19-7,19.68,19.68,0,0,0,3.08-7.58l.56,1.13c1.63-.12,3.26-.19,4.87-.39a33,33,0,0,0,9.84-2.42c4.76-2.14,10.2-3,15.26-.51,4.2,2.08,8.76,2.43,13.18,3.18,5.71,1,11.37,1.83,16.88,3.81,7.63,2.74,15.58,2.79,23.61,2a39.73,39.73,0,0,1,13.12,1.05v1.13c0-.81.08-1.57,1.12-1.49a59.22,59.22,0,0,1,8.24.79c7.77,1.73,15.41.76,22.86-1.28,5.31-1.45,10.69-2.34,15.72-.49a107.11,107.11,0,0,0,18.44,5.26c3,.52,6,.82,9,1.34,8.24,1.44,16.39,2.64,24.78.45a44.59,44.59,0,0,1,19.48-1.08c2.57.48,5.49,1.21,7.82.47A72.24,72.24,0,0,1,867,421.37a6.2,6.2,0,0,0,3.71-.86c2.92-2.11,6.26-2.22,9.4-1.69a23.55,23.55,0,0,0,10.86-1,98.18,98.18,0,0,1,23.67-4.64c4.2-.22,8.12-2.14,12.37-1.6l1.13.38c5.17-1.66,8.33,1.82,11.17,4.95,4.54,5,9.09,10.11,12.65,15.79,2.43,3.88,3.13,8.81,4.37,13.37,2.85,10.49,5.92,20.91,11.5,30.43,3.21,5.47,4.1,11.72,4.54,18,.75,10.83,4.2,20.91,8.49,30.73,2.22,5.08,3.41,10.4,4.74,15.74,1.85,7.41,2.52,15.1,5.82,22.19,2.48,5.31,2.56,10.49-2.48,15-5.31,4.79-9.07,11.05-15,15.4-6.11,4.48-12.25,5.83-19.6,3.78-4.57-1.28-9.51-1.12-14.21-2.05-8-1.58-16.06-.72-24-.44a142.85,142.85,0,0,0-21.82,2c-7.16,1.37-14.57,2.13-21.64,3.89-7.3,1.82-15,2.25-21.86,6.07a11.82,11.82,0,0,1-7.81.84c-5.26-1-10.52-.24-15.75.08-8.26.5-16.49,1.69-24.76,2.09-4.94.24-9.43,2.1-14.23,2.8-8.29,1.21-16.53,2.81-24.75,4.45a71.42,71.42,0,0,0-18,6c-3.87,1.93-7.61,4.23-12,4.89-3.42.52-6.12,2.76-9.32,3.92-7.08,2.57-14.3,4.67-21.48,6.79-7,2.06-14,3.78-20.61,6.85-.78.36-2.5.61-2.22-1.43"/>
  <path class="bg-arc" d="M444.73,1568.38a4.8,4.8,0,0,1,3.74,1.88c2.15,2.36,4.32,4.69,6.37,7.13,2.74,3.27,2.37,6.21-1.11,10.11-2.57,2.88-5.22,3.44-8.55.66-4.48-3.73-10-6.42-12.18-12.63-.88-2.55-1-4,1.58-5.34,3.11-1.63,6-3.82,9.78-2.2"/>
  <path class="bg-arc" d="M652.39,874.65c-.25,2.37,1.5,1.35,2.23,1.07,5.46-2.07,11.27-1.73,16.91-2.44,1.58-.2,3.12-1.85,4.86-.5v1.13c0-.81.08-1.46,1.12-1.51,10.28-.42,19.68-4.29,29.25-7.49,8.48-2.84,17-3.27,25.47-.11a19.34,19.34,0,0,1,10.3,8.27c2.3,3.84,5.21,7.33,7.39,11.32,3.75,6.88.31,16-4.44,20.38-10.78,9.89-23.26,17.82-33.08,28.78a173.69,173.69,0,0,0-12.86,15.67c-4.7,6.66-11,11.84-17.88,16.24-5.38,3.41-11.79,4.59-17,8.5-4,3-6.69,7.09-10.43,10.22-5.75,4.8-11.23,9.71-18.3,12.92-9.7,4.4-18.9,9.95-28.18,15.25-4.65,2.66-9.75,4.06-14.7,5.82-3,1.07-5.94,2.84-9.33,2.75-6.5,1.32-13,2.64-19.45,4.14a275.46,275.46,0,0,0-30.11,9.18c-6,2.14-12.43,3.5-19.07,2.47-8.2-1.28-16.29.35-24.36,1.5-5.53.79-11,2.05-16.51,2.94-7.25,1.16-14.37,2.59-20.63,6.76-2.38,1.58-4.93,3.41-7.85,2.93-5.77-.95-12-1.1-16.31-6.53.89-1.83,1.87-3.78,2.79-5.76,2.39-5.19,5.24-10.22,6.68-15.77,1-3.76,1.84-7.43,3.76-10.89,2.13-3.83,4.78-7.38,7.1-11,4-6.27,9.68-11.46,14.73-17,6.16-6.8,12.79-13.22,17.21-21.4a27.6,27.6,0,0,1,3-4.14c5-6.18,10.64-11.79,14.68-18.71,6.08-10.4,12.45-20.61,21-29.27,6.1-6.2,13.64-8.6,22.13-8.62,4.43,0,8.83.08,13.14-1.46,8.92-3.19,17.74-6.3,27.3-7.91,10.95-1.84,21.84-4.75,32.72-7.37a59.56,59.56,0,0,1,12.72-1.81c4.63-.08,12.9-1.73,16.08-4A23.26,23.26,0,0,1,652,876"/>
  <path class="bg-arc" d="M1550.13,755.5c1.24-4.94,5.48-9.52,9-9.76,2.05-.14,4.27-.22,4.8,2.27.42,2,.54,4.59-1.83,5.52-3,1.17-5.4,4-9,3.42-1.8-.28-3.31-1.7-5.26-1.65"/>
  <path class="bg-arc" d="M311.62,852.25c2.55-1.36,4.18-5.36,3.38-8.25-.28-1-.52-2-1-3.84l2.5-1.78c2.94-2.12,7.5,0,7.83,3.75a47.48,47.48,0,0,1,0,7.87c-.26,3.29-5.27,6.81-8.59,6.41-2.43-.3-2.43-2.05-2.62-3.78"/>
  <path class="bg-arc" d="M594.25,655.75a4.53,4.53,0,0,0-3.75,0"/></svg>
