<svg id="Layer_1" data-name="Layer 1" xmlns="http://www.w3.org/2000/svg" viewBox="0 0 1418.93 1352.93"><defs><style>.cls-1{fill:none;stroke:#b3cadb;stroke-miterlimit:10;}</style></defs><title>arctic_bg</title><path class="cls-1" d="M1277,538.47c.05-.39.75-.69,1.12-1.06,3-3,5.07.5,8.28,1.68-1.32-6.43-.43-12.43-1.42-19.24-2.2,3.2-2.6,5.66-1.82,8.37.3,1,.46,2.27-.63,2.88s-1.43-1-2.13-1.19c-2.82-.94-2.12-4.93-5.16-5.64-2-.47-2.13-2.3-2.64-4-.88-2.93,1.09-5.43.8-8.22-.69-6.53-4.3-12.94-.88-19.67a1.52,1.52,0,0,0-.13-1.16c-2.4-4.77-.45-10.39-2.94-15.15-.33-.63-.53-2,.55-1.89,2.88.27,1.75-1.07,1.29-2.45-.95-2.81-3.51-5.08-4.28-7.38a228.47,228.47,0,0,0-9.36-23.38c-1.24-2.7-2.23-6.52-6-5.56-3.39.85-3.65,4.57-3.74,7.7-.25,8.8,1.86,17.6,0,26.42-.36,1.69-.35,3.9-2.14,4.29-1.58.35-3.43-.82-4.24-2.45-1-2.07-2.67-3.5-4.16-5.17-1.93-2.15-4.6-4.64-5.22-6.92-1.21-4.45-4.59-8.14-4.43-13a5,5,0,0,0-1.08-3.38c-1.55-1.87-1.81-3.19.64-4.8,2.22-1.46,1.76-2.6-1.07-3.48a3.92,3.92,0,0,1-2.15-2.22q-4.17-7.42-8.32-14.85c-1.51-2.69-3-5.38-4.59-8-.46-.78-1.09-1.78-2.15-.7-2.14,2.19-2,.07-2.07-1.14-.05-2.11,0-4-1.28-6-4.43-7.1-7.58-14.76-13.81-21-3.9-3.91-9.86-5.84-12-11.55-.21-.56-1.41-.67-2-1.16-2.49-2-5.71-2.37-8.57-3.23s-4-3.38-6.72-4.3-6.46-.38-8.3-3.23c-1.62-2.5-3.06-2.39-5.08-.77a2.54,2.54,0,0,1-1.78.63c-4.15-.87-2.94,1.11-1.85,3.24s3.72,3.47,3,6.78c-3.44-1.61-5-5.35-8.75-6.73-.49,4.22,1.14,7.87,1.18,11.8-2.88-1.56-1.15-5.89-4.91-7.39a11.82,11.82,0,0,1-1.39,9.42c-2.44,4.23-3.45,8.24-1.51,13.1,1.2,3-1.2,3.6-3.32,2.16-3.31-2.24-7.1-3.51-10.54-5.54a32.51,32.51,0,0,1-10.51-9.41c-.36-.52-.64-1.33-1.47-1-1.06.4-.72,1.34-.45,2,.71,1.82,2.47,3,2.6,5.25.35,5.67,4,8.6,8.79,11,4,2,4,5.55.33,7.87-1.48.93-1.34,1.65-.6,2.86a24.94,24.94,0,0,1,1.76,3.56c1,2.35,1.61,4.88-1.34,6.17s-4.85-.37-6-3c-.85-2-1.88-4.94-3.49-5.07-5.15-.41-7.52-4.59-11.19-7a3.82,3.82,0,0,0-1.82-.62c-3-.11-4.58-1.86-6.23-4.17s-2.13-4.52-.49-6.54,3.29.37,4.89.91c1.17.39,3.32,1.43,3.26.4-.08-1.5,2.18-3.31-1-5.07-7.09-3.91-13.37-9-14.72-17.89a4.24,4.24,0,0,1,.92-3.85c2.37-3.08,4.52-2.5,6.91.07a5.87,5.87,0,0,0-1.83-6.66c-4.26-4.07-4.08-5.23-2.55-8.78s2.82-4.19,5.17-.16c1.09-3.89,2.28-6.75,6.66-5.45,1.46.43,1.93-1.13,2.39-2.21.63-1.47-.4-2.11-1.4-2.88-2.84-2.19-5.89-3.94-8.25-6.94-1.83-2.33-3.86-5.06-7.07-6.13-3.52-1.18-2.93,3.14-5.09,3.74-3.1.87-3.32,3.42-3.57,6-.33,3.41-.55,6.84-1.12,10.22-.28,1.65-.49,3.08.42,4.58,1.51,2.49.27,3.27-2.17,3.5a5.76,5.76,0,0,1-4.43-1.4,22,22,0,0,0-11.41-5.2c-4.2-.42-8.76,1.46-13.23,2.07-1.58.22-2.38.86-3.44-.54-1.69-2.23-3.24-4.22-6.65-4.32-1.87-.06-4.57-1.54-3.51-4.68.42-1.24-.23-1.93-.68-2.89-1.94-4.19-5.91-5.33-9.66-7.11-5.31-2.52-10.88-1.75-16.34-2-8.19-.33-16.45-1.77-24.53,1.41a19.74,19.74,0,0,1-8.59,1.24c-8.23-.69-13.09,3.94-17.17,10.06-.93,1.39-2.27,2.07-3.55,3-3.67,2.68-9.39,1.85-11.53,7.29-1.34,3.41-4.8,6.15-2.18,10.39.36.58.07,1.55.08,2.34,0,3.64,3.54,6,6.69,4.39,3.82-2,5.23,1.73,7.25,3.29,2.53,2-2,1.51-1.55,3.2,1.3.32,3.21-.18,3.71,1.48.44,1.49-1.17,2.22-2.11,3.11-1.64,1.55-1.45,2.9.26,4.3a10.15,10.15,0,0,1,2.39,2.66c1.32,2.29.21,4.09-2.38,3.83-2.89-.29-5.75-1-8.65-1.22-3.94-.34-7.89-1.48-11.87-.18-3.52,1.15-7.1.89-10.67.29-2.25-.38-4.64-.81-6.67.22-5.47,2.78-11.32.8-16.93,1.65a5.41,5.41,0,0,1-3.3-1.25c-5.29-3.66-10.25-7.77-15.78-11.11-3.27-2-6-5.2-10.52-3.52-1.28.47-2.52-.27-3.49-1.42s-2.09-2.67-3.46-3.22c-3.34-1.35-4.49-4.74-4.87-7.17-.44-2.86-1.93-2.53-3.24-2.35a4.81,4.81,0,0,1-4.29-1.23,5.79,5.79,0,0,0-5-1.31c.32,2,2.88,1.26,3,2.83-3.83,5.63-10.71,5.56-15.5,9.08s-9.85,3.13-15,1.42c-2.18-.72-4.88-1.38-6.11-3-1.11-1.46,1.31-3,2.56-4.33s-.41-2.65-.9-3.89c-.67-1.71-1.74-.39-2.57,0-2.28,1.06-4.49,3-6.79,3.09-3.21.12-5,1.29-5.93,4.05-1.11,3.28-3.84,2.68-6.27,2.83s-3.05-1.56-4.05-3.5c5.55.17,5.78-4.55,7.69-7.65,1.7-2.76,3-5.87,7.27-5.13a5.47,5.47,0,0,0,3.48-.65c6.7-3.63,13.62-6.82,20-11A15.6,15.6,0,0,1,829,335c2.66,0,5.58,1.42,7.33-2.38.62-1.35,3-2.06,4.75-2.68a8,8,0,0,0,4.12-3c3.38-4.9,6.73-9.73,7.56-16a89.55,89.55,0,0,1,1.93-9.72c1.05-4.22,1.71-8.59,2.64-12.88.23-1,.53-2.49-1.41-2.66-3.05-.27-10.92,3.51-11.82,6.33-1,3.12-2.85,3.76-5.67,3.51s-5.74-.8-6.3,3.66c-.21,1.69-2.29,3.17-4.56,3.38s-4.61,1-7.06.07c-1.44-.54-3.66-.6-3,2,1.21,4.71-1.69,7-5,8.82-2.77,1.47-5.32,2.61-4.89,6.44a3.41,3.41,0,0,1-1.28,2.38c-2,1.7-2.61,2.71.73,3.36,2.38.46,2.64,2.31,1.74,4.36a8.37,8.37,0,0,1-3.56,3.67c-2.82,1.74-5.63,3.38-6.93,6.83a3.11,3.11,0,0,1-4.34,1.7c-3.87-1.81-7.26-.65-10.57,1.4-.72.45-1.4.84-2.15.16a2,2,0,0,1-.4-2.55c.3-.78,1.79-1,1.07-2.25-6.24,5.15-14.71,5.56-19.57-2.77-2,3.18-5.66,3.75-8.57,5.47s-5.15,4.48-8.57,5.62c-6.47,2.15-13.09,4.12-18.4,8.77a1.18,1.18,0,0,1-1.77-.27c-1.56-2.16-4.13-1.52-6.19-2.25-2.58-.92-4.29.58-2.39,2.61,3.74,4,1.22,11,7.63,13.86,3.16,1.43,5.5,4.52,9.56,3.44.68-.18,1.44-.06,1.66.65.1.34-.29,1-.65,1.28-1.64,1.27-9.87,1.37-11.4.21-4.43-3.36-8.54-1.61-9.94,3.82-.6,2.33.85,4.22.32,6.58-.66,2.92-2.83,2.72-4.53,2.89-2.26.22-1.59-1.77-1.62-3.19-.06-3.2-1-4.84-4.88-3.71-3.15.91-6.75,1-7.58-3.8-.28-1.62-8.33-5.5-10-5-.47.14-1.28.56-1.25.74.47,2.95-3.76,5.25-1.06,8.56.8,1,.55,2.75-1.3,2.18-3.68-1.13-5,2-7.09,3.57-.4.3-1.08.73-.62,1.61.78,1.49,8.64,6.06,10,5.4a4.27,4.27,0,0,1,5,.67,5.18,5.18,0,0,0-.19-3.49c-.27-1.14-1.69-2.53.4-3.33,1.51-.58,2.53.2,3.27,1.52s1.69,2.43,1.82,4c.38,4.32,2.53,7.57,6.47,9.19a36.94,36.94,0,0,1,12.72,8.31c6.13,6.49,13.31,9.63,21.82,10.67,1,.13,2.07.4,3.11.54,2.28.31,3.78,3.61,6.47,1.94,2.89-1.8.29-4.39.56-6.61.2-1.61.19-3.38,2-3.89,1.95-.55,4.21-.65,5.11,1.75s3.87,3.42,3.65,6.44c-.08,1,.84,1.18,1.73.74,2.3-1.14,4.09.15,5.93,1.24,3.57,2.12,7.2,4,11.6,3.5,1.83-.2,3-.55,3.07-2.73.1-1.8.63-3.7,3.31-3.69a6.87,6.87,0,0,0-.06,2.08c.81,2.59-2.14,5.21-.14,7.61,1.75,2.11,1.85,3.86.25,6-1.79,2.44-1.09,4.52,1,6.7a16.89,16.89,0,0,0,12.32,5.64c5.47.19,7.51,2.25,8.18,7.57.09.74-.16,1.63.86,2,2.58,1,1.49,4.39,3.78,5.67a1,1,0,0,1-.75,1.65c-4.52-.2-2.06,1.88-1.14,3.4,2,3.31,4.52,2.92,7.43,1.12,1.82-1.12,4.07-1.35,5.1,1,1.14,2.6-1.81,2.16-2.76,2.82-.56,1.87,3.08,1.94,1.46,3.14-3.15,2.35-.79,3.44.55,4.88s2.9,4.19,4.36,4.19c3.56,0,7.4-.46,9-5,.84-2.41,2.64-1.85,3.77.12.69,1.2,1.25,2.07,2.69.9,3.35-2.73,3.32-.15,3.38,2.2.07,3,.51,5.51,4.37,5.87a3.25,3.25,0,0,1,3,3.68c-.34,3.91.85,3.73,3.79,2,1.87-1.09,4.8-2.76,6.58-1.12,1.58,1.45,1.41,4.57.47,6.79-1.74,4.08-3.84,8-5.78,12-1.9-.66-.45-2.77-2.19-4,0,2.93-2.2,3.58-3.7,4.89-2.43,2.11-2.57,4.82-.16,6.91a4,4,0,0,1,1.32,4.61,2.81,2.81,0,0,0,1,3.53c1.4,1,2.61.26,3.51-.77,1.63-1.88,3.37-1.23,5-.3,2.16,1.22,5,10.36,4.28,12.73-.44,1.42-2.32,1.31-2.53,2.83-.75,5.27,4.37,10.24,9.51,9.51,1.43-.2,2.7-1.17,4.44-1.14-.8,3-3.16,2.3-4.85,3a38.69,38.69,0,0,0-4.57,2.5c2.32,1.3-.1,5.2,3.39,6,1.73.39,2.57,2.31,4,3.22,3.26,2.07,3.69,6.86,7.85,8,.23.07.47.63.46,1,0,.68-.66.79-1.18.8a7.49,7.49,0,0,1-4.14-1.3,166.66,166.66,0,0,0-17.13-9c-2.39-1.15-4.69-2.57-7.36-2.95-2.4-.34-3.92,1.87-6,2.64-5.7,2.13-6.14,10-1.33,13.86A2.93,2.93,0,0,1,844,584.6c-.19.93-.82,1.43-1.74,1.07-3.12-1.2-2.42.77-2.37,2.58,0,1.07.89,3.44-1.8,2.5-1-.35-1.91-1.94-2.79-.34a3,3,0,0,0,.75,4c1.95,1.37,4,2.85,6.41,3s5.28-1.94,6.26,2.24c.18.78,1.07.18,1.64-.17a2.88,2.88,0,0,1,3.29.07c-2.25,2.25-2.17,2.19-.22,4.78,1.23,1.63,3,3.33.64,5.53-1.2,1.12-.24,2.57.45,3.22,3.16,3,3.67,7.28,5.73,10.75,2.2,3.72,4.73,7.12,10.3,6.65,3-.25,7.67-2.54,9.27,3,.16.56,1.55.9.88,1.8s-1.61.44-2.45-.06-.79-1.78-2.22-1.28c1.27,3.35.57,6.83.9,10.24.18,1.92-1.37,5,1.75,5.29,3,.31,6.08,2.14,9.21-.83,3.48-3.29,7-7.74,13-4.73a5.23,5.23,0,0,0,3.91-.23c2.72-1.22,3.94.73,5.38,2.17.7.7.82,2.3-.24,2.26-3.53-.16-7.1,3.17-10.54.09-2.31-2.06-4.15-3.67-4.55,1.26-.06.74-1.43,1.49-2.33,2a12.86,12.86,0,0,0-4.29,4.11c-1.1,1.67-1.86,3.3,1.35,3.86,2.09.37,3.47,1.76,1.2,3.85-.6.55-1.46,1.17-.88,1.93s1.75.62,2.62.23a8.53,8.53,0,0,0,3.43-3.22,5.11,5.11,0,0,1,2.64-2.32c.69-.22,1.22-1.36,2.05-.69s.35,1.85-.08,2.55c-1.08,1.76-2.86,3-3.66,5-1.11,2.85-3.08,4.29-6.3,3.22-.86-.28-2-.7-2.44.44a3.28,3.28,0,0,0,.16,2.68c1.06,1.4,2,2.82,4.5,2.46,4.35-.64,9-1.88,12.38,2.74,1.14,1.56,3.3.64,4.89,1.12,2.88.87,3.42-.56,3-2.76-.92-4.67,2.64-7.16,5.44-8.88,1.87-1.14,6-3.06,8.25,1.27.57,1.11,1.83.22,2.71-.49s.47-2.56,2.24-2.33c.82,4.79-.6,6.28-5.12,5.41-2.5-.49-4.92-.78-7.38.45-1.75.88-1.53,2.27-1.57,3.72s.15,3.37,1.54,3.26c5.4-.44,8.68,2.42,12.26,5.9,1.49,1.45,3.2,2.22,3.47,4.56a5.24,5.24,0,0,0,1.55,3.57,2.47,2.47,0,0,1,.74,3.22c-1.47,2.68-2.7,5.5-4.35,8.05-.93,1.44-2.58,2.59-4.44,1.36-2.27-1.51-.26-2.88.57-3.9,2.26-2.76,3.14-5.43.31-8.25-4.33-4.31-7.74-10.37-15.6-8-1.46.45-3.11-.32-4.66-.55-4.56-.67-8.47-4.29-12.77-4.05-6,.33-10-2.89-14.67-5.24a2.92,2.92,0,0,0-3.66.52A6.52,6.52,0,0,0,879.06,687c1.47.9,3.85,1.38,4.33,2.63,2,5.27,6.46,6.42,10.89,8.84,5.62,3.06,9.8.88,14.4-.49,3.27-1,4.45,1.43,5.78,2.91,1.5,1.67-.59,3.07-2,3.37-4.91,1-8.19,4.78-12.42,6.9-3.81,1.91-6.46,5.06-8.71,8.53-2,3-1.2,4.52,2.44,4.34,3.23-.16,4.86.81,4.68,4.19a3.06,3.06,0,0,0,.37,1.52c.54,1,1.78,2,.3,3.06-1,.74-2.18.49-3.32-.31-2.32-1.62-2.91-.47-2.42,1.79.63,2.9.37,5.36-2.1,7.51a4,4,0,0,0-1.13,5c.9,2.09-.54,4.51-2.14,5.52-2,1.28-2.12-1.51-3.05-2.57-.54-.62-1.22-1.81-2.2-.77a1.68,1.68,0,0,0,.38,2.48c1.83,1.59,2.13,3-.39,4.18a2.35,2.35,0,0,0-1.1,2c-.52,4.6-1.13,9.19-1.69,13.78a3.59,3.59,0,0,0,1.08,2.88c2.27,2.65,1.51,5.17-.6,7.48-.84.93-7.87,1.42-8.85.72-.78-.55-.4-1.49-.71-2.15-1.14-2.41,1.62-4,1.42-6.27-1.52-.18-2.85-.27-4.14-.52a3.8,3.8,0,0,0-4.26,2c-1.58,2.43,1.13,1.88,1.79,2.77a15.64,15.64,0,0,1,2.2,3.76c.49,1.31,1,2.93,2.31,3,3.95.16,5.14,3.2,7,5.76,2.22,3,.76,3.76-2.06,3.69-2.07-.05-4.64,1.17-4.43,2.39.53,3.1-1.41,5.34-1.74,8.06-.37,3.13-.18,5.42,3.62,6.11,1.94.35,3,1.1,1.68,3.89-2.06,4.34-5.69,3.28-8.91,3.86-1.28.23-2.79-.22-3.47,1.33a1.94,1.94,0,0,0,.42,2.24,3.23,3.23,0,0,0,4,.64c2-1.07,4.1-1.3,4.77,1.39.6,2.44-.31,4.11-3.17,5-2.43.78-4.51-.75-6.63-.15-2.53.71-5.07,1.75-6.62-1.28-1.24-2.43-4.94-2.65-5.1-5.81-.14-2.91-2.56-3.25-4.25-3.13-3.53.25-6.41-1.38-9.51-2.39-.83-.27-2.52-.28-2.06-1.81.36-1.2,1.7-1.06,2.78-.9,9,1.3,16.83-2.18,24.31-6.42,3.15-1.79,4.42-7.39,3.27-10.81-.87-2.58-5.56-5-9-5.18-3.89-.19-7.71,1.49-11.52.53-5.64-1.43-10.44.33-15,3.27-2.26,1.44-4.45,1.89-6.47-.21-1-1.05-1.48-.77-2,.34-2.16,4.66-5.37,5.29-9.52,2.51-.56-.38-1.66.27-1.92-.9.31-1.24,1.57-1.31,2.36-2s2.43-1.31,2-2.67-2.11-1-3.17-.8c-1.25.23-3.12-1.09-3.7,1.16-.23.88,1,2.39-.76,2.53-1.09.08-1.71-1-1.77-2.27,0-.69-.47-1.35-1.26-1.13s-.75,1-.73,1.67-.15,1.6-.1,2.39c.2,3-.79,3.14-2.91.69-.14,1.69-.21,2.87-.33,4-.07.73.36,1.83-.6,2.06s-1.68-.6-1.89-1.62a8.83,8.83,0,0,0-.37-2c-.35-.74,0-2.21-1.43-2-1,.18-1.24,1.32-1.26,2.25-.05,2.62,0,5.24,0,8-.83-.14-1.3-.09-1.55-.29-.8-.65-1.39-1.72-2.7-1-1.52.84.06,2.24-.19,2.55-1.67,2.05-3.91,3.74-3.08,6.9a3,3,0,0,1-1.12.13c-4.57-1.39-4.95,2.94-6.28,5.16-1,1.58-2.74,4.64-.86,6.1,2.38,1.85.76,2-.43,2.42-2.55.84-2.41,2.26-.92,4-1.47,1-3.73-.28-4.18,2-.35,1.78,1.23,1.93,2.27,2.7,1.43,1.06.17,2.15-.72,2.88a18.92,18.92,0,0,0-5.24,6.64c-1.52,3.14-.79,3.71,2.42,3.46a9.26,9.26,0,0,1-1,1.57c-4,4.07-4,4.26-2,9.14a1.55,1.55,0,0,1-.07,1.05c-3.86.69-3.5,4.78-5.55,6.8s-2.6,4.25-3.64,6.51c-.37.81-1.12,1.76.17,2.35,1,.47,1.71-.36,2.44-1s.69-1.67.89-2.56a1.06,1.06,0,0,1,1.48-.88,1.52,1.52,0,0,1,1.2,1.78,5.92,5.92,0,0,1-7.09,4.65c-3.79-.8-5.25.43-5.1,4.32,0,.71,1.06,1.36.15,2.14l-.72-.36c-1.35-.68-2.83-1.38-3.82.32-1.34,2.3,1.25.85,1.69,1.6s-.15,1.72-.34,1.65c-3.32-1.29-4,2.74-6.42,3.16-1.54.26-3.75.59-3.47,2.53.25,1.75,2.43,1,3.79,1.19.31.05.58.35,1,.63-.87,1.25-1.71,1-2.82.69-.88-.23-2.63-.55-2.77.32-.24,1.5.69,3.08.53,4.76a3.48,3.48,0,0,0,3.25,0c2.16-1.45,4.72-1.33,7.23-1.74-.06,2.79-1.44,3.08-3.67,2.85-2.48-.26-6,.12-6.29,2.47-.2,1.71,0,5,2.61,6.64,2.3,1.42,3.78,3-.38,4a1.49,1.49,0,0,0-1,1.94c.18.64.73.82,1.19.37,2.87-2.83,2.79-.63,3.36,1.66.38,1.51,1.08,2.27-1.05,2.76-1.84.42-1.06,1.6,0,2.17,1.5.84,3.25,1.24,4.7,2.13,3.55,2.19,6.44,1,8.89-1.68,1.69-1.84,3.67-3.56,4.35-6.14.26-1,.77-2.06,1.69-2,2.51.28,2.49-1.22,2.52-2.94,0-1.06.17-2.19,1.7-2.12-1,4.19,8.21.9,5,6.8-.18.32.17,1,.43,1.48,1.72,2.94,3.09,6,5.61,8.57,2.34,2.36,5.58,4.53,6.18,7.89.4,2.23,1.49,3.87,2.28,5.78.52,1.25,1.31,2.2,2.68,1.58s3.53-.4,3.3-2.71c-.39-4.06,2.39-5.24,5.42-6.19,2.19-.68,3.63-1.59,3.8-4.32a39.83,39.83,0,0,0-3.41-18.45c2.33,0,3.39-2,5-3.32,2.25-1.93.73-4.73,2.38-6.73,1.92-2.33,1.41-4.29-1.62-5.44a17.17,17.17,0,0,0-5.34-1.54c-1,0-2.07,0-2.51-.94A30.75,30.75,0,0,1,794,881a20.31,20.31,0,0,1,6-12.49c3.69-3.57,5.93-7.49,2.76-13-1-1.68-.52-4.66-.19-7.17.66-5,5-5.69,8.09-7.63,2-1.28,4.83.22,6.58,1.62,1.35,1.08,3.38,3.55,1.87,5.15-2.81,3-2,6.75-3.28,10-1.47,3.69-3,7.38-4.27,11.13-.91,2.61-1.45,5.07.59,7.79,1.45,1.93,3.24,3.87,3.78,6.45.95,4.61,2.69,8.34,8.54,7.21a1.63,1.63,0,0,1,1.15.28c3.92,2.91,6.18.17,8.71-2.34,3.48-3.45,5.69-8.31,11-9.8,1.4-.4,1.8-1.83,2.26-3.11s1.45-2,2.39-.87c2.1,2.51,4.48,2.17,7.12,1.35a1.52,1.52,0,0,1,2,.73c.28.72-.19,1.11-.77,1.58-2.68,2.17-5.65,4.16-4.79,8.46.33,1.64-1.21,1.22-2.23,1.37-6,.85-11.74,2.52-15.58,7.74-1,1.31-3.37,2.29-1.5,4.65,1.38,1.75,2.34,4.18,5.31,2.37,1-.58,1.56.23,1.83.94,1.08,2.84,1.07,6,2.48,8.76.15.29-.3,1-.58,1.39-1.92,2.91-4.22,2.81-6.75.82-1.57-1.24-3.34-1.82-5.18-.8a4.73,4.73,0,0,0-2.36,4c-.35,5.47.78,10.45,4.59,14.74,2.14,2.41.95,5-2.32,6-1.43.44-2.53.88-2.65,2.87-.23,3.66-4.93,6.06-7.82,3.86-2-1.51-3.2-1-5,0-5.33,2.76-8.38,8.69-14.48,10.39a1.65,1.65,0,0,0-.84,1.24c-.32,4.82-2.73,3-5,1.61a34.32,34.32,0,0,0-3.64-2.4c-1.93-.89-3.94-1.52-5.71.54-4.93,5.76-9.73,5.78-15.24.45-2.08-2-4.2-3.7-2.82-6.92a37.81,37.81,0,0,1,4.74-8.67c-2.09-.68-3.71-1.74-3.43-4.18.17-1.5,1.45-3.67-.59-4.16-1.73-.42-2.52,1.95-3.35,3.4a5.58,5.58,0,0,0-.84,2.2,4.33,4.33,0,0,1-3.68,4c-2.63.25-1.58,1.4-1.69,2.85-.36,4.72,4,6.75,5.69,10.35,1.17,2.56,0,6,3.85,8-3.18.05-4.13,3.23-5,3.29-3.42.24-6.35,2.23-9.24,2.65-6.58.94-14.73,7.21-15.65,14.14a2,2,0,0,0,.38,1.44c2.86,3.24.18,3.79-2,3.47-4.4-.65-7.58,2.68-11.63,3.06a3,3,0,0,0-2.59,2.75c.15,4.23-2.65,5.38-5.9,6.31a5.58,5.58,0,0,0-2.42,1.26c-3.16,3.26-5.4,3.56-9.26.88-.95-.66-1.93-1.24-2.91-.7-1.5.82-.11,1.77.14,2.68.18.64.17,1.34.41,1.95,1.34,3.4.24,3.28-3,3.19-4.65-.13-9-3.39-13.8-1.29-1,.45-3.16.31-2.57,1.63.71,1.59-1.22,4.77,2.78,4.83a24.24,24.24,0,0,1,8.07,1.86c1.91.73,5.1,2.43,5,3.39-.49,4.26,2.52,5.18,5.1,6.62,1.32.73,1.32,1.86,1.41,3.06.37,4.8-1.23,9.29-2.24,13.86s-2.76,5.54-7.31,4.69c-4-.75-8.07-1.88-12.13-2-8.94-.24-17.57-2.14-26.25-3.9-1.16-.23-2.57-.55-3.54-.11-2.34,1.06-4.55,2-7.24,1.62-.75-.11-2.56.81-1.49,2,2.54,2.8,1,5.62,1.09,8.64.1,6.43-2,11.34-6.75,15.39-1.79,1.52-1.29,3.84.23,4.39,4.07,1.48,2.75,4.16,2,6.68s-.1,3.43,2.45,3.64c3,.24,5.87,1.23,9,.82,2.44-.32,5.41,0,6.81,2.41s5,4.13,5,6.15-3.15,4.17-5,6.22c-2,2.28-3.9,4.77-7.33,5.08-3,.28-6.07.82-9.12,1-6.06.35-10.38,4-14.59,7.68-1.09,1-2.32,3.14-1.93,4.17,1.68,4.45-1.24,3.32-3.45,3.26-1.11,0-2.22,0-3.33,0,1.41.77,3.11.28,4.79,1.58a13.85,13.85,0,0,1-2.65,1.5c-6.89,1.89-13.66,3.89-21.07,3-7.86-1-14.73,3.7-22,5.74-3,.85-6.08,3.65-9.79,4-4,.33-6.88,3.33-10.56,4.33-1.67.45-3.82-.41-4.47,2.2-.61,2.44.74,3.65,2.53,4.79.88.56,2.63,1.51.92,2.54-2.4,1.45-.85,2.51-.23,3.87s1.91,2.78-.15,3.76c-3.25,1.55-5.59,5.29-10,4.21a1.53,1.53,0,0,0-1.87,1.14c-.22,1,.85,1.18,1.37,1.72.88.93,2.83.93,2.79,2.56-.11,3.91,2.81,4.83,5.57,5.73a25.23,25.23,0,0,1,6.56,2.73,43.71,43.71,0,0,0,10.35,5.64,31,31,0,0,1,9.23,4.58,17.76,17.76,0,0,0,8.65,3.89c8.25.91,15.6,4.89,23.69,6.28-1.36.24,39.92,10,68.2,10.12a10.34,10.34,0,0,1,4.72.64h42.48c2.17-.91,4.48-.62,6.73-.71q18-.69,35.94-2.8c48.82-5.76,96.44-16.32,142.35-34.44,11.89-4.69,23.77-9.42,35.54-14.41,9-3.8,17.25-8.95,25.89-13.39,4.7-2.42,9.75-4.1,14.42-6.68a601.78,601.78,0,0,0,63.36-40.42,572.85,572.85,0,0,0,94.39-86.38c5.16-5.91,9.46-12.54,11.65-20.24.52-1.83,1.62-4.51-.48-5.5-2.29-1.08-3.27,1.72-4.24,3.3a138.27,138.27,0,0,1-12.62,16.81c-6,7-12.41,13.74-18.31,20.85-6.45,7.77-13.25,15-23.58,17.17-2.09.44-3,1.92-4.62,2.63-4.07,1.75-8.29,3.45-11.83,6-4,2.89-8.76,4.39-12.43,7.73a2.55,2.55,0,0,1-2.65.57c-6-2.8-11.12.42-16.07,2.88-3.57,1.78-6.31,1.06-8.58-1.38a7.32,7.32,0,0,0-6.88-2.23c-2.57.39-5.32.55-7.7,1.9-1.64.93-3.81,1.26-4.85,0-1.6-2-3.21-1.23-5.1-1.51-4.75-.71-9.67.43-14.25-1.36a30.64,30.64,0,0,0-13.23-2.31,9.59,9.59,0,0,1-6.85-2.58c4.78-.3,9.29,1.52,14.11,1,3.92-.39,5.1-2,4.63-5.68-.27-2-1.18-4.17.13-6.77a8.07,8.07,0,0,1,.77,1.61c.38,3-.4,7.67,5.06,3.55a2.49,2.49,0,0,1,1.57-.14c7.8.85,15.7-1,23.46.85a6.28,6.28,0,0,0,3.88-.67,57.2,57.2,0,0,1,7-2.78c2.36-.63,5-1.39,7,1,2.68,3.07,6.06,3.43,9.42,1.68a54.93,54.93,0,0,1,18-6.08,25.91,25.91,0,0,0,6.51-1.73c3-1.24,6.2-4.16,9.38-.1.25.32,1,.2,1.54.33,5.85,1.46,9.63-1.69,13.55-5.45s6-8.38,9.63-11.93c7.07-6.92,12.58-15.13,18.26-23a282.11,282.11,0,0,0,15.79-23.8c.79-1.37,1.92-2.74,2.14-4.22,1.34-9,7.25-15.46,12.38-22.33.92-1.23,2-2.6,1.84-3.87-.47-4.74,2.3-8,4.58-11.59.35-.55,1-1.31.86-1.7-1.45-3.6.92-6.15,2.41-8.88.92-1.69,1.31-2.86-.4-4.42-1.54-1.4-1.11-3.36,0-5.07,3.23-5.12,1.76-10.7,2.39-16.59-6.61,4.12-12.2,8-15.91,14a19.76,19.76,0,0,1-5.73,5.51c-3.92,2.78-6.13,2.78-9.63,0-1.26,2.78-1.47,5.84-2.23,8.71-1.44,5.41-.74,11.36-4.62,16.23-3.34,4.2-7.39,7.9-9.41,13.18-1,2.65-3.82,2.46-5.61.36-1.21-1.42-3.16-2.39-4.88-1.61s-2.3,2.79-1.7,4.84c.32,1.09,1.17,1.8,2.34,2.77-3.44.66-6.16,2.53-9.28.46a3.32,3.32,0,0,0-3,0c-6.38,4.77-13.76,4.77-21.33,4.59-.06-1.89,2.07-2.52,2.63-4.18.68-2,.49-3.9.6-5.89.15-2.84,4,.21,5.24-1.82,3.86-6.17,10.44-5.56,16.33-6.65,1-.18,2.11.25,2.89-.8,2.18-3,5.45-4.52,8.33-6.6,6.65-4.8,13.23-9.77,16.1-18a55.74,55.74,0,0,1,3.08-7.61c1.68-3.19,4-5.78,8.19-4.75,1.67.41,2.72-.24,3.65-1.65,5.18-7.84,11.55-14.77,16.14-23.16,3.19-5.83,7.25-11.27,9.88-17.46,3.72-8.74,9-16.87,11.46-26,1.57-5.82,5.55-8.37,10-10.87a9,9,0,0,0,4.4-4.81c.41-1.11.77-2.67,1.62-3.12,4.29-2.25,5.92-6.53,8.27-10.7.84,2-.9,4,.69,5.6,7-6,11.51-13.13,11.84-22.5.05-1.44.13-2.63-1.54-3.22-1.43-.5-1.58-1.61-1.12-2.94s1.2-1.58,2.54-1.95c4-1.1,7.57,2.09,11.44.78,3.58-1.21,7.73-.61,10.45-4.46,4.47-6.34,12.34-9.56,15.92-16.83,0-.1.27-.09.34-.19,5-6.1,9.26-12.6,9.46-20.84.13-5.42.1-10.85-.12-16.26-.12-3-3.4-4.47-4.29-7.23-.06-.19-1-.14-1.47-.15-4.25,0-5.6-1.47-5.17-5.59a54.89,54.89,0,0,0-.78-18.73c-1.84-7.7-1.28-15.87-4.43-23.37a13.69,13.69,0,0,1-.8-8.51c.75-3.52.3-8.22-2.57-9.92-3.4-2-3-4.52-3.41-7.19-.18-1.17-.3-2.37-.39-3.53-.46-6.38,1.14-12.86-.92-19.19,0-.13.31-.4.49-.59,1.47-1.59-.14-2.71-.72-3.86-.72-1.43-1.82-.16-2.77-.09-.72.05-1.47,1.17-2.08.27s-.1-1.65.89-2.22c2.26-1.32,2.71-3.27,1.22-5.41-1.11-1.59-.73-2.49.68-3.63,5.4-4.34,7.94-9.93,9.1-16.91.87-5.24,2.32-11.9,10.44-11.42.15,0,.46-.33.46-.5,0-3.67,2.2-7.53.07-10.94-2.52-4-1.88-9.19-5.08-12.88-.48-.55-.2-1.21,0-1.87C1270.15,548,1276.21,544.77,1277,538.47ZM814.34,808.09c-2.38-2-1.58-4.29-1.41-6.4,0-.57,1.14-.54,1.29-.22A7.08,7.08,0,0,1,814.34,808.09ZM720.16,1206c5.68.37,11.31-1.49,17-.48C731.53,1207,725.84,1206.5,720.16,1206Zm26.6-1.26c5.73-1.76,11.52-1.4,17.31-.51C758.32,1205.41,752.54,1204.87,746.76,1204.7ZM1002.33,955c-2.34,3.47-5.7,6.09-8.54,9-5.47,5.63-12.43,8.26-18.59,12.4-2.67,1.8-6,1.75-8.92,2.57-6,1.69-10.51,5.26-15.19,8.81a13.17,13.17,0,0,0-3.46,3.86,31.26,31.26,0,0,1-17.36,14.5c-1.28.45-4.75,1.28-.74,3.27,1.37.68,0,.92-.18,1.31-2.26,5-7.2,6.59-11.71,8.18-3.19,1.13-4.52,3.38-6,5.82a2.19,2.19,0,0,0,.36,2.62c.39.43.94.66,1.4.27,4.4-3.77,5.13,1.06,6.3,3.08,2,3.4,7.31,6.79,11.13,5.91,4.38-1,8.44-2.76,13.33-1.92,3.94.68,7.08-3,7.78-7.44a3.12,3.12,0,0,1,2.36-2.84c2.8-.81,5.67-2.21,8.45-2.09,6.65.27,10.14-3.85,13.43-8.47,2.21-3.1,3.65-6.8,8.29-7.33,2.4-.27,2.31-3.77,4.93-4.81a14.62,14.62,0,0,0,3.95,8.65,7.85,7.85,0,0,1,2.06,6.56c-.77,5.28.67,10.52.33,15.85-.22,3.52-2.25,5.32-4.55,6.79-5.25,3.36-9.9,7.93-16.61,8.59-3.76.37-5.5,4.36-8.94,5.52-2.44.82-3.45,3.18-5,5-4.54,5.14-11.19,6.36-17.3,8.39-5.27,1.75-10.68,3-15.51,5.89-1.43.84-2.63,1.65-4.41.91-1.93-.8-3.55.6-5.31,1.1-4.14,1.19-7.88,3.27-12.79,2-3.27-.86-7.35.81-10.63,2.48a52.44,52.44,0,0,0-9.18,6.25c-2.31,1.88-4.41,4.23-1.36,7.31.86.87,1.16,2.05.3,2.87-2.41,2.28-4.24,5.28-8.41,5.12a98.36,98.36,0,0,0-23.83,2.25c-2.73.57-5.56.74-7.76-1.8a3.83,3.83,0,0,0-3.35-1.06c-6.78.85-13.74-.15-20.38,2.54-3.84,1.56-8.13.06-12.15-.16a36.42,36.42,0,0,1-8.28-1c-2.58-.76-2.58-2-.81-3.61.77-.71,1.63-1.33,2.46-2,3-2.38,3.61-5.68-1-7-2.44-.73-2.4-2.1-.31-3.57.84-.59,1.7-1.66,1-2.7s-1.68-.2-2.5.25-1.8,1.37-2.82.2c-2.35-2.7-5.46-2.17-7.54-.48-6.3,5.1-13.86,3.39-20.88,4.49a32.1,32.1,0,0,0-4.65.81c-4,1.24-7.81,2.91-12.33,1.64-3.92-1.1-7.94.48-11.74,1.54-5.45,1.53-11.19.7-16.5,2.16-8,2.19-15.7,5.22-23.5,8a7.73,7.73,0,0,1-3.9.21c-4.58-.67-9.1-2-13.81-1.5-5.27.57-9.71-.94-13.24-5.58,4.34-3.76,9.69-3.51,14.74-3.34,4.17.14,8.35.27,12.52.46a3.17,3.17,0,0,0,2.76-1.31,9,9,0,0,1,6.76-3.69c1.83-.1,2.6-1.55,3.44-3a3.91,3.91,0,0,1,2.17-1.67c4.21-1.08,4.15-3,1.22-5.54a1.51,1.51,0,0,1-.1-2.45c3-2.3,4.41-6,7.46-8.23a9,9,0,0,1,5-2.17c4.41-.28,7.69-3.42,11.68-4.83,1.74-.62,1.65-2.34,1.16-3.78-1.58-4.62,1.19-8.86,6.09-8.74,3.82.09,7.66-.13,11.46,1.19,3.09,1.07,6.14.74,8.65-2.22,1.74-2.05,3.9-3.95,7.06-4.06,1,0,2.11-1.07,3-1.82,5.68-4.72,12.77-3.7,16.93,2.51a6.64,6.64,0,0,0,3.24,2.82c7.53,2.66,14.47,6.75,23.06,6.63,3.85-.05,8.67.22,12.26,3.2a2.37,2.37,0,0,0,1.86.46c2.92-.85,4.73.72,6.57,2.6,1.63,1.67,3.36,3,1.3,5.63-.56.72-1.38,2.78,0,3.62,1.8,1.1,2.36-1,3.31-1.95,2-2,1.68-5.31,4.57-7.15,1.57-1-.69-2.27-2.16-2.51-1.84-.3-3.49-.58-2.95-3.15.48-2.25,1.59-3.88,4-3.39,2,.41,4.2-.62,6.18.8,1.25.9,2.78.66,3.09-1.09.26-1.46-.95-2-2.3-2.11-5.3-.27-10.46-2-15.84-1.53-1.24.1-3,.73-3.1-1.82-.09-1.83-1.48-1.28-2.69-.76a12.86,12.86,0,0,1-15-3.49,11.55,11.55,0,0,0-9.38-4.43c-3.41-.05-4.69-1.94-4.78-5a2.38,2.38,0,0,1,.26-.75c.58-1.67-2.88-3-1.07-4,2.39-1.44,4.39-3.39,6.85-4.69a2.12,2.12,0,0,1,2.54.08c1.17.83,1.07,1.45.39,2.59a1.87,1.87,0,0,0,1.16,2.88c1.41.5,2.29,0,2.59-1.55.62-3.11,2.73-1.49,3.94-.9a13.47,13.47,0,0,1,5,3.67c3,4.13,7.15,4.59,11.52,3.66a14.33,14.33,0,0,1,6.67.42,138,138,0,0,0,15.58,2.79c1.66.21,2.26.77,2.41,2.43a31,31,0,0,0,1.21,5.82c.24.83.93,2.1,1.53,2.18,3.89.46,6.7,3.63,10.54,4,1.85.2,3.81-.54,4.67,2.31.49,1.63,2.32-.52,3.61.05.92,1.36-1,2.38-.42,3.9,1.88.28,4.3,0,4.84,2.82.05.27.74.72.91.64,2.95-1.45,6.56.33,9.34-2,.85-.7.66-1.32.19-2-1.36-2.06-1.37-2.59.1-4.17-3.07-2.39-6.52.33-9.73-.86a5.86,5.86,0,0,1,6.3-1.79c1.41.37,3.22-.36,4.58-.28,4.58.26,3.24-3.34,3.26-5.14,0-1.47-2.28-.94-3.26-.18-4.15,3.22-5.28,3-6.88-1.48-.55-1.53-2.31-2.22-3.81-2.73a2,2,0,0,1-1.45-2.8c.43-1.65,1.46-1,2.48-.54,2.33,1,4.6-.43,4.92-2.1,1.21-6.37,6.92-6.76,11.18-8.81a30.75,30.75,0,0,1,6.35-1.66c2.57-.56,5.3-1.59,7-4.67s5.22-4.68,8.38-6.35c-.44-1.63-1.62-1.27-2.56-1.06a8,8,0,0,1-8.52-3.75c-1.16-1.87-2-5.53.86-8,1.2-1,.32-2.53,0-3.76-.57-2-1.44-4-1.26-6.22.08-.95,0-1.86,1.36-1.93,4.27-.19,2.88-2.62,1.53-4.54-1.11-1.59-1.56-2.32.41-3.74,1.49-1.07,1.26-3.59,2-5.41a14.77,14.77,0,0,1,4.15-6.18c1.51-1.3,2.72-4.18,5-.54.66,1,2.73.77,4-.21a14.81,14.81,0,0,1,2.13-1.74c1.12-.54,2.43-2,3.58-.78s-.36,2.3-1.12,3.32c-.54.72-1.57,1.53-1,2.41.75,1.18,1.89.18,2.86,0,1.84-.35,3.57-.79,4.83,1.45s3.56.71,3.8-.32c.94-4.12,5.23-6.22,6-10.45a6.38,6.38,0,0,0-1.2-.34c-8.22-.46-9.26-1.92-4.15-8.3,4.83-6,9.17-12.51,14.79-17.9.56-.53,1-1.42,1.93-.69a1.58,1.58,0,0,1,.23,2.18c-1.21,2-2,4.37-3.66,6.11.64,1.77,4.11,1.16,3.42,2.26-1.82,2.88.41,6.6-2.38,9-.6.52-1.49,1.08-1,1.92s1.33.36,2.15.13a134.84,134.84,0,0,1,25.5-4.73c1.76-.15,3.51-1.22,5.11-2.14a6.09,6.09,0,0,1,5-.49C1004.5,947.29,1005.61,950.14,1002.33,955Zm88.48-54.83c-2.78,2.79-4.38,6.35-6.18,9.7-2.7,5-6.82,8.1-11.8,10.22-2.39,1-4.72,2.12-6.2,4.18-2.35,3.27-5.15,2.35-7.71.94-2-1.11-4.06-2.83-2.28-5.74a1.25,1.25,0,0,0-.49-1.74c-3.57-2.26-2.57-5.31-1.65-8.57-2.66,2-5.4,2.12-8.4,2-4.86-.13-9.6,1.74-14.54,1.19a8.25,8.25,0,0,1-4.78-1.69c-2.26-1.94-4.79-2.9-7.75-1.78-1.06.4-2.18.26-2.19-.84-.05-4.34-3.34-8.7.17-13.05a5.28,5.28,0,0,0,1.06-3.37c-.32-4.71,1.94-8.72,3.2-13,1.13-3.84,2.07-7.79,6.42-9.49.73-.29,1-1.17,1.32-1.91,2.34-4.83,4.67-5.07,8.3-1.09,1.2,1.32,1.32,3.39,3.54,4.08,1.39.43.09,1.58-.46,2.14a28.66,28.66,0,0,0-4.17,5.28c-.91,1.51-1.33,4-.43,4.44,5,2.32.93,3.73-.28,5.46a3,3,0,0,0-.42,1.54c4.53-3.21,9.57,1.61,14.13-1.44,1.21-.81,9.85,0,12.2.89a28.86,28.86,0,0,1-1.13-4.18c-.38-3.29,1.92-5.5,5.12-5a9,9,0,0,0,5.73-1.15c2-1,3.19-.13,2.69,2.13a8.6,8.6,0,0,1-3.28,5.59c-1.9,1.41-5.33,3.1-2.28,6.55,1,1.17,2.22,1.52,3.36.16,1.35-1.61,2.55-3.37,4.65-.76.55.69,1.49.06,2.24-.18a4,4,0,0,1,4.4,1c2,1.93,4,3.68,7,4.16C1091.8,897.24,1092.23,898.75,1090.81,900.18Z"/><path class="cls-1" d="M333.66,751.65c1.19,3.84,4.21,5.36,7.38,6.91a52.58,52.58,0,0,1,24.41,23.58c1.3,2.55,2.85,5.57-.88,7.54-1.72.91-6.3-2.87-6.93-5.45s-.64-2.67-4-6.67c1.46,4.16-.81,7.71,2.25,10.6,1.28,1.21.21,1.91-1,2s-3-1.26-3.24-.05c-.62,3-3.41,4.54-4.11,7.55-1.14,4.88,1.32,8.94,2.06,13.37.33,2,3.59,2.58,3,5.27-.22,1,.78,2.19-.6,2.86s-2-.41-2.64-1.19c-3.31-3.77-6.91-7.29-9.53-11.63a5.9,5.9,0,0,0-4.19-3.21c-2.26-.45-4.18-2.23-6.22-3.3-3.39-1.78-1.74-3.81-.84-5.47,1.26-2.34,3-.78,4.72,0,4.92,2.15,7.13,6.88,10.52,10.5a4.09,4.09,0,0,0,1,.56c.58-1.28-.09-2.08-.64-3-.73-1.17-2.7-2.55.82-3,1.23-.15,1-2.38-.44-3.07-6-3-8.9-8.34-11.65-14.29-1.47,1.49-2.84,2.29-4.29-.42-1.34-2.51-3.61-4.51-4-7.53,0-.25-.2-.66-.34-.68-5.65-.76-6.23-8-11.84-9.1-3.69-.74-7.07-2.13-9.64,1.92-.35.55-1.06,1.19-1.64.79s-1.28-1.42-1.14-2c.56-2.21-.79-2.72-2.28-3.81-2.17-1.59-2.74-4.37-3.46-7a18.33,18.33,0,0,0-7.2-10.2c-.59-.42-1.38-1.19-2.11-.34-3.5,4.11-6.4.32-8.5-1.33s-.49-4.75.83-7.41a4.57,4.57,0,0,0-4.18,2.56c-1.8,3.44-3.75,2.51-6.06.81a14.66,14.66,0,0,0-2.25-1.12c2.47-.49,2.37-3.5,4-4.35s3.85-2.61,6.25-.58c-.64-2.14-1-4.37-3.74-4.18s-4.85-.12-3.71-3.89c-4.36.85-3.86,3.6-2.87,6.94a8.11,8.11,0,0,0-1.22-1c-1.52-.66-2.52-3.54-3.88-2.53-1.19.89-1.86,3.85-1.32,5.4,1.15,3.32-1.24,3-3,3.89-.34-2.08-1.42-3.69-2.34-5.44-1.65.85-1,1.68-.4,2.65a2.1,2.1,0,0,1-.91,3.07c-1.4.45-1.46-1.06-1.5-2.09s-.23-2.33-1.22-2.2c-4.45.6-4.15-3.69-5.88-5.7-2-2.31-5.19-3.75-5.54-7.49-.25-2.66-2.51-4.4-4.47-5.93a13.44,13.44,0,0,1-5-7c-1.22-4.65-4.89-6.59-8.33-9-2.35-1.61-4.4-1.28-6.51.52a108.63,108.63,0,0,0-12.91,12.3c-1.92,2.29-3.84,3-6.56,1.4s-4-3.86-2.79-6.68c1.31-3.12,1.6-6.77,4.37-9.23a3.41,3.41,0,0,0,1.17-2.84c-.18-3.76,4.33-2.63,5.42-5.1,3.3,1.45,3.89-1.2,4.64-3.23,1.78-4.82,3.92-9.63,1.17-14.88-2.43-4.65,1-8.69,1.78-13,.68-3.63.89-7.18-.26-10.55-.94-2.77,1.15-5,.62-7.38a70.85,70.85,0,0,1-1.25-7c-.46-3.8-1.24-7.56-.66-12.43-1.83,2.58-.54,4.73-1.78,6.76-1.57-2.21-2.82-3.7-3.07-6.9-.3-3.75,1.55-6.57,1.67-9.71.3-8.19,3.25-16.21,1.66-24.49a6.29,6.29,0,0,1,.27-3.88c.42-1,.6-2.29-.32-3-3.94-3.09-3.78-7.2-3.1-11.48.42-2.66-3.11-11-5.25-12.32-1.63-1-3.13.07-4.45.67-2.27,1-3.73.88-5.51-1.14-2.74-3.1-6.78-4.43-10.67-4.8-3.37-.32-5.9,2.53-7.45,5.29a95.48,95.48,0,0,1-7.7,11.09,5.44,5.44,0,0,0-1.17,3.69,12.24,12.24,0,0,1-.7,4.71c-3,8.26-2,16.71-1.25,25.16a20.52,20.52,0,0,1-.32,4.37c-.84,6.57,0,12.34,6.67,15.83,1.75.91,2.57,2.94,2.73,5.09.43,5.81-.44,11.67,1.12,17.47.71,2.66-1.84,5.54-.21,8.48a1,1,0,0,1-1,1.4,1.9,1.9,0,0,1-1.92-1.19c-1.23-2.82-2.36-5.57-6.17-5.89-1-.08-1.34-1.64-.75-3,.69-1.63.24-3-1.93-2.78-3.32.38-5.4-.71-5.86-4.26-.11-.88-.52-2-1.79-1.5-.93.37-.57,1.32-.45,2.11a106.37,106.37,0,0,1,1.49,17.79c-.17,6.25,1,12.42,1.65,18.62.34,3.13.71,6.36-1.23,9.31-.84,1.28-.35,2.84.08,4.28a2.32,2.32,0,0,1-.55,2.6c-1.21,1-1.48-.49-2.16-.91a14.93,14.93,0,0,0-1.74-.9c-5-2.22-5.06-2.22-5.64,3.48a6.56,6.56,0,0,1-1.95,4.08c-1.88-5.44.93-10.57-.14-15.71a47.19,47.19,0,0,1-.57-8.37c0-1.68-1-3.87,2-4.3.74-.11.6-1.09.6-1.71a28,28,0,0,1,2-11.28c2.25-5.16.89-10.5,1.05-15.68.32-10,.83-20,1.95-29.86.41-3.65,2-7.3,3.16-10.88a90.59,90.59,0,0,0,4.69-32.55c-.39-9.32,3-18,5.22-26.83.89-3.6,2.09-7.13,2.81-10.76.81-4.07,2.62-7.74,4-11.58a242.11,242.11,0,0,1,14.25-33.15c1.44-2.67,2.64-5.68,5.94-1.69.52.63,1.1,1.06,2,.37,2.79-2.12,5.85-3.59,8.29-6.49,4.23-5,8-10.57,13.33-14.66.9-.69,1.2-2.12,2.05-2.91,2-1.84,2.33-5.28,6.61-5.07,3.2.15,3.83-4.5,6.37-6.4,4.82-3.62,8.3-8.71,13.4-12.17,4.35-3,8.62-5.09,14-5.22,2.6-.06,3.62-3.21,5.21-5,1.36-1.55,2.39-3.47,3.68-5.16,1.84-2.41,1.14-4.32-1.77-4.41-3.82-.13-7.49-.23-10.91,2.91a34.87,34.87,0,0,1-12.3,7.7c-2.37.8-4.44,2.69-6.42,4.35-3.45,2.9-7.66,4.47-11.4,6.86-1.21.78-2.89.88-3.77,0-1.06-1,.39-2.14,1-3.06,2.25-3.55,4.2-6.59,9.73-6.4,3.82.13,6.68-4.46,8.7-8,1.53-2.65,3.76-4.8,5-7.63a1.36,1.36,0,0,1,1.68-.78c.79.32.57,1.09.25,1.69-1,1.92.7,2.75,1.68,3.51,1.23,1,2.08-.24,3.23-1a34.71,34.71,0,0,0,8.67-7.56c2.08-2.68,5.12-1.16,7.6-2.41a37.89,37.89,0,0,1,11.07-3c6.71-1,11.38-4.72,15.7-9.77,2.84-3.32,6.2-6.26,8.86-9.81.16-.21.39-.57.53-.55,5.37.86,9.2-3.86,14.07-4,2.15-.05,4.31,1.46,6.32-.59a.78.78,0,0,1,.71.16c2.4,4.69,3.67,3.28,6.68-.1,2.26-2.54,6.6-4,11-2.71s9.61.59,12.53,5.6c.5.86,2.71.84,4.16,1a9.89,9.89,0,0,1,8,5.06c2.72,4.63,7.12,7.85,11.35,11,2.29,1.7,3,3.1,1.68,5.89,4-3.92,7.58.27,11.38.06,1.58-.09,4.48-.59,5.12,1.08.75,1.94-2.31,2.43-3.27,4-1.09,1.74-1.72,3.93-4.18,4.73-1.22-1.31.56-5.31-3.51-4.08-2.26.68-3.48,3.7-1.68,5.15a22.79,22.79,0,0,0,12,4.75c4,.46,6.27-3.94,10.2-2.81.55.16.53-.42.71-.74,2-3.57,2.79-3.8,6.65-1.74,1.5.8,2,.26,1.94-1.17-.05-2,1.49-3.21,2.76-4.12,2.45-1.78,6.13-1.77,7.35-5.4a2,2,0,0,1,2.47-.79,2.06,2.06,0,0,1,1.09,2.35,14,14,0,0,0,.18,2.36c2.05.61,1.25-3.69,3.8-2a3.68,3.68,0,0,1,1.52,2.69c.46,2.78-2.92,1-3.45,3,1.39,1.14,3.46,1.13,5.19,3.26-.18-2.48-.33-4-.38-5.55-.07-2.39,1.4-2.81,3.12-1.92,3.13,1.61,7.11,1.17,9.67,4.12a1,1,0,0,0,1.68-.15,5.17,5.17,0,0,0,.12-4.27c-.31-.87-1.76-1.54-.37-2.68.94-.78,2.06-.33,3.05-.58,2.86-.73,0,4.9,4,3.34,3.12-1.23,3.3,2.45,3.7,3.9,1,3.77,3.27,4.58,6.71,4.32-.52-2.6-4.06-2.84-4-5.72,0-.89-.66-1.86.51-2.39s1.42.55,1.7,1.2c.67,1.57,2.09,1.84,3.46,2.3,1.12-1.16-1.78-2.34,0-3.43.56-.34,1.17-.74,1.78-.09a2.26,2.26,0,0,1,.19,3.43c-.77,1,.3,1.92,1.3,1.38,4.74-2.55,10-.87,14.91-2.08.57-.14,1.61,0,1.85.39,3,4.78,7,2.49,10.82,1.63,2.71-.62,6.53,1.29,8.38,4.64,1.36-1.78,1.69-3.23-.37-4.55a10.85,10.85,0,0,1-2.32-1.51c-.6-.67-2.49-.83-1.55-2.19.8-1.17,1.94-.36,2.65.51,1.24,1.51,2.29,1.85,3.88.24,3-3,6.88-3.25,10.88-2.82a3.64,3.64,0,0,0,1.92-.42c-5.39-.84-10.77-1.47-16.25-.32,2-2.9,4.76-3.48,7.7-2.89a10.88,10.88,0,0,0,5.87-.26c2.11-.72,4.43-2.67,5.25,1.85.3,1.64,3-.58,3.2-1.11,1.42-3.57,3.74-4.82,7.59-5.16,2.16-.19,4.34-2.49,6.13-4.24,2.85-2.8,5.72-3.75,9.68-2.36,1.43.5,3.2-2.31,5.16-1.35,4.8,2.33,7.59-2.3,11.47-3.12,1.93-.41,1.7-3.84-.27-5.42-4.1-3.27-4.11-3.28.43-6a3.4,3.4,0,0,0,1.68-3c.18-3.33,3.44-4.77,4.41-7.95.5,2.15,0,4.61,3.22,3.16.68-.31,1.27.67,1,1.3-.88,2.3-.12,4.3.5,6.52.46,1.65-.92,3.16-2.71,3.92-1.64.7-3.2,1.56-5.78,2.82,3.33.36,5.71.86,4.6,4.65,4.34-4.55,8.78-8.3,8.66-14.44-.1-5,2.31-9.3,3.31-14,.4-1.85,0-2.82-2.11-2.56-2.32.29-1.91-.58-1.56-2.49.94-5.19,5.36-8.62,6.49-13.49,1.6-6.91,8.75-10.6,9.77-17.74a2.63,2.63,0,0,1,1.47-1.75c4.17-1.43,5.93-6.93,11.29-6.49,1.39.11,1.22-1.74,1.52-2.87s1.09-3,2.55-2.23.15,2.27-.4,3.17c-1.23,2-2.55,4-5.59,3.48-2.25-.41-3.68.54-3.22,3.13.3,1.71-.07,3.59-1.25,4.45-3.6,2.64-4.94,6.48-7,10.15s-.46,6.57-.13,9.78c.07.71.57,1.47.26,2.22-.45,1.11-1.27,2.31.25,3.1,1.22.63,1.81-.69,2.63-1.29,1.15-.84,1.71-1.65,3.86-.62,3.56,1.7,2-2.23,2.71-4.05,5.38,2.76,9.67,1.41,12.64-3.82,2.61,3.19,3.39,7.33,6.21,10.27a22.54,22.54,0,0,1,1.42,1.9c.77,1-1.83,3.13.5,3.07,1.77,0,2.12-2.68,1.64-4.27-1.14-3.78,2-3.68,3.92-4.72.6-.33,7.93,3.64,8.15,4.3a1.11,1.11,0,0,1-1.12,1.62c-.74,0-1.93-.78-2.15-.53-1,1.18-2.88-.55-3.54,1a2.64,2.64,0,0,0,.24,2.26c1.16,1.43,2.4.16,3.6-.21,3.63-1.11,6.25,1.39,8.28,3.35s1.17,5.17-.71,7.23a5.56,5.56,0,0,0-1.55,5.35c.42,2.23-.19,3.83-3,2.69-.24-.1-.56-.26-.76-.18-4.15,1.6-6.26,5.65-9.61,8.27-1.91,1.48-.75,4.73,1.39,6.68a1.87,1.87,0,0,1,.68,1.35c-.4,1.89-.23,3.7,1.76,4.31s2.86-1.58,4.12-2.59a28.15,28.15,0,0,1,15.34-5.94c2.53-.24,4.05,1.56,3.19,4-.78,2.23.32,2.47,1.77,2.25,1.69-.26,3.9-1.44,4.71.31.73,1.58-1.6,2.93-2.82,3.82a42.6,42.6,0,0,0-7,6.94c-.76.89-1.61,1.31-2.64.11-3-3.51-8.79-3-11.52.9-.64.92-.65,2.25-2.15,2.63-1,.24-2.18,1-1.41,2.32a2.39,2.39,0,0,0,3.16,1c1.78-.79,3.14-1.35,3.73,1.41.38,1.77,1.87,1.54,3.19.73,2.94-1.81,5.34-1.13,7.2,1.65s4.89,3,7.56,4c1.39.55,3,.71,2.93,3-.07,2-.73,2.74-2.52,3.38-4.89,1.74-6.81,5.08-6,10.48.68,4.78-4.29,6.08-6.83,8.85-.3.33-1.34.45-1.32.54.92,5.34-6.5,5.76-6.33,10.73,0,.91-1.59.84-1.84.14-1.17-3.26-2.5-.52-3.92-.51-3.59,0-6.49,4.5-10.5,1.44-1.24-.95-2.82-.13-4.07.78-5.29,3.83-11.82,4.42-17.7,6.69-1.22.47-2.75.51-3.48,1.72-2.28,3.77-5.81,4.24-9.69,3.94-.13,0-.31-.06-.39,0-6.21,4.61-14.69,2.58-21,7.2-1.77,1.3-2.5,1.86-.1,3.14,2,1,2.22,4.9.33,5.26-4.8.94-3.61,4.71-4,7.52-.35,2.5-.49,4.93-1.92,7.26-2.07-3.57,1.84-6.17,1-9.57a17.82,17.82,0,0,1-.52-4.63c0-1.3-.46-2.16-1.89-1.66-1.27.44-2.17,1.39-1.2,2.74,1.64,2.3,2,4.29-.61,6.15-.88.64-.63,1.69-.48,2.61.34,2.08.91,4-1.24,5.78-1.16,1-.54,2.7.27,4.06.63,1,1.2,2.38.51,3.4-1,1.42-2.1-.23-3.2-.31-1.3-.09-2.59-1-3.83-.9-1.63.12-3.7,0-4.51,1.94s1.25,2.32,2.17,3.31c.45.48.86,1,.48,1.74-.29,0-.59.2-.77.11-1.43-.72-2.54-3-4.45-1.43-1.69,1.38-1.07,3.26-.41,5.14.92,2.61-1.47,4.71-4.45,6.46-5.49,3.22-12.26,5.21-14.27,12.58a4.21,4.21,0,0,1-4.14,3.21c-1.43,0-3.38,1-2.39-2.11a3.05,3.05,0,0,0-1.9-3.57c-2-.91-2.64.76-3.41,1.85-2.79,4-4.81,8.16-4.68,13.25.1,4-6.12,8.3-10,7.09-2.35-.74-3.91,1.25-6.13,1.31,3.1,3.31,6.86,3.79,10.75,3.51a2,2,0,0,1,2.32,2.08,11.56,11.56,0,0,0,1.66,5.12c.61,1,.65,2.31-1.13,3.18-2.2,1.07-4.57,2.42-4.28,5.62.09,1-.89,1.11-1.54,1.55-1.75,1.17-3,2.91-2.88,5,.34,4.25-2.29,8.12-1.35,12.41.21.94-.72,1.31-1.27,1.86-.76.78-1.65,1.81-.44,2.67a2.41,2.41,0,0,0,3.51-.59c.71-.86.21-2.66,1.84-2.65.86,0,1.07,1,1.39,1.75.8,1.85-.89,2.21-1.73,3-1.52,1.51-2.72,2.76-5.42,1.27-1.89-1-4.66.5-7.13.48-1.64,0-1.41,1.88-.22,3,1.61,1.54,3.59,1.64,5.62,1.3,2.4-.4,4-.37,5,2.71,1,3.26,5.47,4.77,8.66,3.65a1.12,1.12,0,0,1,1.38.24c3,3.61,3.48.53,4.55-1.62s2.09-4.19,4.14-5.69c2.72-2,4.88,1.52,7,.62,2.9-1.23,4.51-.71,5.66,2.05.15.35.53.87.78.85,2-.13,4.82.62,3.91,2.25-1.08,1.93-3.21,4.46-6.18,4.49a10.73,10.73,0,0,0-6.06,1.69,6.11,6.11,0,0,1-7.09-.06c-2-1.28-2.84-.39-3.32,1-1.51,4.4-5.24,4.72-8.92,5.25-1.31.19-3,.25-3.07,1.85,0,1.21,1.63,1,2.57,1.32.25.09.63,0,.77.17,1.17,1.4,5.05-.57,4.22,2.36a4.93,4.93,0,0,1-6.6,3c-3.67-1.54-6.48,0-9.27,1.81s-2.57,4.27.64,5.1c3.43.88,6.34,3.53,10.18,3a1.71,1.71,0,0,1,1.42.52c1.85,3.21,4,1.79,6.42.76,1.16-.5,2.68-1.64,4-.49,1.1,1,.11,2.67.44,3.73,1.33,4.27-4.38,4.83-4.08,8.38-1.85-2.35-4.52,4.43-6.23-.59-.45-1.3-1.71-1.58-3-.68-1.09.77-2.23,1.46-3.3,2.25-4.77,3.54-9.34,2.5-12.65-2.68-.68-1.06-.63-1.55.19-2.32a32.49,32.49,0,0,0,3-3.11,1.55,1.55,0,0,0-.3-2.44c-1.09-.62-1.16.52-1.52,1.19s-.76,1.34-1.26,1.43c-1.07.2-2,2-3.11.68-.8-1,.06-2.22.89-2.76,3.09-2,.63-4.53.53-6.67-.07-1.54-1.81-1.1-2.62.11-3,4.44-4.33-.58-6.21-1.29-2.16-.82-2.48-3.16-.8-5a31.07,31.07,0,0,0,3.51-5.3,2.2,2.2,0,0,0-.28-2.92c-1.09-1-1.45.57-2.15,1-3.51,2-4,5.51-4.35,8.94-.29,3.18-1.48,2.88-3.45,1.45-1-.7-1.88-1.69-3-2-3.67-.94-4.76-3.27-3.34-6.47.72-1.62-.1-2.25-1-2.3-4.42-.24-3.05-3.35-2.54-5.48a21.6,21.6,0,0,1,2.77-7.38c.52-.76,1.19-2.21-.36-2.63-1-.27-1.46.83-1.59,1.87-.34,2.74-2.83,4.58-3,7.58-.06,1.29-1.74,3.5-3.66,2.84-1.29-.44-2.24-2.6-1.93-4,.58-2.59-1-3.06-2.51-4.49a51.31,51.31,0,0,0-17.91-10.76c-5.24-1.84-11.71-5.79-17.41.1-.36.37-1.59-.09-.5,1.34,2,2.66.83,5.19-2.58,5.34-3.66.16-6.72,3.35-10.72,1.76-1-.41-1.4,1.27-1.06,2.07,4.65,11-2.1,18.33-8,26.17-1.55,2.07-1.77,5.18-2.42,7.86-.45,1.89-1,3.61-2.81,4.62s-1.06,2.24-.69,3.5c1.09,3.78.79,7.63.67,11.49-.07,2.38-2,3.59-3.24,3.11-2.8-1.05-4.48.33-6.46,1.57a3.31,3.31,0,0,1-1.91.43c-6.68-.55-10,3.62-12.66,8.83-.9,1.73-1.43,4.25-4.37,3.74-.66-.11-1.22.34-.78.78,1.83,1.8-1.85,5.7,2.51,6.43-1.17,5.39,2.7,3.9,5.6,4.55,2.27.51,3.93.82,5.86-.68a18.44,18.44,0,0,1,8.91-4.15,2.65,2.65,0,0,0,1.76-.76c2.73-4.47,4.78-2.75,6.91.57a62.68,62.68,0,0,0,4.8,5.8c6.58,8,22.43,3.66,25.51-6.38,1.25-4.08,3.45-4.43,6.44-2.68,5.22,3,9.81,1.34,14.22-1.52a5.17,5.17,0,0,1,3.32-.77c2.15.06,4.18,0,5.68-2.1a3.53,3.53,0,0,1,4.37-1c1.5.63,2,2.15,1.89,3.67s-.53,3.16-.55,4.74c0,3.17-1.34,6.73,2.67,8.77a2.12,2.12,0,0,1,1,2.8c-1.67,3.1-2,7-5.14,9.25-2,1.45-3,3.17-2.15,5.83.48,1.6,0,3.46.25,5.17.2,1.52-.52,2-1.75,2-3.84-.21-6.9,1.95-9.75,3.83-2,1.33-3.08,1.41-4.65,0-.51-.46-1.2-.77-1.78-.22s-.43,1.45,0,2.17c.14.22.32.43.48.64,3.62,4.73,3.62,4.73-1.63,7.24-1.13.54-.44,4.21,1.11,5.11,2.67,1.55,5.77,2.28,6.7,6.09.32,1.29,3,0,4.76.43a10.52,10.52,0,0,0,7.63-.79c1-.62,2-1.16,2.74-.08a2.88,2.88,0,0,1-.34,3.56,44.69,44.69,0,0,0-6.71,8.72,10,10,0,0,1-6.19,3.71c.19,1.55,3,1.41,2.35,3.84-.56,2.08-1.57,2.32-3.31,2.5-1.21.12-1.28,1.65-1.59,2.55-.48,1.38.51,3.57-1.65,4-1.8.34-1.2-2.49-3.11-2.91-1.49,3.34-4,6.38-2.79,10.6a2.88,2.88,0,0,1-.95,2.9c-1.07,1.06-4.92,1.73-.66,3.86.52.26-.42,1-.92,1.44s-1.67,1.33-.71,1.83c4.74,2.46.72,7.52,3.61,10.54-3.13-1.83-6.54-2.71-8.91-5.31a7.17,7.17,0,0,0-2.12-1.81c-1.58-.71-3.58-2.86-4.87-.94-1.09,1.62,1.5,2.73,2.79,3.57,3,1.94,6.39,3.25,9,5.86,1.57,1.6,2.1,3.26-.34,4.38-2.18,1-1.44,1.61-.11,2.68,3.35,2.69,2.87,6.55-1.07,8.46-1.63.79-3.48.9-4.54,2.86-.66,1.22-2.11.7-3.19,0-2.69-1.82-5.67-3-7.67-6-2.9-4.38-8.24-5.25-12.88-6.84a5.88,5.88,0,0,1-3.29-2.32c-6-8.1-8.93-17.72-13.39-26.57-3-6-5.38-12.35-13.46-13a2.53,2.53,0,0,1-1.53-1.18c-4-6.38-10.19-9.14-17.2-10.94a16.88,16.88,0,0,1-7.16-4.25C335.77,751.8,335.2,751,333.66,751.65Zm-11.92-13.32c0-1.08-5.61-6.21-6.83-6.18-.88,0-1,.63-.91,1.36.14,1.28,5.11,5.85,6.47,5.92C321.24,739.48,321.7,739.15,321.74,738.33Z"/><path class="cls-1" d="M640.37,670.94c2-2.36,2.65-6.89,7.08-3.58,3.51,2.63-1.77,3-1.12,5,.42,1,2,.17,2.21.72,1.84,6,3.67,1.73,5.77-.66.55,3.08.71,5.43-.17,7.84-.45,1.22.29,2.72,1.34,1.83,2.16-1.82,5.71-2.51,5.93-6.21,1.58.12,1.18,2.32,2.72,2.58,1.45-1.38.07-2.32-.52-3.38-.35-.63-.47-1.3.22-1.75a1.41,1.41,0,0,1,2.11.2c.55.74.86,2,1.53,2.22,1.55.48,2.25,4.09,5,1,1.32-1.46,7.81,3.2,8.49,5.91-1.55.34-3.33-1.14-5,.7,2.87,2.4,6.9,3.18,8.42,7.19,1,2.6.11,3.18-2,3.28s-3.85-.92-5.76-1.47c-1.2-.35-2.81-1.14-3.4.64s1.26,1.71,2.24,2.17c1.21.56,2.92.89,3,2.32.27,4.24,2.4,2.15,4.36,1.06.82,5.14-5.3,5.87-5.68,10,2,.34,3.25-.86,4.67-1.73,1.6-1,3-2.83,5.14-.69.92.92,1.6-.31,2.24-.93,1.88-1.82,3.48-1.29,5.07.48,1.86,2.06-.13,2.94-1.11,4.22-2.24,2.95-6.95,2.65-8.5,6.58-.27.68-1.43.34-2.2,0-3.19-1.28-4.69.29-4.69,3.26,0,3.77-.79,6.46-4.42,8.78-6,3.87-6.69,10.7-2.44,16.85.48.7,1.06,1.32.58,2.11-.63,1-1.46.4-2-.14-2-2.13-4.61.62-6.7-1-.56-.42-.89.4-.89.9,0,1.72,0,3.5.89,5,3.86,6.36,2.76,8.9-4.41,10l-1.44.25c.63,1.76,2.57,3.13,1.11,5.07,1.74.54,2.18-1.39,3.59-1.14.35,2,.35,4-2,4.48-1.58.35-4.15,1.64-4.28-2,0-.66-.78-1.47-1.71-.49-1.27,1.34-2.2,2.79-.82,4.52.46.58,1.44.75,2,1.3,1.2,1.25,1,2.43-.59,3.17a4.81,4.81,0,0,1-6.53-2.6c-1.28-3.44-1.93-3.63-5-1.73a2.13,2.13,0,0,1-2.93-.27c-1.27-1.64-2.37-.27-3.54,0-.64.16-.89.68-.55,1.19.75,1.14,2,1.22,3.21,1.18,5.55-.15,7.19,1.11,8.86,6.25.73,2.26,0,3.92-2,4.49-2.36.7-2.53-1.63-3.13-3.16a1.74,1.74,0,0,1-.06-.39c-.75-5.42-.75-5.42-6.92-4.43-.08.87.5,1.2,1.2,1.26,2.19.2,5.42-.65,2.14,3.4-1.05,1.3,1.34,3.13,2.17,4.69,1.27,2.39,3.72,4.35,1.07,7.41-1.12,1.29,1.58,2,1.09,3.83-1.09,3.94-4.53,3-6.7,2.86s-1.15-3.08-1-4.69c.33-3.16-1.55-7.93-4.15-9.35-.64-.35-1.26-1.16-2.06-.24s-.15,1.44.47,2c.89.78,2.14,1.5.93,2.89-1.07,1.24-2.37,1-3.62.26-.8-.47-1.53-1.06-2.31-1.57-1.2-.8-1.94-.87-2.69.8-.89,2-4.12,3.4-.48,5.9.93.64-1.35,1.37-1.14,2.94,5.5-.91,9.75,1.44,13.48,5.24,1.18,1.2,1.57,1.92-.36,2.32-4.39.9-8.51,2.64-12.75,4-4,1.3-8.13-.52-12.17-1.08-2.33-.33-4.54-1.47-6.86-2s-2.12-2.75-2.94-4.23c-5.65,4-11.9,6.77-18.17,9.5-.24.11-.6.36-.73.27-3.86-2.47-8.6,1.65-12.36-1.64.1-1.64,1.8-1.28,2.6-2.06,1.06-1,.79-1.83,0-2.75s-1.12-1.26-2.42-.16c-2.58,2.19-5.64,3.66-8.76.53-.42-.42-1.31-1.22-1.57-.46-1.16,3.33-2.79,2.52-5.14,1.21-1.49-.83-1.93.65-1.83,2.05.24,3.28-1.07,4.1-4,2.61-.91-.46-1.77-.38-1.68,1.18a4.74,4.74,0,0,1-7.18,4.49c-.11-.06-.2-.31-.23-.3-2.22.82-4.39,2.34-6.79.43-.41,1.71.71,3.63-1.71,5-3.43,2-6.35,4.87-9.64,7.14-2,1.41-3.36-.07-4.22-1.81-1.53.47-1.16,1.41-1,2.33.27,1.34.24,3.54-1,3.25-1.42-.32-3.81-.88-4.11-3-.14-1,.58-2-.85-2.57,1.06-2.92.64-5.82.12-8.77-.06-.33,2-.45,2.41-1.67-.48-1.47-2-1.33-3-1.59-3.4-.9-5.2-3.1-5.24-6.39,0-3.12-.89-6.87,3.47-8.28,1-.33,1.2-1,.51-1.78-1.37-1.63.38-3.49-.41-5.16,4.1-1.29,2.69-4.93,3.06-7.64.55-4,4.38-5,6.41-7.62,1.16-1.49,3.2.95,4.15,2.62.26.46.31,1.06,1,1,.91,0,.87-.78,1-1.43.86-4.15-.45-5.1-6.78-4.47,2.63-2.8,3.7-6.63,8.22-7.11-1.87-2.36-3.9-4.61.54-5.91.35-.1.88-.45.91-.72.42-4.27,2.92-3.93,6.22-2,0-3-2.26-6.47,2.55-6.67,1.53-.06,3,.36,3.37,1.57.77,2.54,2.93,4.13,4,7,2.3-5.4-2.49-7.16-4.3-10.5,1.59-.41,2.89-1.18,3.82,1.42,1,2.79,2.3,4.81,6.1,2,1.16-.86,3.58-4,6.56-2.18.63.38.71-.52.7-1,0-2.26,1.53-2.57,3.22-2.62,4.15-.12,3.41-2.15,1.48-4.18-3.28-3.46-1.68-7.57-2.34-11.39,2.36,1.85,3.67,4,3.31,6.9a2.66,2.66,0,0,0,1.06,2.85c1.59.87,1.4-1.13,2.21-1.6,2.83-1.66,4.61-3.62,2-7a.94.94,0,0,1,.92-1.57c3.05.35,2.5-.65,2-3.06-.32-1.59,1.89-3.68,3.41-6.32-3.09,1.23-4.13,4-7,3.94-1.1,0-1.87.43-2.46-.94s-.18-2.15,1.09-2.87a17.66,17.66,0,0,1,5.65-1.72c4.56-.85,5.71-5.12,8.24-8,2.31-2.61,4.07-5.72,6.91-7.85a5.83,5.83,0,0,0,2.28-3.64,8.94,8.94,0,0,1,3.66-5.93c1.62-1.15,2-3.08,2-5-.09-4.93,1.19-10.13-3.84-13.88-1.46-1.09-1.19-3.93-3.66-4.73-.77-.25-.43-1.72-.28-2.62s.95-1.61,1.7-1.25c3.42,1.67,2.78-1.31,3.5-2.84.44-.93-.06-2.39,1.22-2.77,1.62-.48,1.29,1.33,2,2,1.39,1.37,2.91,2.58,3.62,4.6.59,1.68,2,.8,3,.21,1.45-.86.63-1.56-.17-2.47-2.28-2.6-2-9.5.5-11.7,1.55-1.36,3.37-.85,4.55.6,2.58,3.16,6.8,4.12,9.36,7.36,1.08,1.36,8.95.21,9.83-1.14a1.29,1.29,0,0,0,0-1c-1.87-4.74,1.06-3.9,3.7-3.11s5.48,1.36,7.53,3.7c1.35,1.54,2.61-.25,3.86-.74,1.06-.42,2.15-1.72,3.23-.66s.15,2.27-.51,3.23A2.4,2.4,0,0,0,640.37,670.94Z"/><path class="cls-1" d="M472.82,685.53c3.68-.81,5,1.85,6.38,4.06,1.87,2.92,3.53,2.22,4.54-.32,1.1-2.75,2.27-2.13,4.18-1a65.49,65.49,0,0,0,6.73,3.29c3.93,1.75,6.25-.39,8.35-2.48a35.62,35.62,0,0,0,8.78-13.16c1.25-3.38,4.52-6.76,7.19-9.85,1.42-1.65,1.54-3.92,3.32-5.25.51-.38.29-1.24-.22-1.8-1-1.07-1.66-.1-2.4.35s-1.26,1.55-2.38.76-.52-1.64-.44-2.55c.2-2.41.72-4.48-1.64-6.81-1.43-1.41-1.17-5.4-.46-7.88s-1.19-6.3,2.78-7.82c.33-.12.28-1.77.08-2.63-1-4,1.18-5.52,4.44-6.4,1.43,2.13-2.25,5,1.55,6.53a5.14,5.14,0,0,0,1.71-2.73c2.43-6.07,2.42-6.21,9.16-5.79,4.5.28,8.83,1.33,12.54,4.22a9.17,9.17,0,0,1,3.33,4.85,1.94,1.94,0,0,1-.43,2.21c-.87.72-1.45-.07-2.07-.47-5.5-3.46-13.94-2.9-18.84,1.26-2.12,1.8-2.12,1.8-5.66-2.72,0,2.85-.12,5.77,1.74,7,2.1,1.34,4.87,1,6.29-2.1.49-1,1.76-1.22,2.47.11,1.39,2.57,2.47,2.09,4,0,1-1.42,2.81-3.42,3.1.66.11,1.54,1.1,1.22,1.89.38.35-.37.46-1.25.79-1.32,3.55-.76,3.27,3.53,5.69,4.56.58.25,2.39,3.15,0,4.32-1.7.84-3.1,2-4.7,2.91s-3.08,1.62-5.15.35a3.84,3.84,0,0,0-4.86,1.42c-.79,1.32,1.08,1.69,2.16,2.11a1.56,1.56,0,0,1,.8,2.33c-2,2.85.92,3.24,2,3.16,4.19-.32,3.83,2.35,3.56,4.9-.32,3-1.65,4.75-5,3.11-.27-.13-.74.12-1.14.2.14,1.45,2.31,1.55,1.94,3.52-1.67-.4-4.31-2.34-4.72.42-.23,1.54-1.35,4.54,1.67,5.87,1.94.86,1.43,3.06.76,4.22-1.05,1.83-2.45.48-3.59-.46-.7-.58-1.34-1.4-2.65-.73-.35,1,.83,1.35,1.17,2.07s.82,1.55.24,2.21-1.46.18-2.12-.26c-2.09-1.39-3.08-.23-3.88,1.58.68,1.23,1.89.9,2.85,1,3.14.38,3.87,2.32,3.55,5.09-.17,1.47-.66,2-2,.93-.93-.74-1.87-1.49-2.86-2.16s-2.13.64-1.93.72c2.57,1.1,0,4.83,3,5.58.77.19,1.52.82.6,1.72a1.49,1.49,0,0,1-2.14.23c-1.08-1-2-2.09-3.06-3.17-1.56.72-.82,2.39-1.48,3.45-5-2.89-6.64-2.19-7.64,3.93-.33,2-.51,3.39-2.11,5-1.81,1.86-1,5-.25,7.39,1.11,3.29,1.24,5.23-3.17,4.44-.39,1.81,4.17,4.33-.93,5.22-.9.16.4,2,1,3s1.86,2,1,3.18-2-.24-2.71-.51c-3.28-1.23-5.12,1.31-7.48,2.53-1.25-1.06-.08-2.69-1.07-3.68-.71-.26-1.22.3-1.83.46-1.3.35-2.24,2.85-3.63,1.28-.84-1-.94-3.14-.49-4.47s1.35-3.44,3.58-3.12c2.7.38,3.75-.11,1.87-2.75a3.5,3.5,0,0,1,.09-4.14c1.17-1.8,1.37-3.29-.28-5-2-2-2.88.56-4.24.91-1.3-1.66,1.47-2.93.29-4.52-4.8,2.78-7.47,7.95-8.5,12.43-1,4.24-2.24,7.19-5.43,9.76-.61.49.2,3.16-1.94.82-.31-.34-3.23,1.72-5,2.65-.62.34-1.13,1.41-2,.55a2.2,2.2,0,0,1-.46-2.2c.72-3.2,1-6.51,2-9.62.72-2.3-1.1-4.07-.62-6.2.1-.46-.47-1-1.08-.92s-.65.74-1,1.11c-2.77,3.23-2.88,7.56-4.7,11.17a24.59,24.59,0,0,1-3.25,5.12c0-5.35-3.33-10.36-.13-16,1.33-2.35-.22-6,1-8.87.25-.58.2-1.75.46-1.81,6.2-1.31,4.37-8.69,8.64-11.66a5.17,5.17,0,0,0-1-7.38,14.59,14.59,0,0,1-4.67-7.44c-.44-1.69-.38-3.58,1.39-4.64a3.74,3.74,0,0,1,4.72.33C476.88,679,477,679.77,472.82,685.53Z"/><path class="cls-1" d="M540.62,576.53c-3-.24-6,.13-9.13-.55a8.37,8.37,0,0,0-8.57,3c-1.43,1.74-3.13,3.27-4.7,4.89-.6.62-1.34,1.05-2.13.6-1-.56-.49-1.38,0-2,1.49-2.17-.83-3.87-.73-5.91,0-.72-1.37-.6-2.1-.48-1,.15-1.85.62-1.51,1.87.3,1.1.19,1.86-1.16,1.89a1.87,1.87,0,0,1-2.05-2c.06-2.82.37-5.93,2.67-7.64,1.84-1.36,2.27-3.92,4.67-4.65.76-.23.94-1.29.47-2.09-3-5.24-2.48-10.8-1.86-16.49.26-2.35,1.7-4.12,2-6.41.17-1.27,2-1.09,3.14-.74,3.36,1,5.31-.43,6.64-3.35a6.8,6.8,0,0,1,5.46-4.06c3.31-.62,3.91,1,3.44,3.49a25.85,25.85,0,0,1-3.4,8.4c-1.08,1.82-3.51,4.8-1.17,6.29,2,1.26,3.76-1.87,5.32-3.64,2.47-2.82,1.48-7,4.16-9.7a9.82,9.82,0,0,0,1.18-2.06A3.05,3.05,0,0,1,544.7,534c1.32.26,1,1.72,1,2.72-.13,1.69-.55,3.37-.63,5.06a1.89,1.89,0,0,0,1.11,1.47c.66.14,1.24-.61,1.16-1.31-.44-4,3.37-4.16,5.28-6,.2-.19.88-.27,1-.14a34.61,34.61,0,0,0,5.65,5.87c1.15,1,1,2.91.84,4.56a24.16,24.16,0,0,0,0,4c.06,1.06,1.44,2.33-.39,3-1.27.49-2.32-.39-3.21-1.16-.72-.63-1.08-2.42-2.25-1.39a2.63,2.63,0,0,0-.37,3.91c1.09,1.17,1.32,2.23,0,3.39-1.06.92-2,1.8-3.44.55-.56-.5-1.2-1.36-1.93-.41a2.5,2.5,0,0,0-.26,1.89,32,32,0,0,0,1.21,3.31c.31.85,2.25.28,1.67,1.68-.43,1-1.68,1.21-2.78,1.21-2.53,0-5.08.12-7.6-.11-1.4-.12-2.84-.7-2.95,1.34-.09,1.7,1.29,2.38,2.7,2.18,3.13-.44,6.06.7,9.11.87,1,.06,2.26.19,2.6,1.43s-.54,2-1.27,2.78a6.05,6.05,0,0,1-4.65,1.89Z"/><path class="cls-1" d="M695.33,958.49c-3.31-.73-5.72,1-8.37.58-2.15-.33-3.41-.5-1.7-3,2.21-3.21,2.86-6.17-1.17-9-2.43-1.68-2.28-10.9-.18-13.37,2.48-2.91,4.55-6.56,9.32-6,.9.11,2.06-.2,2.31,1a1.7,1.7,0,0,1-1.46,2,3.47,3.47,0,0,0-2.57,2.76c-.57,2.06-.14,3.2,2.28,2.64a9.3,9.3,0,0,1,1.52-.43c2.5-.12,6-.77,6.91,1.53s-.83,5.35-3.06,6.81c-2.51,1.65-3.26,4.27-5.24,6.47,6.06-.78,9,1,11,6.65.89,2.56,1.87,4.68,4.47,6.2,1.76,1,4.09,2.57,2.49,5.84-1,2,2.56,2.77,2.4,5.32-.23,3.88,2.72,1.25,4.26,1.58s3.48-.4,4.24,1.31a4.88,4.88,0,0,1-1.17,5.53c-.46.48-1,.88-1.49,1.33-1.21,1.08-3.78,1.23-3.39,3.36.33,1.81,3,.53,4.21,2.18-2.4,2.6-5.59,3.19-8.83,2.7-6.13-.93-12.1,1.66-18.2.56a1.42,1.42,0,0,0-1.14.23c-3.12,3.91-7.47,1-11.13,2.14,2.74-3.39,4.8-7.72,10.43-6.11.75.21,1.76-.36,2.62-.67s1.53-.83,1.24-1.74-1.16-.7-2-.48c-4.27,1.18-7.56-2.63-11.75-2.39-1,.06-.46-1.34.21-1.68a29.89,29.89,0,0,1,4.07-1.63c2.16-.73,3.18-2.38,2.37-4.34-1.41-3.41.34-3.9,3-4.14,1.31-.12,3.6.88,3.68-1.15.09-2.2,2.15-4.79-.93-6.83C692.09,962.69,693.48,960.48,695.33,958.49Z"/><path class="cls-1" d="M602.28,638.92c.26-3.32,2.21-4.63,4.65-5.45a6.1,6.1,0,0,0,3-2.41c1-1.35,2.66-2.24,4-.71s.47,3.13-.9,4.15a42.61,42.61,0,0,0-3.44,2.67c-.92.84-1.51,1.49-.57,2.59,1.26,1.5,1.67,0,2.3-.68,3.84-4,3.62-3.86,6.85.42,1.3,1.72,3.19,4,6.2,2.54l.36-.17c1.19-.63,2.65,2.28,3.28.19.54-1.8-2-2.19-3.21-2.81-3.64-1.83-5.59-4.7-6-9.94,1,.51,1.93,1,2.85,1.41s.6,2.87,2.44,1.15a2.56,2.56,0,0,0,.57-3.56c-.34-.56-.93-1-1.09-1.64s-.38-1.79,0-2.27c.61-.77,1.55-.06,2.06.44,1.38,1.33,2.47,2.31,2.85-.66a.93.93,0,0,1,1.53-.63c.89.63,2.29,1,1.84,2.65-.52,1.93-1.32,4,2.35,2.76,1-.35,1.23,1.08.67,2a13,13,0,0,0-1.78,3.07c-.25,1-1.62,2.47-.28,3.23,1.66.95,1.7-1.05,2.25-2,.82-1.34,2.6-1.4,3.07-.71,1,1.42,3.58,2.06,2.59,4.55-.82,2.08-.63,3.08,1.72,1.57,1.4-.9,2.08.19,1.44.91-1.73,1.92-1.06,2.41.8,3.67,1.24.84,3.1,3.1.35,4.83-1.54,1-.65,1.8.07,2.46,1.17,1.08,1.18,2.09.63,3.53-1.64,4.27-3.16,4.84-7.2,2.33-1.35-.84-2.53-2-3.94-2.71-1.18-.6-2.55-2.38-3.84-.85s1.47,1.81,1.7,3.57c-3.6-.65-7.09-.92-9.82-3.21-1.28-1.07-3.25-1.66-3.92-1.26-5,3-4-.84-3.87-4-3,2.31-4.54,1.73-4.73-1.67,0-.43-.53-1.31-1-1-3.63,2.53-3.09-1.67-4.48-2.8-1.84,1-1,2.26-.78,3.67.48,2.57-1.23,1.89-2.92,2.65-4.48,2-6-.09-7.58-3.37-.08-.17-1.41.4-2.17.41-2.27,0-4.07-.42-3.33-3.42a5.79,5.79,0,0,0,0-2.37c-.17-1-.79-1.92-1.77-1.94-1.36,0-1,1.19-1.09,2.07-.22,1.88.08,3.68-2.07,5.18-1.41,1-1.75,2.74-3.82.94-1.8-1.57-2.67-2.66-.26-4.51a2.39,2.39,0,0,0,.05-3.6c-1.73-1.5.61-4.84-2.65-5.51,1.6-2.95.44-6.66,1.92-9.27,1-1.82,3.55.06,4,1.9.78,3.16,1.94,3.47,4.23,1.36.79-.73,2.08-1.42,2.82-.38s-.72,1.73-1.37,2.45c-3.39,3.79-3.18,5.39,1,6.91,1.17-1.26-1.56-3,.44-4.1,1.56-.83,2.85-.17,4.3.69.94.55,2.49.45,1.84-1.68-.35-1.15-1.58-2.53-.19-3.62.84-.66,2-.22,3,.33,1.71.94,2.79,2.37,2.35,4.21S600.16,637.15,602.28,638.92Z"/><path class="cls-1" d="M1019.25,256.34c-1.27,2.28-1.76,3.39,1.38,4,2.91.56,6.78,0,8.44,3.84.19.44,1.14.77,1.73.77,5.19,0,7.52,3.63,9.09,7.67.84,2.16,2.16,2.67,3.49,1.6,3.1-2.5,6.09,0,9.11-.16,1.67-.08,1.83,2.29,2.13,3.86.38,2-1.18,1.22-2,1.44-1.48.4-1.56,1.16-.75,2.33a27.12,27.12,0,0,0,6.47,6.85c3.67,2.63,7.92,4.43,10.76,8.5,1.24,1.78,5,2.05,6.56,4.65.38.63,1.31,1,1,2.33-4.11-2.25-9.15-2.75-12.64-5.37-5.56-4.17-11.25-8.48-15.52-14.16-1.9-2.53-3.73-4-7.29-3.22s-7,1.68-9.89-2.79c-1.82-2.81-6.43-3.38-10-4.3-6.15-1.59-12.1-.41-17.88,1.93a3.19,3.19,0,0,0-2.14,2.62c-.39,2.27-2.23,3.19-4.18,3.65s-2.81-.37-3.82-2.26-3-2.38-3-5.33c.11-6.66,3.74-10.32,10.11-8.65,2.52.66,3.92-.12,4.85-2.11a5.88,5.88,0,0,1,4.5-3.56,5.67,5.67,0,0,0,4.25-2.58C1015.06,256.13,1016.94,256.46,1019.25,256.34Z"/><path class="cls-1" d="M638.44,852.17c1.19-1.88,2.45-2.54,4.24-2.07,1,.26,2.53.43,3.11-.11,3-2.79,3.91-.23,5.27,1.66,1.57,2.17,1.72,4.9,3.64,7.15s-2.84,7.45-6.88,8.31c-5.23,1.11-10.52,1.85-15.71,3.27-3.73,1-6.45-1.85-8.45-4.7-1.57-2.24-3.18-4.16-6.26-4.59,4.73-3,4.72-4-.34-9.89,3.36,2,4.63,1.22,5.71-1.8.86-2.39-.69-2.65-1.7-3.16-2-1-2.82-2.28-2.14-4.48,1.89-.42,1.5,2.57,3.28,2.16,1.21-.28,1.32-1.49,1.72-2.46,1.79,1.25,2.2,2.61,1.29,4.54-.7,1.49-1.88,3.38,0,4.7,1.56,1.12,2.91-1,4.56-1.11,1.08-.09,1.88-3.1,3.28-.18a1.1,1.1,0,0,0,1,.14C637.86,844.8,637.53,849.56,638.44,852.17Z"/><path class="cls-1" d="M400.85,833.36c-3.49,2.65-3.49,7.14.17,9.35,2.23,1.35,2.61,3.89,4.81,5.82-3.33.7-7.33.6-5,5.41-3.32.72-5.85-1.08-8.63-1.59a1.66,1.66,0,0,1-1.47-1.63c0-.25.26-.58.17-.76a90.25,90.25,0,0,0-4.45-7.87c-1.2-1.9-3.09-3.78-4.47-5.84-2.1-3.14-2.72-7.25-6.23-9.49a1.61,1.61,0,0,1-.42-2.16c.32-.73,1-.75,1.67-.5,2.55.91,4.78,2,7.78.08.91-.6,5.08,2,7.22,1,4.94-2.31,9.7-.35,14.51-.5,1.62-.05,3.5.26,3.41,1.81-.07,1.21-1.69,2.56-3.52,2.56-2.4,0-4.8,0-7.2,0-.85,0-2.11-.49-2.4.74-.33,1.4,1,1.56,2,2C399.49,832.2,400.63,832.18,400.85,833.36Z"/><path class="cls-1" d="M679.55,960.49c.08,1.13-.16,2.54-1.12,2.81-3.93,1.07-2.75,3.55-2.25,6.23,1,5.15-2.14,8.74-7.24,9.41a62.69,62.69,0,0,0-8.84,2.33,21.07,21.07,0,0,1-3.81,1.06c-2.87.28-4.31-1.93-5.09-3.68-.38-.86,1.43-3.91,3.49-4,2.83-.18,1.61-2,2.28-3.23,1.11-2,1.35-2.46-.72-3.78-2.48-1.58-.89-4.5-.57-6.5s2.85-1,4.11-.26c2.26,1.29,4.13-.34,6.18-.44,1.47-.07.8-1.33.08-2-1.39-1.31-1.25-2.76.05-3.76a2,2,0,0,1,3.27.81c1.12,2.26,2.59.09,3.7-.08C677,954.76,679.62,956.61,679.55,960.49Z"/><path class="cls-1" d="M558.06,520.75c1.11.28,2.22,1,3.17.37,4.71-3.2,7.09-.57,9.41,3.3,1.66,2.78,4.46,4.76,6,7.69a3,3,0,0,0,1.53,1.2c1.48.57,4.51-.11,4.06,2-.56,2.55-1,5.79-4.27,7.12-2.61,1.06-5.88,1.62-5.44,5.84.12,1.12-7.48,3.81-8.51,3.15s-.75-1.56-.78-2.5a38.69,38.69,0,0,0-3.9-15.11c-.33-.72-.67-1.74-1.26-2-4.77-1.94-3-5.66-2.67-9C555.59,520.9,556.64,520.6,558.06,520.75Z"/><path class="cls-1" d="M988.08,292.51c-3.22,1-5.19.41-6.62-1.79-.53-.81-1.54-1.62-2.34-.92-3.16,2.76-8.38,3-9.77,7.93a1.85,1.85,0,0,1-1.62,1.56c-1.24.05-1.32-1.06-1.77-1.84-1.69-2.94-.8-6.39-2.29-9.57a25.17,25.17,0,0,0-6.79-9c-2.44-2-1.18-3.8-.66-5.05.67-1.61,2.34,0,3.31.57a15.14,15.14,0,0,0,12.72,2.11c1.22-.34,1.71.88,2.38,1.73,2.83,3.63,4.08,8.89,9.8,9.62.35,0,.63.8.89,1.26.74,1.31,1.49,2.78,3.32,2.12,2-.73,1.48-2.13.66-3.57-.42-.73.09-1.21.8-1.49a2.63,2.63,0,0,1,2.26.47.79.79,0,0,1,.21,1.33c-1.23,1.12-.84,2.58-1.15,3.93C990.91,294.22,988.64,292.19,988.08,292.51Z"/><path class="cls-1" d="M950.8,313.49c1.5,3.45,0,5.86-2.76,7.77-3,2.05-6,4-6.6,8a2,2,0,0,1-1,1.18c-2.91,1.53-3.84,4-4,7.17-.31,5.09-5.48,6.4-8.2,9.61-.66.78-4.93.12-5.33-.82-.83-1.94.22-4.83,1.81-6.17,7.28-6.13,7.92-15.14,10.67-23.24.34-1,.72-2.56,1.93-1.49,5.46,4.84,9.36.71,13.55-2Z"/><path class="cls-1" d="M567.45,627.17c-3.07,5.08,1.39,8.76,2.9,13a6.53,6.53,0,0,1-1.88,7.41c-1.54,1.2-5.11,1-7.15,0-1.87-.87-2.64-3.54-.53-5.71.54-.56,1.18-1.59.3-2.07-4.12-2.27-1.47-6.62-3.08-9.66-.45-.85.13-1.76,1-2.36a2.46,2.46,0,0,0,1.19-2.74c-1.11-5.26,1.07-8.24,6.09-7,3.14.75,5.61-.21,8.33-.71,1-.18,1.79-1.11,2.48.56.56,1.36.39,2.06-1,2.15-.61,0-.91,3.12-1.85.23,0-.11-.93-.16-1,0-1.23,2.19-3.44,2.65-5.54,3.49C566.5,624.23,566.38,625.7,567.45,627.17Z"/><path class="cls-1" d="M842.18,687.5c-.58,6.61,2.29,13.06,6.19,19.26,1,1.53,1.41,3.37,2.59,4.87,2,2.52,1.44,4.5-1.41,6.16-2.54,1.48-3.78,1.67-4.73-1.78a16.64,16.64,0,0,0-4-7.62c-2.75-2.75-3.62-6.64-3.94-10.24-.36-4.1-1.58-8.33.52-12.53,1.5-3,.27-6.26-1-9.15-.71-1.6-2.32-3.28.17-4.2,2.14-.8,3.71.7,4.53,2.84C842.53,678.83,842.27,682.7,842.18,687.5Z"/><path class="cls-1" d="M454.4,637.14c5.76,3.24,11.51,2.8,17.19,2.91.79,0,1.77-.13,2.06.8.43,1.38-.82,1.39-1.64,1.65-1.9.6-2,2.18-2.67,3.76-2.14,4.7-2.22,11.11-9,12.58-2,.43-1.39,2-.95,3.23.38,1,.37,1.81-.58,2.4a1.48,1.48,0,0,1-1.84-.19,2.21,2.21,0,0,1-.7-2.5,24.32,24.32,0,0,1,3.79-7.4c1-1.49,1.26-2.85-.9-3.25-3.12-.58-4.28-3.83-7.14-4.86a1.47,1.47,0,0,1,.24-2.89C455.77,642.48,455.64,640.27,454.4,637.14Z"/><path class="cls-1" d="M623.27,619.57c-4,2.22-8.81,2.91-11.84,7.31-.9,1.31-4.46,1.38-5.8,3.81-.25.46-.95.09-1.37-.3-2.86-2.61-5.78-5.17-8.59-7.84-1.6-1.51-1.51-2.88.92-3.23a4.17,4.17,0,0,0,2.27-1.42c1.71-1.51,3.19-1.75,4.38.66.55,1.11,1.7,2.18,2.85,1.71,1.39-.57,1.33-2,.82-3.45-.42-1.21-1-3.06,1.62-1.78,1.5.72,1.12-1,1.75-1.47.8-.56,1.77-1.17,1.92.5.21,2.4.93,2.37,2.6.92.83-.72,2.45-2,2.91.61.14.76.73,1,1.44,1.12C621.88,617.05,621.88,617.06,623.27,619.57Z"/><path class="cls-1" d="M580.05,564.26c-2.7-2.88-3-5.2-.46-7.31.56-.47,1.21-1.3,2.06-.7.58.41.37,1.13.22,1.83-.82,3.87-.46,4.17,3.56,3,.57-.17,1.08-.26,1.32.34.49,1.24-.75,1.88-1.1,2.84.68.85,1.42.3,2.16.16s1.09.13,1,.81a1.2,1.2,0,0,1-.62.82c-3.21,1.4-5.85,4-9.61,4.32-2.66.24-2.74,3-3.52,4.79-.48,1.12.64,1.76,1.63,1.56,2.05-.42,3.94,1.15,6.09.21a1.61,1.61,0,0,1,2.12,1.74c-.14,1.41-1.43.75-2.26.77a10.87,10.87,0,0,1-1.54-.38c-4.06-.56-5.7,1.37-4.42,5.2-5.36.45-8.32-3.07-6.58-7.67,1-2.68.4-5.44-.4-8.07a8.87,8.87,0,0,1-.71-2.64c0-1.71-.35-3.49,1.55-4.6.66-.39,1.19-.56,1.72.06,1.2,1.41.58,3.11.32,4.54s-.8,3.12,1.17,3.45c1.64.27,1.68-1.44,1.67-2.6C575.43,564,577.14,563.68,580.05,564.26Z"/><path class="cls-1" d="M742.87,741.08a37.43,37.43,0,0,1,3.17-3.73c1-.89,1.85-1.72,1-3-1-1.61-2.72-.07-4.08-.59-1.07-.41-1.68.15-1.78,1.39-.07.88.87,2.35-.91,2.51-1.48.13-2.12-1.28-2.47-2.27-1-2.8-1.1-6-4.15-7.73-.58-.33-.43-1.52.26-2.12s1.19-.06,1.69.41c1.17,1.11,2.07,2.56,4,.59.4-.4,2.43,2.39,3.86,3.77,2-2.15,0-3.65-.81-5.21-.54-1-1-2.35-.24-2.92,1.24-.89,1.42,1,2.1,1.36,2.06,1.23,3,4.1,6,4,1.52-.06,2.37,1.14,1.44,2.79a10.77,10.77,0,0,0-.86,7.34c.69,3.93-.8,7.82-.06,11.73.14.73-.49,1.66-1,1.34a20.53,20.53,0,0,1-5.21-4.13c-1.17-1.5.75-2.53,1.71-3.54.61-.64,1.64-.88,1.94-2.14C746.66,739.91,745.13,742.31,742.87,741.08Z"/><path class="cls-1" d="M857.57,736.63c-1.59-.42-2.72-1.28-2.4-3.08.47-2.6-.74-4-2.75-5.54-3.33-2.53-3.51-7.06-.76-9.15,1.31-1,2.91-1.54,3.63.36,2.82,7.46,9.3,8.44,15.86,9,2.71.22,2.7,1.2,1.49,2.79-1.64,2.16-2.61,5.75-6.87,3-1.49-1-4.61-2-6,1.34A1.94,1.94,0,0,1,857.57,736.63Z"/><path class="cls-1" d="M551.29,602.08c-1.27-.31-2.66-.24-3-.77-2.78-5-5.52-1.47-7.67.27-2.86,2.31-5.22.32-7.73-.17a1.61,1.61,0,0,1-1-2.53c1-1.54,1-2.57-1.09-2.94s-1.07-1.67-.21-2c4.62-1.51,8.28-4.57,12.24-7.17.67-.44,1.53-.76,2,.22a1,1,0,0,1-.46,1.36c-2.17.69-2.7,2.19-1.7,4,1.16,2.1,3.81,2,5.31,1.57,3.81-1.06,4.84-.58,3.33,3.37C550.88,598.63,551.29,600.24,551.29,602.08Z"/><path class="cls-1" d="M1196.42,325.95c1.46-.15,2.83,4.48,4.43.2a3.7,3.7,0,0,1,1.81,2.48c.34,1,.3,1.4-1.35,1.16-2-.29-3,3.36-1.42,5.26a9.13,9.13,0,0,1,2.44,4.45c.21,1.39-.09,2.58-1.37,2.89-1.64.39-.84-1.18-1.1-1.89-.79-2.16-2.54-1.41-3.63-.81-3.89,2.11-5.81.62-7.15-3.13-.84-2.34-1.82-4.88-3.48-6.61-2.37-2.48-.09-4.25.82-5.35,1.18-1.42,2.65.38,3.72,1.48.36.38.86.62,1.26,1C1194.85,330.05,1195,330,1196.42,325.95Z"/><path class="cls-1" d="M544.69,607.64c2.55-1.31,4.72,1.68,7.51,2.45,1.24.34.83,1.75.91,2.75.21,2.74-2,4.79-2,7.58,0,1.32-1.38,1.15-2.47.45a17.2,17.2,0,0,0-4.49-2.48c-2.49-.68-3.81-1.41-2.67-4.38.68-1.77-.22-3.25-2.56-2.42a3.31,3.31,0,0,1-3.34-.65c-.53-.4-1.18-.82-1-1.56.18-.93.94-1.06,1.82-1.11C538.85,608.15,541.35,607.91,544.69,607.64Z"/><path class="cls-1" d="M403.88,405.88c-3.26-1.28-5.16,2.37-8.12,3.14-1.2.31-2.19.68-3.41.2-1-.38-1.54-1.13-.81-1.71,1.94-1.57,3-5.11,6.54-3.51.89.4,1.38,0,1.58-.53.94-2.59,3.3-2.78,5.44-3.45,3.73-1.16,7.77-1.52,11-4a1.05,1.05,0,0,1,1.43-.11c.52.47.81,1.47.32,1.79-3.8,2.54-6,7.15-10.76,8.39A11.92,11.92,0,0,1,403.88,405.88Z"/><path class="cls-1" d="M1090.17,297.17a1.62,1.62,0,0,0,1.1,2.43c.62.2,1.87-.24,1.39,1.15a1.63,1.63,0,0,1-1.94,1c-1.47-.21-3.34-1.4-4.07.85-.64,2-1.28,4.34,2.17,4.62a3,3,0,0,1,.15,1.47c-.14.76-.69.5-1.23.35-3.94-1.08-8.64-7-8.82-11.11a4,4,0,0,1,.11-2c.65-1.17,10.45-1.31,11.26-.28C1090.71,296.26,1090.49,296.67,1090.17,297.17Z"/><path class="cls-1" d="M814.31,510.17c0,2.12-.59,4.11-2.55,5.44-1.54,1-3.17,2.37-5.06,1.64s-1.19-2.75-1.17-4.25c0-2.79-1.14-2.55-2.86-1.3-.53.38-1.1.94-1.67.17a1.35,1.35,0,0,1,.29-2.09,6.45,6.45,0,0,0,3.44-4.53c.35-1.35.95-.53,1.69-.29,2.45.82,4.34,2.91,7.15,3C814.67,508,814.86,509.07,814.31,510.17Z"/><path class="cls-1" d="M1169.26,343.52c3.38-.8,5.9,1.38,8.49,2.73,2.21,1.15,1.35,3.92.87,5.77-.6,2.29-2.46.75-3.9.54-2.87-.42-4.93-2.41-7.27-3.75-1.26-.72-3.22-2.14-2.67-4C1165.44,342.58,1167.72,343.8,1169.26,343.52Z"/><path class="cls-1" d="M819.43,606.06c5.8.2,5.73.18,3.74,5.72-1,2.85-2.8,4.66-5.84,3.88-2-.5-4.14-1.62-3.84-4.36C813.94,607,815.23,605.91,819.43,606.06Z"/><path class="cls-1" d="M571.71,593.68c1.15,1.81,2.22,2.64,3.81,2.54.18,1.65-3.33,1.23-1.76,3.19s3.37.26,5.09-.1c-.45,5.86-.81,6.12-6.22,4.65-2.15-.59-4.55,0-6.53-1.44-1.36-1-2-2.12-1.19-3.73a2.4,2.4,0,0,1,3.72-.89c3.72,3.55,2.6-.11,2.85-1.76C571.56,595.63,571.58,595.1,571.71,593.68Z"/><path class="cls-1" d="M758.62,717.12c1.09,4.13-2.14,4.79-5.64,5.32-2.78.43-3.42-3.81-6.39-2.8,0-1.58.05-3.9,2-3.41,2.65.67,3.47-.9,4.76-2.27s3.29-1.19,4.82-.66S758.73,715.33,758.62,717.12Z"/><path class="cls-1" d="M592.61,561.07c1-.84,2.62.77,3.15-.69.44-1.23-.7-2.41-1.59-2.92-1.7-1-1.17-3.18-2.66-4.14-.78-.51-.31-1,.17-1,2.3-.06,1.47-3.62,3.75-3.38,1.3.14.51,1.54.8,2.32a47.88,47.88,0,0,0,2.8,6.85c1,1.88,2,3.62.27,5.37-.72.75-.94,2.57-2.49,2.06C594.7,564.86,592.56,564,592.61,561.07Z"/><path class="cls-1" d="M1227.94,427.42c6.5,3.26,8.63,9.15,10.22,15.35.28,1.08.48,2.59-1,3-1.2.36-1.24-1.08-1.8-1.72-3.84-4.36-5.06-10-7.5-15.06C1227.66,428.64,1227.89,428.05,1227.94,427.42Z"/><path class="cls-1" d="M512.33,595.55a14.77,14.77,0,0,1-7.45,5.67c-1,.39-2.13.76-3-.11s-.89-2-.44-3.32c1.1-3.11,4.35-4.7,5.16-8.22C506.58,593.72,509.81,594.16,512.33,595.55Z"/><path class="cls-1" d="M551.29,654.31c0,2,.33,3.81-.92,5.26-1,1.19-2.19,2.8-3.84,2.39-1.31-.32-.47-2.09-.7-3.19a8.86,8.86,0,0,0-.37-1.53c-.48-1.15-2.16-2.45-.8-3.49,1.54-1.17,2.54-3.37,4.65-3.48C553.12,650.07,550.18,653.33,551.29,654.31Z"/><path class="cls-1" d="M820.71,601.14c.73-1.49,3.31-.87,1.79-2.86-1.83-2.37.36-3.43,1.66-4.29,1.9-1.25,2.91.6,3.64,1.92a41.68,41.68,0,0,0,4.23,6.81Z"/><path class="cls-1" d="M1180.62,279.2c2.89,1.33,1.94,5,4.4,6.13,3.77,1.8,5.38,5.53,7.78,8.54.53.67,2,1.59.6,2.58-1,.76-1.86-.15-2.6-1a60.48,60.48,0,0,0-7.76-8.33C1180.84,285.28,1180.24,282.44,1180.62,279.2Z"/><path class="cls-1" d="M1058.51,282.92c3.28-1,5.08.32,6.12,2.46,1.3,2.67,3.45,3.43,6.09,3.61,1.24.08,2.83-.42,3.08,1.58.1.79.19,1.72-.6,2.16-1.25.69-3.17.65-3.74-.19-2.08-3.06-5.34-4-8.34-5.55C1059.47,286.15,1059.68,284.31,1058.51,282.92Z"/><path class="cls-1" d="M813.44,616.93c-.3,1.58-1.44,2.85-2.35,2.47-2.08-.86-4.49-.85-6.32-2s-2.87-2.74.11-4.39c1.81-1,3.8-1.58,5.21-.68S812.41,615.45,813.44,616.93Z"/><path class="cls-1" d="M592.81,602.62c3.59-1.56,6.81-3.28,6.08-8.2,1.88,2.93,3.84,4.55,6.57,1.61.71-.76,1.47-1.53,2.2-.52a2.56,2.56,0,0,1-.71,2.37c-3.73,1.46-5.84,6.31-10.77,5.21C595.22,602.87,594.29,604.34,592.81,602.62Z"/><path class="cls-1" d="M498.68,672.19c2.46.36,4.55.9,4.43,3.74-.14,3.52-3.4,3.06-5.34,3.36-2.2.35-3.45-1.75-3.48-4C494.23,672.07,497.38,673.27,498.68,672.19Z"/><path class="cls-1" d="M1288.13,707.47l-2.51,15.32c-.15.92-.21,2.24-1.31,2.17-1.31-.09-1.9-1.35-1.95-2.66-.11-3.54,1.29-6.76,2.33-10a33.12,33.12,0,0,1,2.47-4.88Z"/><path class="cls-1" d="M950.81,313.49c2.38-1.22,2.9-3.31,2.33-5.63-.49-2,.2-3.57,1.09-5.89,1.74,4,4.46,3.51,7.66,2.65-3.8,3-5.55,8.18-11.09,8.88Z"/><path class="cls-1" d="M390.51,857.72c1.13-.38,2.22-.66,3.24-1.11,1.73-.76,3.52.45,4.15,1.17,1,1.08-1.36,3.07-.06,4.77-1.73-.12-3.22,1.69-5,.78-.86-.46-2-1.74-1.19-2.56C393.84,858.66,390.75,858.83,390.51,857.72Z"/><path class="cls-1" d="M548.8,743.07c-2.07-3.8,1.61-3.73,3.21-4.23s1.91,1.59,1.8,2.78c-.2,2.08.05,5.08-2.4,5.51C549.17,747.52,547.32,745.9,548.8,743.07Z"/><path class="cls-1" d="M567.67,611.4c-.91,2.13-3.23,2.43-5.36,2.79a1.93,1.93,0,0,1-2.26-2.47c.67-1.72,1.71-3.92,4.05-3.72C565.68,608.13,567.59,608.69,567.67,611.4Z"/><path class="cls-1" d="M782.54,952a33.08,33.08,0,0,0-3.64-2.25,2.32,2.32,0,0,1-1.6-2.39c0-1.44.88-2,2-1.65,2.22.58,2.37-4.5,3.84-2.14C784.35,945.41,782.88,948.91,782.54,952Z"/><path class="cls-1" d="M763.69,737.45c-.25,1-1,2.39-1.95,1.49s-3,2.41-2.84-1c.09-1.94-1.91-2.71-3-3.92-.71-.77-1.4-1.47-.6-2.3s1.24.37,1.85.72c1.92,1.09,3.29,3.1,5.64,3.44C763.66,736,763.73,736.63,763.69,737.45Z"/><path class="cls-1" d="M578.4,615.05c-1.81.22-2.74-.67-2.6-2.24.24-2.82,2.92-2.71,4.76-3.39,1.38-.51,1.54,1,1.34,1.75C581.41,613,580.9,615,578.4,615.05Z"/><path class="cls-1" d="M716.09,432.87c-2.45,1.31-3.22,5.62-7.08,4.06-.75-.3-2-.47-2-1.69s1.16-1.67,2.22-1.86C711.46,433,713.77,433.91,716.09,432.87Z"/><path class="cls-1" d="M569.56,345.31c1.44-1.64,1.31-3.84,2.49-5.59s2.47-1.54,3.88-1.88c.85-.21,1.65-.09,1.75,1s-.56,1.66-1.43,1.29c-2.06-.88-2.16.72-2.38,1.84C573.4,344.24,571.79,345,569.56,345.31Z"/><path class="cls-1" d="M364.46,820.47c-3.59,2.41-6.35-2.16-9.9-.12C356.19,816.65,361.82,817,364.46,820.47Z"/><path class="cls-1" d="M374.46,791.1c1.76,2.67,1.44,5.56,1.88,8.27.11.68,0,1.39-.84,1.56a1.36,1.36,0,0,1-1-.48C373,798.84,372.85,793.27,374.46,791.1Z"/><path class="cls-1" d="M448.46,657.51c.13.78-.3,1.57-.93,1.39a6.68,6.68,0,0,1-4.47-4.61,1.45,1.45,0,0,1,1.41-1.94C447.48,652.64,447.54,655.45,448.46,657.51Z"/><path class="cls-1" d="M787.95,492c4.26-.06,6.48,2,6.33,5.6,0,.55,0,1.07-.7,1.18s-2.12,0-2-.74C792.2,495,788.57,494.64,787.95,492Z"/><path class="cls-1" d="M812.72,492.21c.18-.81-.6-2.5,1.33-2.37,2.33.16,2.87,2.15,3.15,4,.19,1.25-.85,1.82-2.07,1.82C812.93,495.62,812.6,494.16,812.72,492.21Z"/><path class="cls-1" d="M599.8,580.54c-1.41-1.59-5.36-.78-4.16-4.38.53-1.6,2-1.28,3-1C601.83,576.17,599.11,578.69,599.8,580.54Z"/><path class="cls-1" d="M600.31,608.48c-2.49,1.55-3.57,4.17-6.53,3.38-.7-.19-1.32-.49-1.39-1.21,0-.44.27-1.3.51-1.33C595.13,609,597.12,607,600.31,608.48Z"/><path class="cls-1" d="M648.62,338.35c-.79,1.86-2.33,2-3.27,2.85-1.25,1.19-2.55.7-3.25-.62-.87-1.63.82-2,1.74-2.35A6.53,6.53,0,0,1,648.62,338.35Z"/><path class="cls-1" d="M211.69,437.2c.68,3.63-2.31,4.27-4.34,5.77C206.69,439.65,206.69,439.65,211.69,437.2Z"/><path class="cls-1" d="M800.14,502.28c1,.14,1.87.52,1.91,1.63.07,2.08-1.73,2.87-3.12,3.57-.73.37-1.46-.89-1.55-1.86C797.21,503.62,798.67,502.94,800.14,502.28Z"/><path class="cls-1" d="M464.25,398.25c2.89-2.14,5.33-1.76,7.87-.49.67.33,1.71.15,1.37,1.34a1.35,1.35,0,0,1-1.87,1C469.44,399,466.93,399,464.25,398.25Z"/><path class="cls-1" d="M549.34,578.7c.76-1.23,2.16-.89,3.17-1.44.81-.44,1.64-1,2.48-.29.66.59.4,1.53.15,2.23a2.21,2.21,0,0,1-2.44,1.57C551.25,580.62,549.88,580.29,549.34,578.7Z"/><path class="cls-1" d="M510.15,565.73c-2.6-3.24-1.88-6.62-2.2-9.77C510.36,558.67,510.44,561.87,510.15,565.73Z"/><path class="cls-1" d="M871.07,757.11c1.61,0,1.73,1.23,1.59,2.5s-.21,2.67-1.86,2.43a2.76,2.76,0,0,1-2.27-2.9C868.49,757.57,869.65,757.21,871.07,757.11Z"/><path class="cls-1" d="M457.09,388.44c-.88.63-.28,2.26-1.62,2.42-.26,0-.88-.73-.89-1.13-.05-1.82,1.68-1.29,2.61-1.74s2.54-.77,3.37.21.06,2.18-1,3.09C457.91,391.08,458.94,388.72,457.09,388.44Z"/><path class="cls-1" d="M495.76,402.61c-.85.2-1.31-.15-1.23-1,.13-1.25,0-2.84,1.89-2.8.92,0,2.56-.52,2.61.87C499.08,401.6,497,401.79,495.76,402.61Z"/><path class="cls-1" d="M630.19,796a1.71,1.71,0,0,1-2.13,1.3c-1.41-.42-3-.84-3.7-2.44-.25-.59.3-1.22.72-.83C626.56,795.4,629.07,793.94,630.19,796Z"/><path class="cls-1" d="M623.57,295.53c.15,3.79-2.42,4-4,5.19-.44.33-1-.11-1.28-.6-.4-.69.3-1.09.64-1.17C620.67,298.51,621.73,297.11,623.57,295.53Z"/><path class="cls-1" d="M887.88,723.79c-.82,1.58-2.67,1.21-4,1.79-.75.32-1.93-.31-1.54-1.1.89-1.76,3.14-.78,4.58-1.75C887.3,722.46,887.81,723,887.88,723.79Z"/><path class="cls-1" d="M836.24,1065.83c-1.43,2.84-2.66,4.91-.93,8,1.07,1.93-1.39,3-3.15,2.7-5.4-.77-10.83-.48-16.25-.74-1.12-.05-2.18-.26-2.46-1.54a1.5,1.5,0,0,1,1.12-1.86C822,1071.21,829.46,1069.84,836.24,1065.83Z"/><path class="cls-1" d="M788.3,1066.06c.09,3.38-5,7.45-7.53,6.77a1.87,1.87,0,0,1-1.6-1.53c-.39-2.92.24-6-1.81-8.67-.52-.68.5-1.71,1.59-1.77s1.83-.89,2.61-1.6c1-.95,2.06-2.38,3.69-1,1.33,1.1,3.38,1.66,2.83,4.23A11.34,11.34,0,0,0,788.3,1066.06Z"/><path class="cls-1" d="M784.66,1051c-.72,2-.15,4.95-3.2,4.82-2.26-.1-3.15-2.28-3.25-4.36-.13-2.81,2.3-3.64,4.26-3.88C784.88,1047.25,784,1049.75,784.66,1051Z"/><path class="cls-1" d="M978.74,1019.3c.77,0,1,.49.94,1.27-.16,2.62-5.57,8-8,7.94a1,1,0,0,1-1.08-1.26C970.72,1026.58,978,1019.37,978.74,1019.3Z"/><path class="cls-1" d="M920.23,1054.83a10,10,0,0,1-5.87,3.56c-2.51.36-4.93.46-7.16,2-.9.61-2.67.89-3.07-.55s1.23-1.38,2.2-1.43c3.93-.19,7-2.9,10.69-3.69A4.11,4.11,0,0,1,920.23,1054.83Z"/><path class="cls-1" d="M738.83,1073.38a2.15,2.15,0,0,1-2.38,1.6c-1.2,0-2.58-.33-2.42-1.93.13-1.34,1.51-1.46,2.5-1.49A2,2,0,0,1,738.83,1073.38Z"/></svg>