<svg id="Layer_1" data-name="Layer 1" xmlns="http://www.w3.org/2000/svg" viewBox="0 0 502 78"><defs><style>.cls-1{fill:none;stroke:#b3cadb;}</style></defs><title>arktyka-title</title><path class="cls-1" d="M79.93,71.16l.27,1.32-.64,1-1,.47-1.18.19H76.12L74,74l-1.36-.09H68.59L63,74.26l-1.18-.38-.54-.75-.45-1L58,64.2l-.63-.94-.82-.19L55.44,63,50,62.6H48.55l-6.8-.19-5.44-.09H34.94l-1.36.09H29.41l-1.18.19-.73.47L27,64.2l-2.09,6.39-.54,1.5-1,1.22L22,73.88l-1.45-.09-5.26-.28H13.8l-5.62.38L7,74l-1.09-.56-.73-1,.09-1.22.18-.75L6,68.9,7.27,66l.54-1.41,2.27-5.26L10.63,58,13,52.73l.54-1.41,2.09-5.08.54-1.41,2.45-5.26.54-1.32,3.27-7.71L25,24.91l.63-1.5,2-4.23.63-1.5,1.72-4.32.54-1.41,1.63-3.85.45-1,.91-.56,1.36-.28L39,6H46.1l4.17.09,1.54.28,1,.75.45,1.22L54.53,12l.54,1.41,2.27,4.42.54,1.32,2,4.61.54,1.32,1.63,4.79.54,1.32,2,4.51L65.15,37l2,4.61L67.69,43l1.81,4.7L70,49l2.81,5.83L75,59.22l.64,1.32,2.45,5.92ZM49.63,44.65l-.36-1.22-2-6.39-.45-1.41L45,30.08l-.45-1.22-.91-.66-1.18-.28-1,.28-.91.94-2.45,6.39-.54,1.41-2.36,6.3-.27,1.41.27,1.13,1,.47,1.27.19h5.71l4.26.28,1.18-.38.73-.75Z"/><path class="cls-1" d="M150.41,73.41l-1.18.38h-6.35l-5-.09h-1.45l-4.08.19h-1.18l-.82-.38-.73-.75-2.9-4.23-.82-1.13-2.9-4-.82-1.13-2.54-4.32-.82-1.13-2.9-4-.63-.75-.54-.28-1.09-.09-2.9-.19-1.18.09-.73.56-.27,1.22-.18,5.17.09,1.5.36,5.26.09,1.5L109,69v1.5L109,72l-.18,1.13-.45.47-1,.28h-1.45l-4.35-.28-4.17.28H95.89l-4.17-.28-1.09-.19L90.09,73l-.18-.94-.09-1.32-.09-1.41.18-2.44.09-1.5.36-5.08v-1.5l-.27-5.08L90,52.26l-.09-5v-1.5l.27-5.08V39.2l-.27-5.08v-1.5l.27-5.08V26l.18-5v-1.5l-.09-5.08V13l-.18-3.1.09-1.41.09-.56.27-1.22.54-.75,1.09-.28.73-.09,1.36-.09,4.08.19L109.14,6l6.17-.38h1.45l6,.38h3.45l1.54.09,1.36.28L131,7l1.36.47,1.36.56,1.45.56,1.36.66,1.18.75,1.72,1.22,1,.85.91.94.91,1.13L143.52,16l.82,1.22L145.42,19l.63,1.32.64,1.41.45,1.5.27,1.5.09,1.5.18,2.07v1.5l-.09,1.5-.18,1.6-.27,1.6-.36,1.5-.54,1.41-.63,1.41-.82,1.41L144,41.46l-.82,1.13-.82,1-1.45,1.5-1,.85-1.81,1-1.09.66-1.18.66-1.18.28-.73.28.36.75,3.27,4.79.82,1.13,3.27,4.61.91,1.13,3.27,4.7.91,1.13,2.81,3.38.82,1,.45,1ZM122.93,37.23l2-.38,1.18-.47,1.09-.66.91-1.13.63-1.41.36-1.5.09-1.5-.09-1.6-.18-1.6-.36-1.41-.64-1.41L127.1,23l-1-.85-1.27-.56-2-.47L121.38,21l-4.54-.09H115.4l-4.63.28-1.09.09-.63.28-.54.56-.09,1,.09,2.16.18,1.5.18,1.6L109,30l-.18,5.17.09,1,.18.56.63.28,1.09.19,4.72.38h1.45Z"/><path class="cls-1" d="M218.35,71.91l.45.85-.27.47-.27.56-.63.38h-1.18l-4.9-.38H210.1l-5.71-.09h-1.45l-5.81.28L196,73.88l-.82-.66L192,69.56l-.82-1.13-2.81-4.14-.82-1-3.54-3.67-.91-1.13-3-3.67-.73-1-.45-.85-.63-.28-.54.38-.18,1.22v6.49l-.18,5.08v1.5l.09,2.26V71l-.09,1.41-.09.94-.45.38-1.09.19-2.81.19h-2.81L166,73.7l-1.45.09-4.54.38-.73-.28-.36-.56-.09-.85-.09-1.32v-1.5l.09-2.35.09-1.6-.36-5.08V54.05l.09-1.5.27-5.17.09-1.5V39.29l-.18-5.08v-1.5l.18-5.17V26l-.18-11.66v-1.5l.27-5.08.09-1.13.27-.47.91-.19,1.36.09,2.81.28H166L170.18,6h1.45l4.17.28,1,.09.45.28.27.75.09.94-.09,1.22-.27,3.1-.09,1.5.27,5v1.5l.09,5,.18,1,.73.19,1-.66,2.81-4,4.9-6.11L190,12l.91-1.13L194,7.15l.73-.75.91-.19,4.17-.28h1.45l5.53.38,3.45.09h1.45l3.45-.09,1,.09.45.38.18.19-.09.28-.73.85L212.54,12l-.91,1.13-3.17,4.32-.91,1.13-3.54,4-.91,1.13-3.36,4.14L198.85,29l-3.27,4.14-1,1.13-2.27,2.16-1,1.13-.45.56-.45.75.18.56.63.85,3.36,4.61,1,1.13,4,4.14.91,1.13L204,55.84l.91,1.13,3.72,4.32.91,1.13,3.9,4.23.91,1.13Z"/><path class="cls-1" d="M276.49,13.35l-.09,1.41.09,2.82-.09,1.5-.09.75L276.13,21l-.27.66-.54.47-1.09.19h-1.45L270.05,22l-1.45-.09-4.17.28H263L260.71,22h-1.36l-.64.09-.91.28-.36.56-.09,1.22L257,29.71v1.5l.36,5.64-.09,1.5L256.9,44l-.09,1.5L257,51v8.65l-.18,5.55.09,1.41.45,4.23.09,1.5-.27,1.13-.45.47-1.18.19-1.72-.09-2.27-.28L250,73.7l-4.08.28h-1.45l-4.08-.28-1.09-.09-.54-.28-.18-1v-1.6l.27-3.95.09-1.5v-7l.09-5.64V51l.09-5.55V44l-.36-5.64-.09-1.5V29.71l-.18-5.55V22.84l-.27-.75-.91-.19h-1.36l-2.9.19h-1.63L229,21.9l-1.54-.09-1.54.09-2.09.09h-1.36l-.73-.09-1-.19-.54-.38-.36-.56-.18-.94v-.66l-.09-1.5.18-2.82V13.45l-.27-3.57.09-1.5.27-1.22.36-.66.54-.28.91-.19h2.09l3.36.28h1.45l5.26-.37h1.45l5.35.47H242l6.71-.47L254,6h1.45l6.8-.09H269l3-.19,1.54.09.73.09,1.09.19.64.38.45.66.18,1.13v.66l.09,1.41Z"/><path class="cls-1" d="M350.15,7l-.54.85-6.53,10L342.17,19l-3.08,4.32-.82,1.22-2.54,4.61-.82,1.32-2.81,4.32-.91,1.32-2.9,4.32-.91,1.22-3,4.32-.36.75v7.61l.36,5.08-.09,1.5L323.93,66v1.5l.36,3.95.09,1.32-.27.75-.36.38-.82.19h-6l-10.61-.38-.36-.28-.18-.94V60.91l-.09-1.5-.36-5.08-.09-1.5.36-5.08-.18-.85-.63-.66-2.45-4.51-.82-1.32-2.9-4.23-.82-1.32-2.63-4.51L294.45,29l-6.35-10-.73-1.32-2.72-4.42L283.93,12,281.3,7.52,281,6.68l.09-.47.54-.38h12.16l1.45.09,5.26.28,1,.09.36.28,2.63,4.7.73,1.22L308,16.73l.73,1.22,2.36,4.32.82,1.32,2.45,4,.63.85.54.19.64-.66,2.27-4.51.82-1.22L322,18.14l.82-1.22,2.27-4.42.73-1.32,2.54-4.32.73-.94.73-.19,1,.09,4.54.28h1.45l5.26-.28h1.45l5.17.38,1.09.19.45.19Z"/><path class="cls-1" d="M416.91,71.91l.45.85-.27.47-.27.56-.64.38H415l-4.9-.38h-1.45l-5.71-.09h-1.45l-5.81.28-1.09-.09-.82-.66-3.17-3.67-.82-1.13L387,64.3l-.82-1-3.54-3.67-.91-1.13-3-3.67-.73-1-.45-.85-.63-.28-.54.38-.18,1.22v6.49L376,65.8v1.5l.09,2.26V71L376,72.38l-.09.94-.45.38-1.09.19-2.81.19h-2.81l-4.17-.38-1.45.09-4.54.38-.73-.28-.36-.56-.09-.85-.09-1.32v-1.5l.09-2.35.09-1.6-.36-5.08V54.05l.09-1.5.27-5.17.09-1.5V39.29l-.18-5.08v-1.5l.18-5.17V26l-.18-11.66v-1.5l.27-5.08.09-1.13.27-.47.91-.19,1.36.09,2.81.28h1.45L368.74,6h1.45l4.17.28,1,.09.45.28.27.75.09.94-.09,1.22-.27,3.1-.09,1.5.27,5v1.5l.09,5,.18,1,.73.19,1-.66,2.81-4,4.9-6.11,2.81-4,.91-1.13,3.17-3.76.73-.75.91-.19,4.17-.28h1.45l5.53.38,3.45.09h1.45l3.45-.09,1,.09.45.38.18.19-.09.28-.73.85L411.1,12l-.91,1.13L407,17.49l-.91,1.13-3.54,4-.91,1.13-3.36,4.14L397.41,29l-3.27,4.14-1,1.13-2.27,2.16-1,1.13-.45.56-.45.75.18.56.63.85,3.36,4.61,1,1.13,4,4.14.91,1.13,3.54,4.51.91,1.13,3.72,4.32.91,1.13,3.9,4.23.91,1.13Z"/><path class="cls-1" d="M495.64,71.16l.27,1.32-.63,1-1,.47-1.18.19h-1.27L489.75,74l-1.36-.09H484.3l-5.62.38-1.18-.38-.54-.75-.45-1-2.81-7.9-.63-.94-.82-.19L471.15,63l-5.44-.38h-1.45l-6.8-.19L452,62.32h-1.36l-1.36.09h-4.17l-1.18.19-.73.47-.54,1.13-2.09,6.39L440,72.1l-1,1.22-1.36.56-1.45-.09L431,73.51h-1.45l-5.62.38-1.18.09-1.09-.56-.73-1,.09-1.22.18-.75.54-1.5L423,66l.54-1.41,2.27-5.26.54-1.32,2.36-5.26.54-1.41,2.09-5.08.54-1.41,2.45-5.26.54-1.32,3.27-7.71,2.54-5.64.63-1.5,2-4.23.63-1.5,1.72-4.32.54-1.41,1.63-3.85.45-1,.91-.56,1.36-.28L454.73,6h7.08l4.17.09,1.54.28,1,.75L469,8.37,470.24,12l.54,1.41,2.27,4.42.54,1.32,2,4.61.54,1.32,1.63,4.79.54,1.32,2,4.51.54,1.32,2,4.61L483.4,43l1.81,4.7.54,1.32,2.81,5.83,2.18,4.42.63,1.32,2.45,5.92Zm-30.3-26.51L465,43.43,463,37l-.45-1.41-1.81-5.54-.45-1.22-.91-.66-1.18-.28-1,.28-.91.94-2.45,6.39-.54,1.41-2.36,6.3-.27,1.41.27,1.13,1,.47,1.27.19h5.71l4.26.28,1.18-.38.73-.75Z"/></svg>