<svg id="Layer_2" data-name="Layer 2" xmlns="http://www.w3.org/2000/svg"  viewBox="0 0 38.5 38.5"><defs><style>.cls-1{fill:#eacc4e;}.cls-2{fill:#0e2131;stroke:#0e2131;stroke-miterlimit:10;}</style></defs><title>arrow_right</title><circle class="cls-1" cx="19.5" cy="19.82" r="17.5"/><path class="cls-2" d="M13.16,28.34a.61.61,0,0,1-.39.14.42.42,0,0,1-.35-.26.92.92,0,0,1-.14-.44c0-.12.1-.26.3-.4l12.61-7.14q.48-.33,0-.66L12.68,12.25q-.29-.15-.29-.37a1,1,0,0,1,.15-.48.41.41,0,0,1,.35-.25.61.61,0,0,1,.38.15L27,19.3a.67.67,0,0,1,0,1.21Z"/></svg>
