<svg id="Layer_1" data-name="Layer 1" xmlns="http://www.w3.org/2000/svg" viewBox="0 0 175.25 78"><defs><style>.cls-1{fill:#b3cadb;}</style></defs><title>bio_title</title><path class="cls-1" d="M23.86,71.85l-5-.27h-1.4l-6.25.18-3.41-.09-2.84-.39L4,70.9l-.56-.56L3.26,69.2l-.1-1.31.09-1.41v-1.4l.09-.78V62.86l.27-4.76-.09-1.37L3.25,51.9V50.53l.09-2.25V44.36l.36-4.77V38.2l-.18-4.72V32l-.09-4.73.45-7.64-.45-6.1L3.17,10.9V8.72L3.6,7.31l1.24-.7L6.1,6.43l1.47-.09,9.76-.27,7.82.45,4.78-.18h1.45l6.34.09,5.22.36L44.47,7,46,7.24l3.46,1.09,1.4.65,1.72.9,1.21.84L55.36,12l.95,1,1.27,1.54,1.66,2.93.56,1.3.46,1.38.29,1.5L60.9,24,61,25.48l-.09,1.58-.27,1.58-.55,2.09-.56,1.32-1.07,1.84-.89,1-2.09,2-.15.35.16.44.74.82,1,.95,1.1,1.19,1.38,1.92.83,1.38,1,2.18.48,1.5.37,1.55.28,2.43-.27,3.8-.28,1.4-.64,1.94L61,60,60,61.75,59.21,63,57.75,64.7l-1,1-2.29,1.66-1.19.74-2.64,1.28-2.82.92-4.08.82-2.09.27-3.6.27H36.55l-4.9.18Zm-5-1.27,5,.27h7.75l4.9-.18H38l3.54-.27,2-.26,4-.8,2.72-.88,2.52-1.22,1.12-.69L56.09,65,57,64l1.4-1.67.77-1.12.86-1.65.52-1.21.61-1.84.25-1.28.26-3.64-.26-2.28-.35-1.46-.44-1.39-.33-.64-.64-1.45L58.9,43.1l-1.32-1.84-1-1.11-1-1-.94-1.09-.34-.9.45-1,.71-.71,1.44-1.35.83-.91,1-1.65.51-1.2.51-2,.26-1.48L60,25.48l-.09-1.37-.62-3.69-.43-1.27-.52-1.21-1.59-2.82-1.2-1.44-.88-1-1.47-1.2-1.13-.78-1.65-.86-1.32-.61-3.33-1L44.32,8l-1.49-.17-5.16-.35h-1.4l-6.34-.09-4.81.18-7.82-.45L6.2,7.42l-1.11.16L4.44,8l-.28.91v2l.27,2.63.09,1.45.36,4.73-.45,7.66.09,6.13.18,4.72v1.45L4.34,44.4v3.89l-.09,2.25v1.32l.18,2.56.18,3.67-.27,4.79v1.49l-.09.78v1.37L4.16,67.9l.09,1.18.14.77.26.26.56.21,2.62.35,4.67.09,4.9-.18ZM24,57.64l-1.42-.25L21.9,57l-.5-.82-.18-1V53.3l.18-1.58V49.81l-.09-1.4V46.86l.1-1.23.42-.71,1-.33,1.68-.29,1.39-.1h5.31l1.49-.09,4-.18,1.41.11.63.18,1.36.45,1.63.93,1.16,1.16.56.65.82,1.47.27,1.25.1,1.38-.41,2.16L43.61,55l-.48.7-.84.71-1.1.48-1.43.27-3.1.19Zm-1-1.16,1.07.17,12.51-.27,3-.18L41,55.95l.86-.39.61-.53.32-.48.56-1.22.33-1.84-.08-1.19-.24-1.11L42.64,48l-.48-.55-1.09-1.08L39.7,45.6,37.89,45,36.69,45l-5.47.27h-5.3l-1.31.09L23,45.57l-.55.19-.11.19-.08,1v1.48l.09,1.4v2l-.18,1.58v1.73l.15.79.24.35Zm14.72-24.4h-2l-3.07-.18-2.07-.18H29.13l-1.49.09H24l-1.3-.14-.83-.42-.51-.83-.18-1L21,27.22l.09-1.48.27-2.18.37-1.41.52-.58.7-.32.8-.09.85-.17h2L28,20.9l2.24-.09h1.36l3.55.45h.74l2.22.27,2.1.62,1.37,1,.88,1.33.28,1.27V27.4l-.33,1.4-.54.89-.77.87-.89.63L39,31.8Zm-7.12-1.36,2.1.18,3,.18h1.88l1-.24,1-.51.78-.55.59-.67.44-.75.24-1.12V25.83l-.23-1-.7-1L39.71,23l-.46-.16-1.31-.35-2.07-.25h-.75l-3.55-.45H30.29L26.66,22H24.75l-.8.17-.76.09-.36.18-.22.27-.24,1.05-.26,2.09L22,27.19l.08.67.09,1.46.15.82.23.34.51.25,1,.08h3.53l1.49-.09Z"/><path class="cls-1" d="M87.78,71.94l-4.6-.09H77.65L73,71.46l-.65-.22-.5-.5v-1.1l-.18-2.19V66l-.09-1.31V63.31l-.27-4.8.45-7.74-.27-4.86V44.45l-.09-4.82V31.94l-.09-6.34.09-4.83V13.09l-.18-5,.34-1.24.8-.53,1-.1h.76l1.31-.09,2.2.09h1.41l4.09-.18h5.56l1.36.24.29.93L90.74,12v8.79L90.83,27l-.09,6.34.09,6.25-.18,4.84v7.75l.27,4.83v1.43l-.36,4.86v1.39l-.09,6-.43.71-1,.36Zm-4.59-1.09,4.57.09,1.13-.08.48-.18.11-.18v-.84l.09-6.34.36-4.86V57.07l-.27-4.81v-7.8l.18-4.84V38.2l-.09-6.25.09-6.34-.09-4.82V12l-.35-4.63-.07-.2-.69-.13H83.19l-4.09.18H77.65l-2.17-.09-1.29.09h-.75l-.72.07-.28.19-.2.73.18,4.84v7.7L72.34,27l.09,4.91v7.69l.09,6.25.27,4.89-.45,7.74.27,4.77v1.37L72.69,66v1.46l.18,2.19,0,.76.37.12,4.41.35Z"/><path class="cls-1" d="M134.92,73.55l-3.07-.18-3-.36-1.29-.28-1.36-.36-6.28-2.06-1.56-.64-2.87-1.26-1.37-.73-1.36-.82-1.21-.93-1.18-1-1.12-1.21-1-1.18-2.38-2.38L105,59.07l-.91-1.18-.74-1.2-.75-1.86-1.35-4-.54-1.9-.81-4.15-.27-2-.18-2.9V38.29l.18-3.16.18-1.55L100,32l.36-1.55.45-1.55.45-1.36.54-1.45.61-2,1-2.29.73-1.37,1.27-2,1.41-2.05,1.07-1.07L109.49,14l1.17-.9,1.18-.82,3.87-2.52L117,9.08l1.28-.64,1.9-.82,2.63-.91,1.37-.37,4.77-.9,4.51-.54,2.89-.18,4.88.27,1.56.18,1.55.27,1.55.36,1.49.26,2.81.72,1.37.46,1.9.72,1.27.54,3,1.72,1.2.83,1.18.91,3.53,3.35,2.1,2.83.74,1.2.64,1.19.7,1.14,1,1.81.7,1.14.65,1.39.46,1.29.47,2.12.54,2.69.19,1.56.26,1.49.19,3.13L172,41.82l-.18,1.36-.54,2.71-.17,2-.18,1.36-.27,1.46-.37,1.38-1.56,3.22-2.43,4.05-.82,1.19-.91,1.18-2.36,2.54-1,.92-2.27,1.73L157.27,68l-1.18.72-1.37.73-1.29.56-1.8.72-1.4.38-4.37,1.34-3,.72-1.55.27-1.58.1ZM107.61,17.07l-.42.67L106.29,19,105,21l-.7,1.31-1,2.2-.6,2-.55,1.46-.44,1.32-.44,1.5L101,32.24l-.26,1.49-.17,1.49-.18,3.1v1.49l.18,2.83.26,1.93.8,4.08.53,1.84,1.33,4,.71,1.76.68,1.08.86,1.12.88,1.06L109,61.88l1,1.19,1.06,1.15,1.12.94,1.14.88,1.29.77,1.32.7,4.33,1.86,1.39.43,4.83,1.61,1.31.35L129,72l2.9.35,3,.18h4.8l1.49-.09,1.46-.26,2.91-.71,5.71-1.7,3-1.23,1.3-.7,1.14-.7,1.59-1.06,2.21-1.68,1-.87,2.29-2.47.87-1.13.79-1.14,2.39-4,1.5-3.08.33-1.25.26-1.39.18-1.32.18-2L170.8,43l.17-1.31.26-3.42-.18-3-.26-1.46-.18-1.55-1-4.69-.43-1.19-.61-1.3L167.91,24l-1-1.81-.7-1.14-.64-1.19-.7-1.14-2-2.73-.94-.93-2.49-2.31-1.12-.86-1.14-.79-2.91-1.68L153,8.9l-1.86-.71-1.32-.44-2.73-.7-1.49-.26-1.55-.36-1.49-.26L141.12,6,139,5.9l-2.69-.18-2.79.18-4.44.53-1.3.26-3.4.63-1.3.35-2.55.88-1.85.79-1.22.61-2.37,1.41-3.82,2.58-1.14.88-1.51,1.24Zm29,40.57L135,57.55l-2.26-.27L131.34,57l-1.94-.64L128,55.82l-1.47-.73-1.3-.83-1.84-1.56-1.1-1.1-.56-.65-1-1.27-.48-.76-1.1-2-.66-2-.36-1.35-.1-.88-.26-1.39-.1-1.49V38.47l.18-2.63.18-1.29.27-1.29.3-.72.43-1.3,1.1-2.48.74-1.2,1-1.37,1-1.11,1.47-1.29,1.31-.85,2.09-1.1,1.49-.56,2.37-.64,1.37-.28,3.37-.19,2.92.18,1.49.28,1.49.46,1.3.55L146,23l1,.85,2.29,2.46L150.59,28l.75,1.21,1,2,.39,1.34.55,2.72.19,3v1.55L153.29,42l-.18,1.36-.45,2.1-.56,1.42-.9,2-.87,1.36-1.16,1.43-.91,1L146.8,54.1l-1.13.85-2,1.27-1.32.58-2.05.47-1.48.19Zm-.16-36.46-3.25.18-1.27.26-2.29.62-1.38.52-2,1-1.21.78-1.37,1.21-.94,1-.95,1.3-.94,1.63L120,31.6l-.43,1.3-.28.66-.24,1.16-.17,1.22-.18,2.55v1.31l.09,1.4.26,1.37.1.84.52,1.88.44,1.22.33.66,1.14,1.92,1.48,1.82,1,1,1.76,1.49,1.2.76,1.38.69,1.3.52,1.85.61,1.28.25,2.19.26,1.49.09,2.17-.18,1.41-.18,1.92-.44,1.17-.51,1.89-1.21,1-.78L147.52,52l.88-1,1.13-1.39.79-1.23.86-1.9.53-1.32.42-2,.17-1.3.18-2.12V38.29l-.18-2.92-.53-2.61-.35-1.21-.95-1.88-.69-1.12L148.55,27l-2.2-2.38-.94-.76-2.26-1.29L142,22l-1.38-.43-1.37-.25Z"/></svg>