<?xml version="1.0" encoding="utf-8"?>
<!-- Generator: Adobe Illustrator 21.0.2, SVG Export Plug-In . SVG Version: 6.00 Build 0)  -->
<svg version="1.1" id="Layer_1" xmlns="http://www.w3.org/2000/svg" xmlns:xlink="http://www.w3.org/1999/xlink" x="0px" y="0px"
	 viewBox="0 0 1920 1080" style="enable-background:new 0 0 1920 1080;" xml:space="preserve">
<style type="text/css">
	.st0{fill:none;stroke:#000000;stroke-width:2;stroke-linecap:round;stroke-linejoin:round;stroke-miterlimit:10;}
</style>
<path class="st0" d="M793.7,775.1c-0.2-3.3-1.1-6.4-2.1-9.5c-1.4-4.5-1.8-9.1-2.7-13.6c-1-4.7-1.5-9.4-1.9-14.2
	c-0.3-3.6,0.3-7.5-1.3-11c-0.4-0.9,0.3-2.3-0.1-3.1c-0.8-1.4-1.3-3-3.3-3.8c-3.9-1.5-6.5-5.1-10.6-6.6c-2.8-1-5.6-2.3-8.6-2.8
	c-4-0.7-6.6-3.3-9.3-5.7c-3.6-3.3-7.3-6.4-10.8-9.9c-3.8-3.9-8.4-7.1-12.3-10.8c-0.3-0.3-1-0.2-1.5-0.3c-1.8-0.4-3.6-0.3-5.5-0.7
	c-1.6-0.3-3.2,0-4.7,1.1c-2.8,2.1-6.1,3.2-9.1,5.1c-0.8,0.5-2.1,0.7-3.3,0.6c-3.2-0.3-6.4,0.5-9.6,0.5c-4.4,0-8.4,2.2-12.7,3
	c-2.6,0.4-4.9,1.8-7,3.3c-4,2.8-8.5,4.5-13.5,4.9c-6.7,0.5-12.7,2.6-17.8,6.5c-3.3,2.5-7,4.1-10.7,5.7c-5.6,2.3-8.9,6.4-10.8,11.6
	c-0.7,1.8,0.3,3.4,1.3,4.9c0.8,1.2,1.7,2.5,2.5,3.7c1.1,1.7,1.8,3.7,1.1,5.8c-0.7,2.1,0,4.1,1,6.1c2.7,5.4,4.6,10.9,4.5,17.1
	c-0.1,3.3,1.2,6.6,3,9.5c3.3,5.4,3.9,11,2.7,17.1c-0.6,3.1,0.7,6.3,2.4,8.9c1,1.5,3.8,2,5.8,1.2c3.9-1.6,7.9-1.4,11.9-1.1
	c4.9,0.3,9.7-0.6,14.5-1c5.7-0.5,11.6-0.5,17.1-2.2c3.8-1.2,7.8-1.7,11.7-2.4c4.5-0.9,9.5-0.6,13.9,1.5c1.8,0.8,3.6,1.5,5.7,1.8
	c4,0.7,7,3.4,10.4,5.3c6.6,3.7,11.3,9.5,17.3,14c1.8,1.4,3.6,2.4,5.8,2.5c2.8,0.2,5.6-0.2,8-1.7c1.2-0.7,2.3-1.5,3.4-2.3
	c2.4-1.7,4.8-3.2,8-3.8c3.9-0.8,6.5-3.8,9-6.5c1.4-1.4,2.8-2.8,4.5-3.8c3-1.8,3.9-4.5,3.9-7.6c0-3.8-0.5-7.5-0.9-11.2
	c-0.2-1.8,0.5-3.7,0.4-5.6"/>
<path class="st0" d="M1495.7,959.7c2.7-0.6,5.4-1.5,8.2-1.8c4.4-0.5,7.1-3.2,8.1-7c1.2-4.4,2.6-8.5,4.5-12.6
	c2.2-5.1-1.6-7.3-4.9-10.2c-5.6-4.8-12.8-6.7-19.2-9.7c-11.4-5.2-22-11.6-32.7-18c-9.6-5.7-19.5-5.1-27.7,2.6
	c-5.5,5.2-11.3,9.4-17.7,13.3c-8,4.7-9,16.8-1.9,22.5c7.1,5.7,13.8,11.4,18.9,19c3.7,5.5,9.7,3.4,14.5,2.9
	c5.1-0.5,10.1-0.2,15.2-0.4c9.7-0.4,19.3-1.9,29.1-1.3c1.7,0.1,3.5-0.2,5.1,0.6"/>
<path class="st0" d="M1724.6,354.6c-0.6-7.2-1.6-14.4-2.8-21.5c-0.9-5.1-4-6.8-7.3-7.3c-14.2-2.2-28.6-2.1-42.9-0.8
	c-7.6,0.7-14.8,3.8-22.8,2.8c-4-0.5-6.5,3.7-7.4,7.4c-2.7,10.8-7.4,21.1-10.3,31.7c-2.1,7.6-3.3,15.2-7.5,22c-0.2,0.3-0.1,0.8,0,1.2
	c2.5,10.4-3.9,17.4-9.6,24.6c-3.3,4.2-4.4,9.2-6.2,14c-3.5,9.6-9.6,18-12.8,27.7c-1.4,4.4-1.4,8.8-1.1,13.3
	c0.4,6.4,7.9,12.1,16.3,12.6c3.5,0.2,7.1,0.5,10.1-1.9c2.6-2.2,5.8-2.2,8.9-2.5c7.4-0.7,14.7-1.8,22.1-1.8
	c8.5,0.1,16.2-3.5,24.6-4.3c4.6-0.5,9.5-1.2,13.9-1.2c8.1,0,14.8-3.3,20.7-7.5c6.9-4.9,7-13.7,7.5-21.3c0.5-7.8,2-15.5,2.4-23.3
	c0.7-14.3,2.8-28.6,3.7-42.9c0.4-6.7,1.5-13.4,1.2-20.2"/>
<path class="st0" d="M1503.4,136.5c-6.6,0.8-12.9-1.4-19.6-1c-7.9,0.5-11.7,5.5-14.9,10.6c-4,6.2-9.4,10-15.3,13.8
	c-16,10.2-32.6,19.7-46.1,33.4c-6,6-13.6,9.3-20.9,13.2c-11.1,5.9-14,15.7-13.2,27.2c0.3,4.2,9.6,11.4,13.8,10
	c9.5-3.2,16.6,1.6,24,5.9c2.8,1.6,5.4,3.1,8.9,3.3c6.7,0.4,13.2,2,18.3,6.9c1.2,1.1,2.9,2.1,3.8,1.7c9.1-3.8,16.2,1.9,23.3,5.4
	c15.6,7.5,29.8,5.1,43.7-3.9c4.7-3.1,10.1-5.2,15.2-7.5c14.1-6.3,20.6-18.2,25.2-31.7c1-3,1.9-5.9,4.4-8.3c1.9-1.9,3.7-4,5.1-6.3
	c5.5-8.9,5.2-13.9-1.3-22c-2.2-2.7-3.7-5.6-5.1-8.9c-4.9-11.7-13.8-20.1-24-27.1c-5.7-3.9-11.9-7-16.5-12.6
	c-1.8-2.2-4.5-4.5-8.1-2.6"/>
<path class="st0" d="M273.9,442.1c-0.2,3.7-2.3,6.9-2,10.7c0.7,8.3,7,14.9,15.2,15.1c2.3,0.1,4.8,0.5,6.9-0.1
	c4.2-1.1,7.5-0.3,10.8,2.6c4.8,4.3,10.3,6.4,17,5.9c4.9-0.4,9.8,1.5,14.5,3.1c6.6,2.3,9.6,1.7,13.9-3.9c7.6-9.9,12.5-20.4,9-33.5
	c-2.4-9-2-18.7-7-27.2c-3.4-5.8-12.3-9.1-19.1-7c-4.7,1.4-8.6,4.2-13.2,5.9c-10.9,3.9-21.7,7.9-32.2,12.6c-5.5,2.5-9.7,6-11.4,12"/>
<path class="st0" d="M1440.2,128.9c3.5-2.2,7.6-1.3,11.4-2.4c6.5-2,8.6-5.8,4.9-11.4c-1.8-2.8-1.5-5.8-1-8.2
	c1.1-4.5-1.4-7.7-2.6-11.5c-1.2-3.8-4.1-3.8-6.4-3c-9.5,3.2-19.5,3.7-29.1,6.2c-2.2,0.6-4.3,1.7-6.4,2.3c-4.1,1.3-5.5,4.7-7.6,7.7
	c-3.3,4.8,1,6.3,3.2,9c1.2,1.5,2.4,3.4,1.3,5.6c-2.1,4.6,0.6,7.5,3.8,10.1c3.4,2.7,6.8,2.3,10.8,0.7c5.5-2.3,10.5-6.4,17-5.8"/>
<path class="st0" d="M1689.6,614.3c-5.5,0.9-10.5,3.9-16.4,3.3c-2.8-0.3-5.4,7-4.4,11.2c0.1,0.2,0.5,0.4,0.6,0.6
	c9,14.4,10.9,32.1,22,45.5c3.5,4.2,6.4,9,8.7,13.9c1.2,2.4,3,3.8,4.6,5.6c2.1,2.3,4.5,2.1,6.9,0.1c2.8-2.5,4.7-5.5,6.4-8.8
	c3.8-7.8,8.3-15.4,6.9-24.7c-0.3-2.1-0.1-4.2-1.2-6.4c-5.8-11.9-8.2-25.3-16.9-36.1c-3.5-4.4-5.6-7.7-11.7-5.1c-1.1,0.5-3.3,2-5,0.2
	"/>
<path class="st0" d="M922.4,128.3c-11.3,0.7-10.9,10.6-13,17.8c-1.2,4.4-1.4,9.8-3.2,13.6c-3.9,8.5,0.4,14.3,4.3,20.3
	c2.4,3.7,5.7,6.9,8.1,10.8c3.7,6.2,10.1,7.6,16.4,8.7c4.6,0.8,8-2.5,8.1-8.1c0.2-9.4,2.8-18.2,4.8-27.2c1.2-5.3,2.6-12.3-4.1-16.3
	c-1.9-1.1-2.9-2.9-3-4.5c-0.8-11.2-9.1-13.4-17.8-15.1"/>
<path class="st0" d="M919.8,121.4c4.6-0.9,9.3-1.1,13.9-2.5c5.7-1.6,7.7-3.6,6.9-8.9c-0.9-5.3-2.1-10.2-1.5-15.8
	c0.7-6.3-6.3-9.9-12.9-6.8c-4.9,2.3-9.7,4.4-15.2,5c-3.9,0.4-6,3.6-5,7.4c1.3,5.1,2.3,10.2,4.1,15.3c1.7,5,4.4,6.5,9.1,6.2"/>
<path class="st0" d="M694.9,304.1c5.9-4.6,10.7-10.5,17.6-14.1c2.5-1.3,6-3.3,4.7-8c-1.5-5.3-4.4-8.5-9.6-10.1
	c-8.7-2.8-23.6,5.2-27.2,13.9c-0.3,0.7-0.8,1.3-0.5,1.9c3.5,6.4,7.3,12.7,14.5,15.8"/>
<path class="st0" d="M1727.5,701.5c-9.4,1.9-13,9.1-8.8,17.7c5.6,11.5,8.1,12.2,18.3,4.4c6.3-4.8,6.6-6.2,1.9-13.2
	c-2.6-3.9-4.2-9.3-10.7-8.2"/>
<path class="st0" d="M1086.6,606.4c-1.8-4.1-5-7.2-7.7-10.7c-2.5-3.2-5.9-3.1-8.7-0.1c-3.9,4.2-7.9,8.1-13.2,10.8
	c-4.7,2.4-6.3,8-5.2,13.2c0.9,4,4.2,3.9,6.3,3c6.4-2.8,13.3-3.5,19.6-6.2c4.1-1.8,7.3-4.7,8.2-9.4"/>
<path class="st0" d="M1484.4,97.4c4.1-1.8,7.3-4.8,10.8-7.5c2.7-2.1,2.8-4.8,2.4-7.6c-0.6-4.3-3.7-7.9-3.4-12.7
	c0.1-1.9-2.9-3-5.4-2.5c-6.5,1.4-14.4,13.5-14,20.2c0.4,6,3.7,8.5,9,9.5"/>
<path class="st0" d="M1750.9,690.7c4.8,0.3,6.8-4.1,10-6.4c1.8-1.3,0.9-4-0.6-4.8c-3.6-2.1-7.4-3.7-11.3-5.1
	c-1.6-0.6-3.9-0.9-5.1,1.8c-1.3,3.1-3.7,5.9-1.8,9.5c1.7,3.3,4.5,5.2,8.2,5.7"/>
<path class="st0" d="M377.6,457.7c-4.7,4.4-7.3,15.3-5.1,20.9c1.8,4.7,6.1,5.8,10.2,6.8c3.3,0.9,4.5-2.3,6.3-4.3
	c1.4-1.6,0-3-0.1-4.4c-0.3-4.8-6.5-16.3-10.1-18.9"/>
<path class="st0" d="M903.4,124.5c-0.5-4.2-2-7.8-4.3-11.5c-2.1-3.3-5.1-4-7.6-2.8c-2.8,1.3-4,4.6-3.3,8c2,9.1,8,12,14.5,6.9"/>
<path class="st0" d="M1461.1,62c-7.4,4.4-9.2,9.5-5,13.9c0.6,0.6,1.6,0.9,2.5,1.3c10.1-7,10.9-10.8,3.2-15.2"/>
<path class="st0" d="M374.9,406.8c-8.9,5.8-10.3,9.9-6.9,20.2c1.1,3.4,1.5,7.1,4.2,10.7c4.3-4,11.7-2.7,14.8-9.4
	c1.2-2.7,1.7-4.6-0.1-7c-3.2-4.5-6.5-8.9-8.9-13.9c-0.5-1.1-1.6-0.5-2.5-0.6"/>
</svg>
