<svg id="Layer_1" data-name="Layer 1" xmlns="http://www.w3.org/2000/svg" viewBox="0 0 650 78"><defs><style>.cls-1{fill:none;stroke:#b3cadb;}</style></defs><title>doradztwo_title</title><path class="cls-1" d="M63.54,41l-.09,1.5-.09,2.12L63.1,46l-.62,2L62,49.44l-.53,1.32L61,52.17l-.53,1.5L59.92,55l-1,1.94-.71,1.15L57,59.5l-.88,1-1.5,1.41-1.94,1.94-1.15,1-1.68,1.32-1.15.71-1.77,1-1.15.53L43.85,69l-1.32.44-1.41.35-1.41.26-5.39.79L33,71,31,71.16H29.64l-2.83-.09-2.3-.18H23.1l-2.83.18-2.21.09-1.5.09-1.32-.09H9.06l-1.32-.09-3.8-.35-.71-.35-.44-.44-.18-1-.09-1.41.09-.71.18-2.65V62.94l.09-2V59.59L3,58.18V56.77l-.09-4.68V50.67L2.71,46l.09-1.32.09-1.94.18-1.32.09-1.5V38.49L3,36.19l-.09-1.5V33.9L2.8,32.4l.35-4.68V26.31l-.09-4.68V20.21L2.8,15.53V12.09l.09-1.41.26-1.32.18-1,.35-.53,1-.26,1.5-.18,1.32-.18,1.41-.09,7.77.09h1.41l4.24.26.71.09H24.6l3.71-.18,1.32-.09H31l2.21.18,2.83.18,1.41.18,2.3.35,1.41.26,1.32.35L45.7,10l1.32.62,1.32.71,1.24.71,2.91,2,1.15,1,1.06.88,1.94,1.85.88.88.79,1,.62,1.15,1,1.94L60.45,24l.44,1.41.53,1.41.44,1.41.35,1.41.35,1.94L62.83,33l.27,1.5.18,1.41L63.36,38l.09,1.41ZM43.41,48.55,44,47.23l.53-1.5.35-1.32.35-1.94.09-1.24.09-2V36.37L45.35,35l-.27-2-.35-1.32-.18-.53-.71-1.32-1.32-1.85-.44-.44-.88-1-1-1-1.06-.79-1.94-1.15L36,23l-1.24-.26-1.41-.27-2.21-.09-1.5-.09H27.43l-1.94-.09-1.32.09-1.94.26-1,.27-.44.44-.27,1.06-.09.79-.09,1.32.18,2.65.09,1.41.18,1.94L21,33.9l.09,1.41v1.41L21,38.67V42.9l-.09,1.5-.09,1.41-.18,1.94V49l-.09,2,.09,1.32.27,2.12.35,1,.53.44,1.06.09L31,55.44l2-.09,1.41-.26,1.5-.44,1.41-.53,1.32-.62,1.15-.79,1.59-1.41.88-1.06Z"/><path class="cls-1" d="M140.44,38.58,140.35,40l-.18,2L140,43.35,139.47,46l-.18,2-.18,1.32-.26,1.41-.35,1.32-.88,1.85L137,55.18l-2.38,4-.79,1.15-.88,1.15-.88,1-1.41,1.5-1,.88-1.15.88-1.06.79-1.59,1.06-1.15.71-1.32.71-1.24.53-1.77.71-1.32.35-2.83.88-1.5.44-1.41.35-1.5.35-1.5.26-1.5.09h-4.77l-3-.18-2.91-.35-1.24-.27-1.32-.35-4.77-1.59-1.41-.44-1.5-.62-2.83-1.24-1.32-.71-1.32-.79-1.15-.88-1.15-1-1.06-1.15-1-1.15-2.38-2.38-.88-1.06L74,57.65l-.71-1.15-.71-1.77-1.32-4-.53-1.85-.27-1.32-.26-1.41-.27-1.32-.26-1.94-.09-1.32-.09-1.5v-1.5l.09-1.5.09-1.59.18-1.5.27-1.5.35-1.5.44-1.5.44-1.32.53-1.41.62-2,.62-1.41.35-.79.71-1.32,1.24-1.94L76.25,18l.44-.71,1.06-1.06L79.26,15l1.15-.88,1.15-.79,2.65-1.77,1.15-.71,1.24-.71,1.24-.62,1.85-.79,1.24-.44,1.32-.44,1.32-.35,3.35-.62,1.32-.26,4.41-.53,2.83-.18,2.65.18,2.12.09,1.5.18,1.5.26,1.5.35,1.5.27,1.41.35,1.32.35,1.32.44,1.85.71,1.24.53,2.91,1.68,1.15.79,1.15.88,1.5,1.41,1,.88,1,1,.79,1.06L134.08,19l.71,1.15.62,1.15.71,1.15,1,1.77.71,1.15.62,1.32.44,1.24.44,2,.53,2.65.18,1.5.27,1.5ZM118.9,50.06l.79-1.24.88-1.94.53-1.32.44-2,.18-1.32.18-2.12v-1.5l-.09-1.5-.09-1.41L121.19,33l-.35-1.24-1-1.94-.71-1.15-1.24-1.59-.88-1-1.32-1.41-1-.79-2.3-1.32-1.24-.53-1.41-.44-1.41-.26-2.83-.18-1.32.09-1.94.09-1.32.26-2.3.62-1.41.53-2,1.06L94,24.63l-1.41,1.24-1,1.06-1,1.32-.71,1.15-.27.53-.79,1.85-.44,1.32-.27.62L87.91,35l-.18,1.24-.09,1.24-.09,1.32v1.32l.09,1.41.26,1.41.09.79L88.35,45l.18.62L89,46.88l.35.71L90,48.82l.44.71,1,1.24.53.62L93,52.44l1.77,1.5,1.24.79,1.41.71,1.32.53,1.85.62,1.32.26,2.21.26,1.5.09,2.21-.18,1.41-.18,1.94-.44,1.24-.53,1.94-1.24,1.06-.79,1.41-1.41.88-1Z"/><path class="cls-1" d="M208.25,70.8l-1.15.35h-6.18l-4.86-.09h-1.41l-4,.18h-1.15l-.79-.35-.71-.71-2.83-4-.79-1.06-2.83-3.8-.79-1.06-2.47-4.06-.79-1.06-2.83-3.8-.62-.71-.53-.26-1.06-.09-2.83-.18-1.15.09-.71.53-.26,1.15-.18,4.86.09,1.41.35,4.94.09,1.41.09,2.12v1.41l-.09,1.41-.18,1.06-.44.44-1,.26H164.9L160.66,71l-4.06.26h-1.41L151.13,71l-1.06-.18-.53-.35-.18-.88-.09-1.24L149.18,67l.18-2.3.09-1.41.35-4.77V57.12l-.26-4.77-.09-1.41-.09-4.68V44.85l.27-4.77V38.67l-.27-4.77V32.49l.27-4.77V26.31l.18-4.68V20.21l-.09-4.77V14l-.18-2.91.09-1.32.09-.53L150,8.12l.53-.71,1.06-.26.71-.09L153.6,7l4,.18,10.51.35,6-.35h1.41l5.83.35h3.35l1.5.09,1.32.26,1.85.53,1.32.44,1.32.53,1.41.53,1.32.62,1.15.71,1.68,1.15,1,.79.88.88.88,1.06,1.24,1.77.79,1.15,1.06,1.68.62,1.24.62,1.32.44,1.41.26,1.41.09,1.41.18,1.94v1.41l-.09,1.41-.18,1.5-.26,1.5-.35,1.41L204.19,37l-.62,1.32-.79,1.32L202,40.78l-.79,1.06-.79,1L199,44.23,198,45l-1.77,1-1.06.62-1.15.62-1.15.26-.71.26.35.71,3.18,4.5.79,1.06,3.18,4.33.88,1.06,3.18,4.41.88,1.06,2.74,3.18.79,1,.44,1Zm-26.75-34,1.94-.35,1.15-.44,1.06-.62.88-1.06.62-1.32.35-1.41.09-1.41-.09-1.5-.18-1.5L187,25.86l-.62-1.32-.79-1.06-1-.79-1.24-.53-1.94-.44L180,21.54l-4.42-.09h-1.41l-4.5.26-1.06.09-.62.26-.53.53-.09,1,.09,2,.18,1.41.18,1.5.09,1.5-.18,4.86.09,1,.18.53.62.26,1.06.18,4.59.35h1.41Z"/><path class="cls-1" d="M283.83,68.68l.26,1.24-.62,1-1,.44-1.15.18h-1.24l-2-.18-1.32-.09h-4l-5.47.35-1.15-.35-.53-.71-.44-1-2.74-7.42-.62-.88-.79-.18L260,61l-5.3-.35h-1.41l-6.62-.18-5.3-.09H240l-1.32.09h-4.06l-1.15.18-.71.44-.53,1.06-2,6-.53,1.41-1,1.15-1.32.53L226,71.16l-5.12-.26h-1.41l-5.47.35-1.15.09-1.06-.53-.71-1,.09-1.15.18-.71.53-1.41,1.24-2.74.53-1.32,2.21-4.94.53-1.24,2.3-4.94.53-1.32,2-4.77.53-1.32L224.14,39l.53-1.24,3.18-7.24,2.47-5.3.62-1.41,1.94-4,.62-1.41,1.68-4.06.53-1.32,1.59-3.62.44-1,.88-.53,1.32-.26L244,7.5h6.89l4.06.09,1.5.26,1,.71.44,1.15,1.24,3.44.53,1.32,2.21,4.15.53,1.24,1.94,4.33.53,1.24,1.59,4.5.53,1.24,1.94,4.24.53,1.24L271.38,41l.53,1.24,1.77,4.41.53,1.24,2.74,5.47,2.12,4.15.62,1.24,2.38,5.56Zm-29.49-24.9L254,42.64l-1.94-6-.44-1.32-1.77-5.21L249.39,29l-.88-.62-1.15-.26-1,.26-.88.88-2.38,6-.53,1.32-2.3,5.92L240,43.79l.26,1.06,1,.44,1.24.18h5.56l4.15.26,1.15-.35.71-.71Z"/><path class="cls-1" d="M354.37,41l-.09,1.5-.09,2.12L353.93,46l-.62,2-.44,1.41-.53,1.32-.53,1.41-.53,1.5L350.75,55l-1,1.94-.71,1.15-1.24,1.41-.88,1-1.5,1.41-1.94,1.94-1.15,1-1.68,1.32-1.15.71-1.77,1-1.15.53-1.94.71-1.32.44-1.41.35-1.41.26-5.39.79-1.32.09-1.94.18h-1.41l-2.83-.09-2.3-.18h-1.41l-2.83.18-2.21.09-1.5.09-1.32-.09H299.9l-1.32-.09-3.8-.35-.71-.35-.44-.44-.18-1-.09-1.41.09-.71.18-2.65V62.94l.09-2V59.59l.09-1.41V56.77l-.09-4.68V50.67L293.54,46l.09-1.32.09-1.94.18-1.32.09-1.5V38.49l-.18-2.3-.09-1.5V33.9l-.09-1.5.35-4.68V26.31l-.09-4.68V20.21l-.27-4.68V12.09l.09-1.41L294,9.35l.18-1,.35-.53,1-.26,1.5-.18,1.32-.18,1.41-.09,7.77.09h1.41l4.24.26.71.09h1.59l3.71-.18,1.32-.09h1.41l2.21.18,2.83.18,1.41.18,2.3.35,1.41.26,1.32.35L336.54,10l1.32.62,1.32.71,1.24.71,2.91,2,1.15,1,1.06.88,1.94,1.85.88.88.79,1,.62,1.15,1,1.94.53,1.32.44,1.41.53,1.41.44,1.41.35,1.41.35,1.94.27,1.41.26,1.5.18,1.41L354.2,38l.09,1.41Zm-20.13,7.59.62-1.32.53-1.5.35-1.32.35-1.94.09-1.24.09-2V36.37L336.18,35l-.26-2-.35-1.32-.18-.53-.71-1.32-1.32-1.85-.44-.44-.88-1-1-1L330,24.72l-1.94-1.15L326.83,23l-1.24-.26-1.41-.27L322,22.42l-1.5-.09h-2.21l-1.94-.09-1.32.09-1.94.26-1,.27-.44.44-.26,1.06-.09.79-.09,1.32.18,2.65.09,1.41.18,1.94.18,1.41.09,1.41v1.41l-.09,1.94V42.9l-.09,1.5-.09,1.41-.18,1.94V49l-.09,2,.09,1.32.26,2.12.35,1,.53.44,1.06.09,8.21-.53,2-.09,1.41-.26,1.5-.44,1.41-.53,1.32-.62,1.15-.79,1.59-1.41.88-1.06Z"/><path class="cls-1" d="M411.85,64.09l-.18,5.83L411.5,71l-.79.35-.71.09h-1.24l-3.35-.26h-1.32l-5.12.26L392.43,71H391l-5.12.26-1.41.09-5.12.09-1.41-.09-5.12-.26L371.42,71H366.3l-1.5.09-2.21.18-1.5.09h-1.32L359,71l-.18-1.06-.18-3.53v-.88l.35-.79,2.83-4,.79-1.24,2.65-4.15.71-1.24,2.83-4,.71-1.24L372,44.67l.71-1.24,2.74-4.15.71-1.24,3.53-5.12,3-4.06,3.62-5.21v-1l-1.06-.35L380.33,22h-1.41l-4.94.09h-1.41l-4.94.27h-3.27l-2.91-.18-1-.35-.35-1.06V20l-.09-1.5-.09-3V14.12l-.18-5.39.44-.88,1.15-.09,11-.35h1.41l4.86.09h1.41l4.77-.09h1.41l4.86.27,6.27-.35h1.41l6.27.35,4.77-.09,1.15.18.44,1v.62l.09,1.5-.09.79-.09,1-.53.79-2.74,4.06-3.53,5.12-.71,1.24-2.83,4L400.29,29l-2.38,4.24-.79,1.15-2.83,4-.79,1.15-3.27,5.3L387.57,49l-.71,1.15-2.74,4.06-.35.88.26.62,1,.26,1.5.09H388l9-.62h1.41l5.38.18h1.41l3.44-.27H410l.71.09.88.35.26,1.06Z"/><path class="cls-1" d="M471.63,14.39l-.09,1.32.09,2.65-.09,1.41-.09.71-.18,1.06-.26.62-.53.44-1.06.18H468l-2.65-.27-1.41-.09-4.06.26h-1.41l-2.21-.18h-1.32l-.62.09-.88.27-.35.53L453,24.54l-.35,5.21v1.41l.35,5.3-.09,1.41-.35,5.3-.09,1.41.18,5.21v8.12l-.18,5.21.09,1.32.44,4,.09,1.41-.26,1.06-.44.44-1.15.18-1.68-.09-2.21-.26-1.5-.09-4,.26h-1.41l-4-.26L435.43,71l-.53-.26-.18-1v-1.5l.26-3.71.09-1.41V56.5l.09-5.3V49.79l.09-5.21V43.17l-.35-5.3-.09-1.41V29.75l-.18-5.21V23.3l-.26-.71-.88-.18h-1.32l-2.83.18h-1.59l-2.38-.18-1.5-.09-1.5.09-2,.09H419l-.71-.09-1-.18-.53-.35-.35-.53-.18-.88v-.62l-.09-1.41.18-2.65V14.47l-.26-3.35.09-1.41.27-1.15.35-.62.53-.26.88-.18h2l3.27.27h1.41L430,7.41h1.41l5.21.44h1.41l6.53-.44,5.12.09h1.41l6.62-.09h6.53l2.91-.18,1.5.09.71.09,1.06.18.62.35.44.62.18,1.06v.62l.09,1.32Z"/><path class="cls-1" d="M575,8.82l-4.24,11.12-.53,1.32-1.5,4.94-.53,1.32-2.12,4.94-.44,1.32-1.41,4.94-.53,1.41-2.21,4.59L561,46.17l-1.41,5-.44,1.32-2.3,4.86-.44,1.32-1.59,4.94-.44,1.41L552.85,70l-.35.88-.44.44-.62.09-5.92-.18-6.89-.44-.88-.18-.44-.71-2.21-4.33-.44-1.24-1.59-4.59-.35-1.24L531.13,54l-.44-1.24-1.77-4.5-.53-1.24-1.59-4.41-.44-.79h-.26l-.35.79-1.59,4.5-.44,1.24-2.12,4.24-.44,1.24-1.41,4.68-.44,1.24-1.5,4.5-.53,1.24-1.68,4.41-.44,1-1,.44-5.47-.44H507.3l-5.47.44-.79-.44-.35-1.06-2.47-4.77-.44-1.32-1.24-5-.44-1.32-2.21-4.94-.53-1.32-1.85-4.77-.44-1.41-1.5-5-.44-1.32L484.7,27.45l-.53-1.32-1.59-4.94L482,19.77l-2.21-4.59-.62-1.32-2-5L477,7.77l.53-.62,1-.27h1.32l3.44.27h1.41l6.09.09h4.77l1.15.09.35.35.18.88,2,5.83.44,1.32,1.77,5.65.44,1.32,2.3,5.3.44,1.32,1.77,5.39.26,1.41,1.06,5.56.35.79.53.09.53-.71,1.5-4.5.44-1.24,1.15-4.68.35-1.32,1.32-4.33.35-1.32,1.5-4.59.35-1.24L517.54,14,518,12.8,519.3,9l.35-1,.44-.44,1-.18,4.41-.35L526.81,7l1.94.09h1.32l1.32.09.88.35.53.88.26.71.53,1.24,1,2.47L535,14l1.32,4.59.35,1.24,1.41,4.59.35,1.24,1.06,4.68L540,31.6l2.12,4.33.35,1.24.26,2,.26,1.41.35,1.33.53.71.53-.09.44-1,1.06-5.12.35-1.32.71-1.85.44-1.32.71-1.94.44-1.41.88-4.15.44-1.41,1.5-4,.53-1.32,1.68-4,.44-1.32.88-3.35L555.24,8l.53-.62,1.06-.18,4.68.35h1.41l4.77-.26h1.41l4.68.35h1l.35.26Z"/><path class="cls-1" d="M646.71,38.58,646.62,40l-.18,2-.18,1.32L645.74,46l-.18,2-.18,1.32-.27,1.41-.35,1.32-.88,1.85-.62,1.24-2.38,4-.79,1.15-.88,1.15-.88,1-1.41,1.5-1,.88-1.15.88-1.06.79-1.59,1.06-1.15.71-1.32.71-1.24.53-1.77.71-1.32.35-2.83.88-1.5.44-1.41.35-1.5.35-1.5.26-1.5.09h-4.77l-3-.18-2.91-.35-1.24-.27-1.32-.35-4.77-1.59-1.41-.44-1.5-.62-2.83-1.24L590,67.18l-1.32-.79-1.15-.88-1.15-1-1.06-1.15-1-1.15L582,59.85l-.88-1.06-.88-1.15-.71-1.15-.71-1.77-1.32-4L577,48.91l-.26-1.32-.27-1.41-.26-1.32-.26-1.94-.09-1.32-.09-1.5v-1.5l.09-1.5.09-1.59.18-1.5.26-1.5.35-1.5.44-1.5.44-1.32.53-1.41.62-2,.62-1.41.35-.79.71-1.32,1.24-1.94.88-1.24.44-.71L584,16.24l1.5-1.24,1.15-.88,1.15-.79,2.65-1.77,1.15-.71,1.24-.71,1.24-.62,1.85-.79,1.24-.44,1.32-.44,1.32-.35,3.35-.62,1.32-.26,4.42-.53,2.83-.18,2.65.18,2.12.09,1.5.18,1.5.26L621,7l1.5.27,1.41.35,1.32.35,1.32.44,1.85.71,1.24.53,2.91,1.68,1.15.79,1.15.88,1.5,1.41,1,.88,1,1,.79,1.06L640.35,19l.71,1.15.62,1.15.71,1.15,1,1.77.71,1.15.62,1.32.44,1.24.44,2,.53,2.65.18,1.5.26,1.5ZM625.17,50.06l.79-1.24.88-1.94.53-1.32.44-2L628,42.2l.18-2.12v-1.5l-.09-1.5L628,35.66,627.46,33l-.35-1.24-1-1.94-.71-1.15L624.2,27.1l-.88-1L622,24.72l-1-.79-2.29-1.32-1.24-.53-1.41-.44-1.41-.26-2.83-.18-1.32.09-1.94.09-1.32.26-2.29.62-1.41.53-2,1.06-1.24.79-1.41,1.24-1,1.06-1,1.32-.71,1.15-.26.53-.79,1.85-.44,1.32-.26.62L594.18,35,594,36.19l-.09,1.24-.09,1.32v1.32l.09,1.41.26,1.41.09.79.35,1.32.18.62.44,1.24.35.71.71,1.24.44.71,1,1.24.53.62,1.06,1.06,1.77,1.5,1.24.79,1.41.71L605,56l1.85.62,1.33.26,2.21.26,1.5.09,2.21-.18,1.41-.18,1.94-.44,1.24-.53,1.94-1.24,1.06-.79,1.41-1.41.88-1Z"/></svg>