<svg id="Layer_2" data-name="Layer 2" xmlns="http://www.w3.org/2000/svg" viewBox="0 0 1948.28 1201.89">
  <defs><style>.cls-1{fill:none;stroke:#b3cadb;stroke-miterlimit:10;}</style></defs>
  <title>globe</title>
  <path class="cls-1" d="M1574.95,309.36C1306.69,369,1131.86,502.14,1009.77,605.14c-176.15,148.6-236.54,262.91-224.32,318.7"/>
  <path class="cls-1" d="M743.68,832.3s-35-124.74,150.75-287.53c176.28-154.52,460.41-262.92,680.52-235.41"/>
  <path class="cls-1" d="M716.28,742.71c-8-56.17,5.73-229.28,262.53-366.85s504.42-102,596.14-66.49"/>
  <path class="cls-1" d="M709.79,626.83c0-116.89,96-301.41,360.85-369.05s437.82,24.07,504.31,51.59"/>
  <path class="cls-1" d="M730.25,523.74C741.06,459,835.51,246.31,1093.45,206.19s424.17,71,481.49,103.18"/>
  <path class="cls-1" d="M792.43,389.59c21.87-80.23,246-287.73,525.72-205.19,79.66,23.51,159.9,50.35,256.8,125"/>
  <path class="cls-1" d="M832.07,990.33c31.53-75.66,375.47-392,526.21-523.91,110.06-96.3,140.44-113.22,216.67-157.06"/>
  <path class="cls-1" d="M900.86,1054.53c103.94-36.69,267.13-238.71,373-347,109.47-112,301.13-398.19,301.13-398.19"/>
  <path class="cls-1" d="M982.63,1112.62s129.47-9.21,340.1-285.84C1552,525.65,1574.95,309.36,1574.95,309.36"/>
  <path class="cls-1" d="M1059.83,1143.19s145.94,47,360.74-259.85c171.2-244.57,154.38-481.49,154.38-574"/>
  <path class="cls-1" d="M1197.68,1167.65s228.6,8.86,369.62-373c45.4-122.91,55.79-373.51,7.64-485.32"/>
  <path class="cls-1" d="M1278.79,1167.66s219,0,343.11-341.79c66.85-184.06-26.32-482.41-47-516.51"/>
  <path class="cls-1" d="M1502.15,1089.42c116.37-77.31,237.89-219.08,218.78-439.57-13.8-159.3-146-340.49-146-340.49s149.42,190.41,106.66,460.29c-29,183.24-161.69,343-280.76,369"/>
  <path class="cls-1" d="M883.11,278.64c123.64-142.3,390.27-142.38,504.75-105.89,143.51,45.75,248,149.79,297.19,248.15,98.23,196.41,36.68,452.9-26.35,506.5"/>
  <path class="cls-1" d="M1502.15,227.79s-66.26-25.26-39.91,49.37,104.3,117,104.3,117,64.57,36.35,83.31,15.29-25.85-82-25.85-82"/>
  <path class="cls-1" d="M1397.88,176.07s-85.45-14.22-54.63,82.08,122.53,177.31,122.53,177.31,72.54,73.37,150.35,101.65,101.19-39.1,88.49-70.84"/>
  <path class="cls-1" d="M1241.72,151.72c-17.52,10.12-100.58,44,30.57,234.84,139.48,193,283.34,258.33,283.34,258.33s108.55,49.3,158.51,14.52c16-9.25,22.36-16.43,22.36-34.37"/>
  <path class="cls-1" d="M1267.79,152.36c59.64,12.32,93,24,148,47.56,159.29,68.29,246.77,204.61,283.72,304.33,27.61,74.52,34.52,102.8,37,122.57"/>
  <path class="cls-1" d="M1112.12,162.2s-112.33,65.39,32.71,290.09S1525,780.92,1525,780.92s161.16,59.23,206.07-32.15"/>
  <path class="cls-1" d="M992.79,197.56s-109.51,101.1,38,331.15,345.45,333.23,345.45,333.23,129.66,69.55,230.29,56.56c51-3.82,71.21-22.16,75.08-34.63"/>
  <path class="cls-1" d="M883.11,277.16c-9.36,21-47.55,106.42,52.14,339.44,78.37,183.2,268.26,310.8,268.26,310.8s114.1,62.93,198.6,81.27c101.72,22.08,199.16-.76,199.16-.76"/>
  <path class="cls-1" d="M792.43,389.59s-11.72,196.8,80.63,348.92C953.69,871.32,1045,949.24,1045,949.24s111.18,102.23,248.71,129.75,208.45,10.43,208.45,10.43"/>
  <path class="cls-1" d="M728.8,529.72C714.71,529.72,764,785,883.86,920.11c119.26,134.42,175.32,148.35,186.78,155.23s73.69,44.06,167.26,63.27,150.11,3.82,162.95,0"/>
  <path class="cls-1" d="M709.79,626.83s-11.46,138.81,113.11,297,269,210.18,269,210.18,94.39,35.19,186.87,33.65"/>
  <path class="cls-1" d="M716.28,742.71s36.3,183.43,158.59,287.37,190,125.34,322.81,137.57"/></svg>
