<?xml version="1.0" encoding="utf-8"?>
<!-- Generator: Adobe Illustrator 21.0.2, SVG Export Plug-In . SVG Version: 6.00 Build 0)  -->
<svg version="1.1" id="Layer_1" xmlns="http://www.w3.org/2000/svg" xmlns:xlink="http://www.w3.org/1999/xlink" x="0px" y="0px"
	 viewBox="0 0 548 342" style="enable-background:new 0 0 548 342;" xml:space="preserve">
<style type="text/css">
	.st0{fill:none;stroke:#B3CADB;stroke-linecap:round;stroke-linejoin:round;}
</style>
<title>handwriting</title>
<path class="st0" d="M435.6,67.1c-6.4,3.6-76.4,40-82.8,43.9c-10.6,6.4-21.6,12.2-32.3,18.4c-20.9,12.1-41.8,24.4-62.6,36.6
	c-10.5,6.1-21.3,12-31.6,18.4c-16.6,10.3-33.7,19.9-50.4,29.9c-4.2,2.5-9,4.1-12.7,7.2c-6.9,5.7-15.5,5.1-23.4,7.1
	c-4.7,1.1-9.4,1.9-14,3.4c-12.6,4.2-12.6,4.1-23.3,12.7c-4.4,3.6-8.8,7.3-13.2,10.8c-0.7,0.7-1.2,1.5-1.3,2.5
	c-1.8,6.9-2,11.8,4,16.8c1.8,1.5,2.3,3.8,4,5.5c8,8,16.8,7.1,22.3-2.8c1.3-2.3,3.7-1.8,5.6-2.1c5.2-1,10.5,0.1,15.8-0.4
	c3.5-0.3,7.4,1.7,10.9,3.2c3.8,1.6,7.8,2.2,11.6,3.7c2.3,0.9,5.8-1,8.6-0.3c2,0.6,4.1,0.6,6.1,0.1c16.9-4.8,34.3-7.4,51.2-12.4
	c8.8-2.6,17.4-5.9,26.5-7.5c8.1-1.4,16.2-3.1,24.3-4.6c6.7-1.2,13.8-1.1,20.6-2.1c10-1.6,19.9-4.2,29.4-7.8
	c8.9-3.4,17.1-8,25.4-12.6c11.3-6.2,23.2-10.1,36.3-10.6c7.9-0.3,15.8-1.2,23.6-1.9c11-0.9,21.8,0.5,32.7,1.9c4,0.5,8.1,0.6,12,1.3
	c1.4,0.3,1.1-0.6,1.6-1"/>
<path class="st0" d="M114.1,235.1c1.1-3.8,3.2-6.5,7.1-7.9s7.3-4.2,11-6.3c6.7-3.8,13.3-7.8,19.8-11.8c6.2-3.7,12.6-7,18.6-11
	c10.4-6.9,21.4-12.6,32.2-18.8s21.5-13,32.4-19.3s21.7-13,32.8-19.2c9.1-5.1,17.9-10.9,27-16.3c10.9-6.4,21.9-12.7,32.8-19.1
	c3.7-2.2,7.6-4.2,11.1-6.7c8.2-5.7,51.7-30.8,82.6-48.5c11.9-6.8,25.5,9,14.2,16.6"/>
<path class="st0" d="M341.1,96.3c-2.7-2.5-6-3.8-9.3-5.3c-11.5-5.1-23.1-9.9-34.7-14.7c-8.3-3.4-16.7-6.7-25-10.2s-16.7-7.1-25-10.7
	c-7.4-3.3-14.3-7.6-21.6-11c-7.9-3.6-21.2-2.1-28.3,5.5c-6.7,7.2-13.8,14-22.7,18.4c-9.1,4.5-17.8,9.6-26.3,15.3
	c-3.5,2.4-6.9,5.1-10.1,7.9c-0.6,0.4-1,1.1-1.1,1.9"/>
<path class="st0" d="M370,102.8c3,2.9,7,3.9,10.7,5.4c7.9,3.1,15.9,6.1,24.4,7.4c13.3,1.9,26.6,1.3,39.9,0.6
	c9.9-0.5,19.6-2.9,29.5-3.9c11.9-1.3,23.7-3,35.5-4.8c5.2-0.8,10.5,0,15.7,0.4c1,0.1,1.6,0.3,2-0.7"/>
<path class="st0" d="M76.5,252.9c-2.4,1.5-4.8,3.2-7.3,4.4c-5.8,2.9-10.2,7.4-14.8,11.8c-4.1,3.9-8.3,7.6-12.7,11.1
	c-0.9,0.5-1.5,1.6-1.3,2.7c2.6,0.2,5.1-0.3,7.5-1.3c5.2-2.6,10.9-3.5,16.3-5.2c6.5-2.1,12.8-4.8,18.7-8.1c1.1-0.6,2.3-1.1,3.5-1.6"
	/>
<path class="st0" d="M95.5,119.4c-2.8,0.2-4.4,2.1-5.8,4.3c-3.3,5-4.5,11.1-3.3,17c1.4,6.6,0.9,13.5-1.4,19.8
	c-1.5,3.9-3.5,7.6-4.4,11.6c-1.7,7.6-3.4,15.1-3.7,23c-0.3,8.4-1.6,16.8-1.6,25.2c0,4.1-0.4,16.3,0.3,12.1c0.4-2-0.9,4.9-1.4,10
	c-0.3,3-0.5,6.2,1.8,8.7"/>
<path class="st0" d="M139.3,273.6c-2.3-6-7.1-10.1-11.9-14c-3.1-2.5-7.2-2.3-11.1-2.2c-5.7,0-11.5-0.3-16,3.5
	c-5.6,4.7-7.5,7.9-4.1,14.3"/>
<path class="st0" d="M160.2,224.4c3.2,1.6,5.9,0.2,8.6-1.6c4.1-2.6,8.9-3.9,13.7-3.8c11.4,0.2,22-2.7,31.2-9.8
	c0.8-0.6,1.4-1.4,2.2-2.1c4.4-3.7,4.7-6.9,2.3-11.4c-0.7-1.4-1.6-2.6-2.4-4"/>
<path class="st0" d="M135.5,168c5.6-0.6,11.3-0.4,16.8-1.5c9.3-1.9,16.8-7.1,23.9-13c3.3-2.7,4.7-6.8,7.5-9.8"/>
<path class="st0" d="M127,276c2.2,6.3,5.8,12,8.9,17.8c3.3,6.2,13.4,7.2,19.1,2c4.1-3.6,6.1-8.4,7.2-13.6"/>
<path class="st0" d="M122.3,157.1c5.3,1.8,9.7,5.6,12.3,10.5c1.8,3.4,1.6,7.4,0.5,11.1c-2.3,7.7-4.9,15.3-7.4,22.9
	c-0.4,0.9-0.8,1.7-1.4,2.4"/>
<path class="st0" d="M155.7,193.9c5.5-2.2,9.8-6,13.5-10.3c2.9-3.4,5.1-7.3,6.4-11.5c0.5-1.6,0.3-3.5,1.9-4.8
	c0.6-0.6,0.6-1.6-0.1-2.2c0,0,0,0,0,0c-1.8-1.6-1.6-4-2.3-6"/>
<path class="st0" d="M82.6,216.1c3.7,5.1,3.4,10.7,2.1,16.4c-1.7,7-4.2,13.6-8.7,19.3c2.6,2.4,6,3.7,9.6,3.6c0.9-0.2,1.9,0,2.7,0.5"
	/>
<path class="st0" d="M85.2,162.1c1.4,5.4,0.9,11,1,16.5c-0.1,4.8,0.3,9.6,1.2,14.4c0.6,3,3,5.6,5,8.1"/>
<path class="st0" d="M173.8,195.3c-0.9-2.4-0.5-5,1.1-7c1.5-2.3,3.1-4.5,4.9-6.6c3.4-3.6,6-4.2,10.1-1.7c1.6,1,3.7,1.4,4.6,3.4"/>
<path class="st0" d="M179.2,151.6c8.4,4.3,17.1,6.1,26.4,3.3c0.1,0,0.4,0.2,0.5,0.3"/>
<path class="st0" d="M231.1,142.1c-3.4,6.3-7.8,12.1-9.4,19.3c-0.2,1.1-0.5,2.1-0.8,3.2"/>
<path class="st0" d="M125.4,204.2c1-0.1,1,0.2,0.8,1.2c-0.6,5-2.7,9.6-4.3,14.2c-0.8,2.4-2.4,4.7-2.2,7.4"/>
<path class="st0" d="M99.5,126.1c-0.6-1.9-2-3.3-2.9-5c-1.2-2.3-0.7-4.8,1.5-5.7c13-5.3,24.9-12.7,36.6-20.3
	c1.9-1.2,3.7-0.8,5.4-1.5c11.3-4.4,23-7.4,34.4-11.3c5.5-1.9,10.2-5.6,15.2-8.6c3.9-2.3,7.8-4.3,11.9-6.2c11.2-5.1,20.9-4,28.2,1.5"
	/>
<path class="st0" d="M93.7,275.9c1.4-0.5,2.9-0.5,4.2,0.2c3.1,1.2,6.4,0.7,9.7,0.3c3-0.4,6-0.6,8.9-1c0.8-0.3,1.7,0.1,2.1,0.9"/>
<path class="st0" d="M219.9,203.5c1.4,0.6,1.9-0.4,2.6-1.4c3.1-4.2,6.2-8.3,9.3-12.4"/>
<path class="st0" d="M107,205.9c6,0.8,12.1,1.8,17.8-1.3"/>
<path class="st0" d="M218.4,129.6c-0.8,3.5-2.9,6.5-5.8,8.6c-2.8,2-2.3,5.4-3.6,8.1c-3.8,8.1-3.3,16.5-1.4,25"/>
<path class="st0" d="M87.3,194.1c-1.1,0.2-0.8,1.3-1,1.9c-0.6,1.4-0.5,3.2-1.3,4.4c-2.9,4.4-1.9,9.6-3,14.3
	c-1,4.3-6.1,11.7-6.1,20.3"/>
<path class="st0" d="M178.1,166.6c3.5,0.9,5.6,4.1,9.1,5c1.2,0.3,2.3,0.8,3.5,0.2"/>
<path class="st0" d="M102.2,114.6c4.6,2.6,6.3,6.6,5.9,11.8c0,0.5,0.4,1,0.6,1.4"/>
<path class="st0" d="M133.8,276.2c0.3,0.8,0.7,1.7,1.1,2.5c1.8,3.5,1.6,7.7-0.6,11"/>
<path class="st0" d="M67.3,259.5c0.3,3.8,2.1,7.2,4.9,9.8c0.8,0.8,1.5,1.7,2.1,2.6"/>
<path class="st0" d="M141.4,179.1c1.2,0.7,2.6,1.3,3.1,2.9c1.5,4.5,5,7.6,8.6,10.3c2.6,1.9,2.9,4.1,2.9,6.9
	c-0.1,2.2-0.3,4.4-0.6,6.6"/>
<path class="st0" d="M177.9,167.5c1.2,2.9,3.8,4.7,5.8,6.9c0.9,0.9,1.7,1.8,2.3,2.9"/>
<path class="st0" d="M94.1,208.2c3.2,2,6.7,3.6,9.6,5.9"/>
<path class="st0" d="M177.9,159.9c3.7,0.7,7.1,2.8,11.1,2.1"/>
<path class="st0" d="M88.1,128.9c1.3,0.5,1.3,1.8,1.6,2.8c1.1,2.8,2.6,5.4,4.6,7.7"/>
<path class="st0" d="M151.1,185c2.6-0.9,3.4,1.3,4.1,2.8c0.6,1.7,1.1,3.4,1.4,5.1"/>
<path class="st0" d="M85.5,201.1c2.4,1.3,4.1,3.4,6,5.3"/>
<path class="st0" d="M177.9,261.5c1.8,2.2,1.9,5,2.9,7.5"/>
<path class="st0" d="M224.2,187.1c0.3,2.3,0.7,4.7-1.5,6.4"/>
<path class="st0" d="M88,147.3c2-0.2,2.6,2.3,4.5,2.3"/>
<path class="st0" d="M164.4,274.8c1.1,1.5,2,3.3,2.5,5.1"/>
<path class="st0" d="M183.6,274.2c0.6,1.5,0.4,3.1-0.4,4.5"/>
<path class="st0" d="M170.2,187l3.7,2.1"/>
<path class="st0" d="M147.4,181.4c3.8,3.1,3.9,3.3,2.6,7.3"/>
</svg>
