<svg class="kra" id="kra-6"  x="0px" y="0px"
	 viewBox="0 0 277.5 549" style="enable-background:new 0 0 277.5 549;" >
	<path class="st0" d="M269.3,430.1c-1.1-3.6-2.2-7.2-4-10.4c-3.7-6.5-5.4-13.4-5.8-21.2c-2.9-16-6-32.5-8.8-48.9
		c-2.4-14.2-4.4-22.5-10.8-35.4c-1.4-3.3-1.8-11-2-14c-0.3-5.7-1.2-11.4-1.9-17c-0.6-5.5-1.1-11-1.7-16.5c-0.6-5.5-0.7-11.6-2.1-17
		c-1-3.8-3.5-6.9-4.7-10.6c-1.6-4.9-1.6-9.9-2-15c-0.4-4.3-0.6-8-2.7-11.8c-2.8-5.2-2.6-6-5.2-11.4c-0.5-1.1-1.4-3.1-1.5-6
		c0-0.9,0-2,0-3.5c0.2-3.8-1.1-8.6-3.6-13.1c-3.4-6.2-5.2-13-6.1-20c-0.7-5-2.3-9.6-4.5-14.2c-9.6-20-21.8-38.6-31.5-58.6
		c-1.5-3.1-3.4-6.1-5.4-9c-6.8-9.7-18.7-13.5-29.5-9c-3.7,1.6-7.2,1.6-11,1.2c-4.8-0.5-6.1,0.3-10.2,2.8c-3.3,1.8-5.7,5.4-6.8,6.3
		c-2.5,2-5.3,3.9-7.3,6.4c-1.8,2.2-2.6,5.1-3.5,7.8c-1.4,4.5-3.4,8.1-5.7,12.2c-2.3,4.2-3.7,8.7-6.4,12.7c-2,3-3.8,5.9-4.9,9.5
		c-1.4,4.9-1.9,9-5.2,13.2c-2.5,3.2-5.6,5.9-7.9,9.2c-2.1,3-3,6.6-4.6,9.9c-1.7,3.5-3.6,7.2-4.3,11c-1.5,8.4,1,17,1.6,25.4
		c0.4,5.1,0.5,10.2,1.2,15.2c0.3,2.1,0.9,4.3,0.8,6.4c0,2.4-0.9,4.7-1.1,7.1c-0.2,3.6,0.4,6.7-0.3,10.3c-0.4,2.1-1.2,4.2-1.6,6.3
		c-0.2-0.2-0.2,4.8-0.1,5.2c1.4,4,0.4,8.6,0.8,12.5c0.5,4.3,1.3,7.9-0.7,11.9c-3.3,6.6-5.3,14-6,21.3c-0.4,3.9-1.8,7.6-2.1,11.5
		c-0.3,3.7,0.5,7.5,0.9,11.2c0.5,4.6,1.2,9.2,1.5,13.8c0.2,2.3-0.1,4.9,0.9,7c1.4,2.8,4.6,4.4,6.2,7.2c1.6,2.8,1.4,7.2,2.5,10.3
		c1.5,4.2,3.5,12,8.1,14c1.3,0.6,3.1,0,4.5,0.5c2.2,0.8,3.2,2.9,4.2,4.8c1.7,3,4.1,5.2,5.9,8.1c4.3,7,8.6,17.6,8,21.8
		c-1.7,5.1-3,10.4-4.7,15.5c-1,3-0.7,4.9,0.6,7.6c4,8,9.6,15.2,12.2,23.9c1.9,6.4,5.4,11.6,10.3,16.2c2.9,2.7,5.8,5.9,7.2,9.5
		c3.2,8.4,9.5,14.5,14.2,21.8c2.7,4.2,5.6,8.7,9.5,11.4c6.4,4.4,12.5,8.9,18,14.4c1.6,1.7,3.5,1.1,5.6,0.4
		c5.6-1.8,10.1-5.4,14.6-8.9c2.4-1.8,4.8-4.1,7.9-3.8c5,0.4,8.6-2.2,12.1-5c7.3-5.6,14.7-11.3,21.6-17.4c5.2-4.6,11-8.6,14-15.4
		c1.5-3.4,4.4-6,7.9-7.7c4.7-2.3,9.3-4.8,13.9-7.2C267.8,451.4,272.5,440.7,269.3,430.1z"/>
	<path class="st0" d="M83.2,391.5c0.2,0.7,1.2,2.6,0.8,4.1c-1.6,7.7-2.9,15.6-5.7,22.9c-1.4,3.6-5.6,6.2-9.4,8.1
		c-6.9,3.4-12.3,8.2-15.8,15.2c-2.9,5.9-4.3,6.4-9,5.4c-8.1-1.7-11-4.5-11.6-10.4c-0.5-4.8,1.4-9.3,1.4-14c0-5.2,0.6-10.4,1.6-15.5
		c1.7-8.8,6.9-14.7,15.8-16.9c5.4-1.3,10-4.4,15.1-6.4C72.4,381.8,79.9,384.8,83.2,391.5z"/>
	<path class="st0" d="M47.9,515c-2.4-6.8-3.8-13.6,2.1-19.8c1.4-1.4,3-2.8,3.8-4.6c3.2-6.8,8.2-8.5,15.4-7.1
		c6.8,1.3,13.9,1.4,20.8,2.4c9.7,1.5,15.2,9.8,12.7,19.1c-0.7,2.6-1.3,5.3-2,8c-1.4,5.1-3.2,9.6-8.1,12.9
		c-4.9,3.3-7.9,8.9-13.5,11.7c-5.2,2.6-5,2.6-9.4-1.6c-5.2-5-9.8-10.5-16.2-14.2C50.9,520.3,48.1,518.8,47.9,515z"/>
	<path class="st0" d="M131.4,29.7c0.6,3.8,0.6,6.9-2.2,9.5c-2.4,2.2-4.3,4.9-7.2,6.5c-5.5,3-10.4,6.7-15.2,10.8
		c-6,5.3-12.8,3.3-15.1-4.3c-2-6.5-4.4-12.7-9.7-17.3c-3-2.6-2.7-5.7-0.4-8.6c5.4-6.5,10.7-13.1,17.9-17.8c1.8-1.2,3.4-1.6,5.6-1.2
		c8.6,1.5,15.4,5.5,20.4,12.7C127.8,23.3,130,26.6,131.4,29.7z"/>
	<path class="st1" d="M75.9,90c-9.7,2.8-14.4,1.2-20.1-6.3c-1.1-1.5-1.9-3-1.5-4.8c1.6-7.3,2.2-14.8,5.2-21.8
		C63,49,66.1,48,73.8,52.8c3.5,2.2,6.1,4.9,7.7,8.8c1.2,3,2.8,5.8,4.3,8.7c5,9.7,2.8,15.2-7.6,19C77.3,89.6,76.3,89.9,75.9,90z"/>
	<path class="st1" d="M86.8,445.5c2,2.8,2.7,5.7,3.7,8.5c2.9,8.2,0.9,15-5.3,21c-2.1,2-4,2.6-6.6,1.3c-2.4-1.2-4.7-2.8-7.6-3
		c-10.6-0.8-16-11-12.8-20.7c1.6-4.8,2.8-10,7.4-13.4c8.6-6.4,15.4-5,20.3,4.6C86.3,444.4,86.6,445.1,86.8,445.5z"/>
	<path class="st1" d="M42.1,490c-7.4,3.9-10,3.1-13.1-4.5c-3.3-7.9-3.2-7.9,3.2-13.7c2.6-2.3,4.5-5.3,7.7-7c2.6-1.4,4.4-1.1,6.6,1
		C54.6,473.2,55.3,483.8,42.1,490z"/>
	<path class="st1" d="M30.3,507.4c4.5,10.4,3.9,11.1-7.5,12.9c-4.3,0.7-7.4-1.1-10.3-3.1c-4.3-3-4-7.3-0.1-11c2.1-1.9,4.2-3.5,7-4.2
		C24.5,500.7,28.2,502.6,30.3,507.4z"/>
</svg>
