<svg id="Layer_1" data-name="Layer 1"
  xmlns="http://www.w3.org/2000/svg"
  viewBox="0 0 36 36">
  <defs>
    <style>.cls-1{fill:#eacc4e;}</style>
  </defs><title>pen</title>
  <rect class="cls-1" x="14.33" y="4.63" width="5.51" height="21.66" transform="translate(16.15 -7.57) rotate(45.55)"/>
  <path class="cls-1" d="M26,1.14h4.33A1.26,1.26,0,0,1,31.58,2.4V5.47a1.26,1.26,0,0,1-1.26,1.26H26a0,0,0,0,1,0,0V1.14A0,0,0,0,1,26,1.14Z" transform="translate(5.65 21.5) rotate(-45)"/>
  <rect class="cls-1" x="25.32" y="3.95" width="1.11" height="5.79" transform="translate(2.74 20.3) rotate(-45)"/>
  <polygon class="cls-1" points="5.2 27.1 7.01 21.49 10.95 25.43 5.2 27.1"/>
  <path class="cls-1" d="M3.62,28.36c-2.85,5,5.31,8.65,8.32,4.3,1.29-1.87,1.64-4,3.76-5.32,2.67-1.61,5.24-.37,7,1.81s2.71,5.88,5.85,6.32c.63.09.9-.87.27-1-2.78-.4-3.82-4.15-5.41-6.07s-3.31-3.13-5.88-2.8a7,7,0,0,0-5,3.54c-.75,1.22-1.07,2.58-2.17,3.55-2.39,2.09-8.15-.06-6-3.87a.5.5,0,0,0-.86-.5Z"/></svg>
