<svg id="Layer_1" data-name="Layer 1" xmlns="http://www.w3.org/2000/svg" viewBox="0 0 627 78"><defs><style>.cls-1{fill:none;stroke:#b3cadb;}</style></defs><title>publikacje-title</title><path class="cls-1" d="M61.62,30.22l.09,1.35-.09,1.35-.09,1.53-.45,2.25-.27,1.44L60.09,40l-.54,1.26-.9,1.71-.81,1.17-1.26,1.71-1,1.08L54.41,48l-1.17,1-1.17.81-1.26.81-2,.9-1.35.63-1.53.63-1.35.45-2,.54L41.26,54l-1.35.18-1.44.09-2.34.18H28.56L27,54.37l-1.53.09L24,54.64l-1.08.18-.27.63-.09,1.17-.36,6V64.1l.09,2.7-.09,1.35-.09,2-.18,1-.27.54-.45.18-1,.18-2.88.18L13.78,72H12.34l-2.88.18L8,72.11,5.95,72l-1.17-.36-.54-.54L4.05,70l-.18-1.35-.09-1.44V57.61l.36-4.77V51.39l-.36-4.78V45.18l-.18-11V32.75L4,27.88V26.44l-.27-4.77V20.22l.36-4.77V14.1l-.18-2.7L4,10l.09-.72.18-1,.27-.54L5,7.34l1-.09,2.61-.18,2.07.09H12l6-.09h6l6,.36H36l3.42-.18,1.26.09h.72l1.35.27,2.07.54,1.44.45,1.44.54,1.35.63,1.35.81,1.17.9,1.62,1.44,1.08.9.45.54L56.4,16l.9,1.17.45.54.63,1.08.36.54.54,1.17.45,1.35.36,1.26.09.63L60.54,25l.18.72L61.08,27l.54,2.52ZM34.68,39.05l1.62-.18,1.53-.36.72-.27,1.26-.72.54-.36.9-.9.36-.54.63-1.17.27-.63.36-1.44.09-.63V29.59l-.27-1.35-.27-.72-.54-1.17-.36-.54-1-1.08-.72-.45-1.35-.72-2.34-.63-1.44-.18H32.61l-2.7.18-4-.27H24.59l-.72.09-1,.18-.36.27-.27.63-.18,1.08V27l.27,3.33.09,1.44L22.52,37l.09,1.08.27.63,1,.36,4.68.36Z"/><path class="cls-1" d="M130.18,40.4l.18,2.88-.09,1.35-.09,2.07L130,48.06l-.36,2.16-.27,1.44L129,53.74l-.36,1.35L127.92,57l-.45,1.26-.81,1.89L126,61.39l-1.17,1.8-.9,1.17-1.08,1.17-1.17,1L119.91,68l-1.17.81-1.8,1.08-1.17.63-1.89.9-1.35.45-2,.72-1.35.36-2.07.36-1.35.27-2.79.18H98.83l-2.07-.18-1.35-.09-5-.54L89,72.65l-.81-.09-1.44-.45L86,71.84l-1.44-.63-2-.9-1.35-.81-1.35-.9-2.34-2-1-1L75.4,64.1,74.59,63l-1.44-2.34-.81-1.26-.72-1.35L71,56.62l-.54-1.35L70.09,54l-.36-1.35-.36-2-.27-1.53-.18-1.53-.18-3.06-.09-1.44.27-5.5V36.17l-.18-5.5V29.23l.27-5.5V15.36l-.18-2.88V10.94l.09-1.53L69.19,8l.63-.81L71,6.89l3-.18L77.38,7h1.44l3-.09L83.15,7l2.07.09,1.17.27.72.72.27,1.17.09,1.26v1.35l-.18,3.51V16.8l.27,5.5v1.44l-.09,5.5v1.44l-.27,5.5v1.44l-.09,5.5.09,1.44.18,2.25.27,1.44.54,2,.54,1.35.9,2.07.9,1.08L92,56.26l1.17.72,2,.72,1.35.36,2.34.18h1.44l2.34-.45,1.35-.36,1.71-.81,1.17-.72,1.44-1.26.9-1.08,1-1.89.63-1.35.45-1.44.27-1.44.36-2.7.09-1.44-.36-5.5V36.35l.27-5.59V29.32l.18-5.5V22.39l-.18-5.59-.09-1.44-.27-3.78V9.32l.36-1.26.81-.72,1.17-.27h1.89l4.59.36h1.44l3.6-.27h1.44l1.35.09,1.17.27.72.63.09,1.08.09,2.7v1.35l-.09,2.07V16.8l.27,5.59v1.44l-.18,5.5v1.44l-.36,5.59Z"/><path class="cls-1" d="M201.07,52.29,201,53.74l-.18,2.34-.27,1.35-.63,1.89-.54,1.26-.9,1.71-.81,1.17-1.44,1.71-1,1L193,67.79l-1.17.72-1.26.63-1.35.63-1.44.45-1.35.45-4.05.81-2.07.27-1.44.09-2.16.18h-1.44l-5,.18h-7.84l-5-.27h-1.44l-5,.18h-1.35L146.21,72l-1.44-.18-1.26-.18-.72-.27-.45-.45-.18-1-.09-1.26.09-1.35V65.9l.09-.72V63.65l.27-4.78-.09-1.44-.09-2.25-.09-1.35-.09-1.26V51.21l.09-2.25V45l.36-4.78V38.78L142.43,34V32.56l-.09-4.77.09-1.44.27-4.77.09-1.44-.36-4.77-.09-1.44-.27-2.7V9.14L142.43,8l.9-.54,1.26-.18L146,7.16l9.82-.27,7.84.45,4.86-.18H170l5,.09h1.44l5.23.36,1.53.18,1.53.27,3.42,1.08,1.35.63,1.71.9,1.17.81,1.53,1.26.9,1L196,15.27l.63,1.17,1,1.71.54,1.26.45,1.35.27,1.44.36,2.34.09,1.44-.09,1.53L199,29.05l-.54,2.07-.54,1.26-1,1.71-.9,1-1.44,1.35-.72.72-.27.63.27.72.81.9,1.08,1,1.08,1.17,1.35,1.89.81,1.35.63,1.44L200,47l.45,1.44L200.8,50l.18,1.53Zm-41-24.59.09.72.09,1.44.18,1,.36.54.72.36,1.08.09h3.6l1.53-.09h1.53l2.07.18,3.06.18h2l1.17-.27,1.08-.54.9-.63.63-.72.54-.9.27-1.26V26.26l-.27-1.17-.81-1.17-1.26-.9-.54-.18-1.35-.36-.63-.09-1.53-.18h-.81l-3.51-.45h-1.35l-2.25.09-1.44.09h-1.89l-.9.18-.81.09-.54.27-.36.45-.27,1.17-.27,2.16Zm20.72,29,.72-.63.36-.54.63-1.35.27-1.44.09-.54-.09-1.26-.27-1.26-.72-1.26-.54-.63-1.17-1.17-1.44-.81-1.35-.45-.63-.18-1.26-.09-4.05.18-1.53.09H164.5l-1.35.09-1.62.27-.81.27-.27.45-.09,1.08v1.53l.09,1.44v2L160.26,54v1.8l.18,1,.36.54.63.36,1.17.18,12.7-.27,3.06-.18,1.44-.27Z"/><path class="cls-1" d="M261.07,67.88,261,69.32v.81l-.27,1.08-.54.63-.63.27-.9.18h-.72l-1.26.09-10-.54H239.9l-8.11.54L226.57,72H219.9l-4.14.27H214.4l-1.26-.09-1-.18-.63-.36-.45-.54L210.89,70V68.6l.45-3.42.09-1.35-.36-4.77V57.61l.18-4.77V51.39l.18-11V39l-.36-11V26.53L211,21.75V14.1l-.18-2.7V10l.09-.81.27-1.17.36-.54.63-.27,1-.18h.72L215.21,7l4.41.27h1.44l6.4-.09h.9l.63.36.45.63V16l.18,5.23v1.44l-.27,5.22v1.44l.18,5.23V36l.27,5.22v1.44l-.54,11.89.09.9.09.45.18.45.45.36,1.08.18,3.06.18,2.7-.18h1.44l13-.18,1.44-.09,3.06-.36,1.44-.09h1.35l1.08.27.63.54.27.63.09,1,.09,5,.09,1.44Z"/><path class="cls-1" d="M289.35,57.79v1.44L289,64.1v1.44l-.09,5v1l-.27.45-.72.27-1.26.09-4.59-.09h-5.58l-4.5-.36-.54-.18-.27-.27v-.9L271,68.24V66.8l-.09-1.35V64.1l-.27-4.87.09-1.44.27-4.86.09-1.44-.27-5V45.09l-.09-4.87V32.47l-.09-5V26.08l.09-4.86V13.47l-.18-5,.27-1,.54-.36.9-.09H273L274.31,7l2.16.09h1.44l4.14-.18h5.58l1,.18.18.54.09,1,.18,2.34.09,1.44v8.83l.09,4.86v1.44l-.09,5v1.44l.09,4.86v1.44l-.18,4.87v7.84Z"/><path class="cls-1" d="M361,70.31l.45.81-.27.45-.27.54-.63.36h-1.17l-4.86-.36h-1.44L347.1,72h-1.44l-5.77.27-1.08-.09-.81-.63-3.15-3.51L334,67l-2.79-4-.81-1-3.51-3.51-.9-1.08-3-3.51-.72-1-.45-.81-.63-.27-.54.36-.18,1.17v6.22l-.18,4.87V65.9l.09,2.16v1.35l-.09,1.35-.09.9-.45.36-1.08.18-2.79.18h-2.79L309,72l-1.44.09-4.5.36-.72-.27-.36-.54-.09-.81-.09-1.26V68.15l.09-2.25.09-1.53-.36-4.87V53.19l.09-1.44.27-5,.09-1.44V39.05l-.18-4.86V32.75l.18-5V26.35l-.18-11.17V13.74l.27-4.86.09-1.08.27-.45.9-.18,1.35.09,2.79.27H309l4.14-.36h1.44l4.14.27,1,.09.45.27.27.72.09.9-.09,1.17-.27,3L320.07,15l.27,4.77v1.44l.09,4.77.18,1,.72.18,1-.63,2.79-3.87L330,16.8l2.79-3.87.9-1.08,3.15-3.6.72-.72.9-.18,4.14-.27H344l5.5.36,3.42.09h1.44l3.42-.09,1,.09.45.36.18.18-.09.27-.72.81-3.42,3.78-.9,1.08-3.15,4.14-.9,1.08-3.51,3.87-.9,1.08-3.33,4-.9,1.08-3.24,4-1,1.08-2.25,2.07-1,1.08-.45.54-.45.72.18.54L334,40l3.33,4.41,1,1.08,4,4,.9,1.08,3.51,4.32.9,1.08,3.69,4.14.9,1.08,3.87,4.05.9,1.08Z"/><path class="cls-1" d="M439.17,69.59l.27,1.26-.63,1-1,.45-1.17.18h-1.26l-2.07-.18L432,72.2h-4.05l-5.59.36-1.17-.36-.54-.72-.45-1-2.79-7.57-.63-.9-.81-.18-1.08-.09-5.4-.36H408l-6.76-.18-5.41-.09h-1.35l-1.35.09H389l-1.17.18-.72.45-.54,1.08-2.07,6.13-.54,1.44-1,1.17-1.35.54-1.44-.09-5.22-.27h-1.44l-5.59.36-1.17.09-1.08-.54-.72-1,.09-1.17.18-.72.54-1.44L367,64.64l.54-1.35,2.25-5,.54-1.26,2.34-5,.54-1.35,2.07-4.86.54-1.35,2.43-5,.54-1.26,3.24-7.39,2.52-5.41.63-1.44,2-4.05.63-1.44,1.71-4.14.54-1.35,1.62-3.69.45-1,.9-.54,1.35-.27,4.14-.18h7l4.14.09,1.53.27,1,.72.45,1.17,1.26,3.51.54,1.35,2.25,4.23.54,1.26,2,4.41.54,1.26L421.42,30,422,31.3l2,4.32.54,1.26,2,4.42.54,1.26,1.8,4.5.54,1.26,2.79,5.58,2.16,4.23.63,1.26,2.43,5.68Zm-30.09-25.4L408.72,43l-2-6.13-.45-1.35-1.8-5.31L404,29.05l-.9-.63L402,28.15l-1,.27-.9.9-2.43,6.13-.54,1.35-2.34,6-.27,1.35.27,1.08,1,.45,1.26.18h5.68l4.23.27,1.17-.36.72-.72Z"/><path class="cls-1" d="M500.16,63.92l-.72.72-1.62,1.44-1.08.81L495,68.15l-1.08.72-1.8,1-1.17.63-2.07,1-1.35.45-1.53.45-1.53.27-2.25.45-3.15.36-1.62.09-2.25.18h-4.68L469,73.64l-1.53-.18-1.53-.27-1.53-.36L463,72.38,459,71.3l-2-.72L455.83,70l-1.71-1L453,68.24l-1.17-.81-1.26-.81-2.34-2-1.08-1.08-1-1.17-1-1.35-.81-1.26-.72-1.26L443,57.25l-.9-1.89-1.35-3.78-.63-1.8-.9-2.7-.18-1.35L439,43.65l.09-1.35.09-1.44V39.32l.18-3.06.09-1.44.27-1.35.36-2,.36-1.35.45-1.35.45-1.26.63-1.8.63-1.26.63-1.35.72-1.35.81-1.35.81-1.26.9-1.17,1-1.26,1.08-1.17,1.08-1,1.17-1,1.08-.9,2.88-2,1.17-.72,1.26-.72L459.89,8l1.53-.54L462.86,7l3.06-.72L467.46,6,469,5.81l2.79-.18,2-.18,1.35.09,2,.09,3.33.45,1.26.27,2.07.36,3.15.9,1.26.54,2,1.17,1.26.72,2.34,1.62,2.79,2,1,.72.54.45.63.63.18.72-.09.72-.54.72-.81,1-1,1-1,.9-1,.81-1,1L492,24.1l-1,1.08-.45.45-.81.72-.63.27-.63.09-.63-.18-1-.54-1.71-1.26-1.17-.63-2-.9-1.26-.45-2-.54-1.35-.27-2.25-.18h-1.44l-2,.18-1.44.36-2,.63-1.35.54-1.17.45-1.8.9-1.26.9-.63.54L461,27.43l-.81,1.26-.63,1.17-.63,1.26-.54,1.35-.45,1.44-.27,1.53-.18,1.35-.18,2.7v1.44l.09,2.25.09,1.35.45,2.07.45,1.35L459,49.5l.72,1.35,1.35,2,1,1.08,1.71,1.44,1.17.81,1.8.9,1.35.54,2,.54,1.44.27,2.16.09h2.07l1.26-.27.72-.18,1.35-.45,2.25-.81,1.44-.63,1.35-.63,1.17-.63L487,53.83l1.17-.9.9-.63.54-.18.81.18,1,.63,1,.9.36.54.9,1,1.44,1.8.9,1.08L498.45,61l.81,1.08.45.45.45.81Z"/><path class="cls-1" d="M559,37.61l-.09,1.44.18,4.59v1.53l-.18,3.06-.27,2.25-.27,1.35-.54,2.07-.45,1.26-.63,1.89-.63,1.35-.72,1.35-.81,1.35-1.35,1.71-.9,1.17L551,65.45l-1,1-1.53,1.35-1.08.81-1.71,1.08-1.17.72-1.89.9-1.26.54-2.07.63-1.26.36-2.07.36-1.35.27-2.25.18-3.06.18-1.53-.09-2.07-.09L521.06,73l-3.33-.72-3.15-1-3.24-1.17-1.71-.9-1.17-.72-1.62-1.26-1-.9-1.35-1.53-.81-1-1.08-1.71L502,60.94l-.9-1.89-.45-1.35-.9-2.88-.36-2.25-.27-1.44L499,49.05l-.09-1.53V46l.36-1.17,1-.36,1.35-.09h4.05l4.05.18,1.44-.09,2.7-.27,1.44-.09,1.08.54.45,1,.09,1.17.09.63.27,1.26.63,2.07.54,1.26.63,1.17.9,1.17,1.71,1.53,1.26.81,1.35.63,1.44.36,2.16.27,1.35-.09,2.7-.54,1.26-.45,1.26-.63,1.26-.72,1.71-1.44,1-1.08.81-1.35.54-1.35.45-2,.18-1.35.09-2.07V43.56l.09-5.41V36.71l.09-5.5V29.77l.09-5.41.09-1.26-.72-.36L536,23h-1.44l-4.05-.27h-1.44l-2.88.27h-1.26l-1.08-.45-.54-1.08v-.54l-.09-1.35.27-3.78V14.37l-.27-4.23.09-1.35.54-1,1.08-.36h1.89l3.6.18h1.44l5.4-.45,1.44-.09,5.32.18h8.29l4.14-.18h1.35l.9.27.36.54.09,1,.09,1.26.09,1.35.09,2.07L559.34,15l-.27,4.5v1.44l.27,4.59.09,1.44.09,4.59L559.43,33Z"/><path class="cls-1" d="M623.39,63.65l-.09,1.44L622.94,70l-.09.9-.36.63-.45.36-11.8.36H608.8L604,71.84l-1.44.09-4.68.36-1.44.09h-6.22L585.56,72h-1.44l-7.75.45-3.06-.18-1.08-.18-.63-.45-.27-.63-.18-1L571,68l-.09-1.44.09-1.35V63.83l.36-4.77V57.61l.09-4.77-.09-1.44-.27-4.78L571,45.18l.18-4.86V32.66l.36-4.77-.09-1.44-.27-4.77-.09-1.44V18.06l.18-2.7V14l.27-4.68.09-1.26.27-.72.45-.36.72-.09,1.17-.18,5.86.36,5.5-.09H587l5.41.36h1.44L599.25,7h1.44l12.25.18,1.53-.09,3.06-.27h2.25l1.26.27.54.45.18.63L622,9.32v2.43L621.77,14v1.53l.09,2.25.09,1.35-.09,1.35-.18,1.08-.36.63-.45.36-1.08.18h-.72l-1.44.09-8.47-.18h-1.44l-4.59.18h-1.44L597,22.66l-4.05-.27h-1.35l-.72.09-.9.18-.45.45-.09.54-.18,1-.18,2.16v1.44l.09,1.53.09,1,.18.63.36.45,1,.27,2.88.18,2.88-.18h8.56l10.09-.54,2.79.18,1,.18.54.45.27.54.09,1,.18,1.53.09,1.53v3l.18,2.07-.18,2.7L620,45.81l-.36.63-.63.45-.9.18h-1.8l-4.05-.45-1.44-.09-7.21.45-5.77-.18h-1.44l-3.6-.27-1.53.09-1.08.09-.45.27-.27.63L589.34,49l-.27,2.25L589,52.65v2l.09.9.27.63.36.36,1,.09,5,.18h1.44l4.86-.36,6.4.36h1.44l6.4-.36h1.35l1.35.09,3.24.36.54.27.36.54.09,1Z"/></svg>