<svg id="Layer_1" data-name="Layer 1" xmlns="http://www.w3.org/2000/svg" viewBox="0 0 405 78"><defs><style>.cls-1{fill:none;stroke:#b3cadb;}</style></defs><title>secgen-title</title><path class="cls-1" d="M60.23,53.49,60.13,55,60,56.58,59.68,58l-.46,2-.46,1.27-.83,1.82-.64,1.18-1.1,1.64L55.26,67l-1.1,1.09-1.1,1L51.22,70.3l-1.2.82-1.38.73-1.29.64-2.11.73-2.76.91L41,74.39l-2.3.36-1.38.18-2,.18L34,75.21l-2.12.09-4.41.27h-2l-1.29-.09-2.11-.18-1.38-.18-1.56-.27-1.38-.46-2-.64-1.29-.64-1.38-.64-1.29-.64-1.2-.73-2.94-2-1.1-.91L4.87,66.94,3.77,66l-1-1L2,64.21l-.09-.64.46-.82.37-.45.92-1,2.57-2.36.83-1,1.56-2.36.83-1,.92-1,1-.54,1,.18,1,.73,2.94,2,1.38.73L19,57.3l2.11,1,1.38.46,1.47.45,1.47.27,2.11.09,1.47.09,5.79-.36,1.47-.18.74-.18,1.38-.55,1.2-.73.92-.91.46-.64.55-1.36-.09-1.54-.18-.73-.74-1.27-.46-.54-1.2-.91-.74-.27-1.38-.54-1.56-.36-1.56-.27-8.73-.82-2.76-.54-1.47-.36-2-.73-1.38-.46-1.38-.64-3.13-1.54-1.2-.82-1.38-.82L9,40.76,7.45,39.49l-.83-1.18-.83-1.36-.55-1.36L4.6,33.67l-.28-1.36-.28-2L3.86,27.4,4,25.95l.18-2.18.28-1.36.37-1.18.46-1.36.92-2,.64-1.27.74-1.09.92-1,1.47-1.36,1.2-.91,1.2-.82,1.29-.64,1.75-1,2.76-1.09,1.38-.45,2.11-.36,1.47-.27,2.76-.36,2-.36,1.47-.18,1.38-.09h1.47l2.76.27L36.32,7l.64.18,1.47.18L41.56,8l1.56.36,1.47.45,1.56.45,1.47.55,1.38.64,1.38.55,1.75,1,1.29.64,1.2.82.83.82v.91l-.55,1-1,1.82L53.15,19l-3.49,4.54-1,1.27-1.1.91L46.8,26l-.64-.09-.92-.45-1.38-.82-1.38-.54-.64-.27-1.38-.45-.74-.18-1.56-.36L36,22.4l-1.47-.09-2.39-.18H29.79l-1.56.09-1.56.27-1.47.45-.55.27-1.1.82-.46.54-.64,1.27-.18,1.45.28,1.18.74,1.18,1,.91,1.1.55.64.27,1.38.27,2.3.27,3.13.18,1.56.27,3.13.73,2.94.91,2.11.45,1.38.36,2.57.91,1.84.82,1.29.64,1.29.73,1.2.73,2.67,2.18,1,1.09L56.73,43l1.1,1.64.74,1.18.64,1.36.37,1.36.37,2,.18,1.36Z"/><path class="cls-1" d="M123.58,65.3l-.09,1.45-.37,4.91-.09.91-.37.64-.46.36-12,.36h-1.47l-4.87-.36-1.47.09L97.56,74l-1.47.09H89.74L85,73.75H83.49l-7.91.45L72.46,74l-1.1-.18-.64-.45-.28-.64-.18-1-.18-2.09L70,68.21l.09-1.36V65.48l.37-4.82V59.21l.09-4.82-.09-1.45-.28-4.82-.09-1.45.18-4.91V34l.37-4.82-.09-1.45-.28-4.82-.09-1.45V19.31l.18-2.73V15.22l.28-4.73.09-1.27L71,8.5l.46-.36L72.18,8l1.2-.18,6,.36L85,8.14h1.47L92,8.5h1.47l5.52-.36h1.47l12.5.18,1.56-.09L117.6,8h2.3l1.29.27.55.45.18.64.18,1.18V13l-.18,2.27v1.55L122,19l.09,1.36L122,21.77l-.18,1.09-.37.64-.46.36-1.1.18h-.74l-1.47.09-8.64-.18h-1.47l-4.69.18h-1.47l-4.78-.18-4.14-.27H91.12l-.74.09-.92.18L89,24.4l-.09.55-.18,1-.18,2.18v1.45l.09,1.54.09,1,.18.64.37.45,1,.27,2.94.18,2.94-.18h8.73l10.3-.54,2.85.18,1,.18.55.45.28.55.09,1,.18,1.54.09,1.54v3l.18,2.09-.18,2.73-.18,1.09-.37.64-.64.45-.92.18h-1.84l-4.14-.46L110.71,48l-7.36.46-5.88-.18H96L92.32,48l-1.56.09-1.1.09-.46.27-.28.64-.09,1.36-.28,2.27-.09,1.45v2l.09.91.28.64.37.36,1,.09,5.06.18h1.47l5-.36,6.53.36h1.47l6.53-.36h1.38l1.38.09,3.31.36.55.27.37.54.09,1Z"/><path class="cls-1" d="M193,65.57l-.74.73-1.66,1.45-1.1.82-1.75,1.27-1.1.73-1.84,1-1.2.64-2.11,1-1.38.45-1.56.45-1.56.27-2.3.46-3.22.36-1.65.09-2.3.18h-4.78l-1.56-.09-1.56-.18-1.56-.27-1.56-.36-1.38-.45L151,73l-2-.73-1.2-.54-1.75-1-1.1-.82-1.2-.82-1.29-.82-2.39-2-1.1-1.09-1-1.18-1-1.36-.83-1.27-.74-1.27-.64-1.27-.92-1.91-1.38-3.82-.64-1.82-.92-2.73-.18-1.36-.09-2.09.09-1.36.09-1.45V40.76l.18-3.09.09-1.45.28-1.36.37-2,.37-1.36.46-1.36.46-1.27L133.6,27l.64-1.27.64-1.36.74-1.36.83-1.36.83-1.27.92-1.18,1-1.27,1.1-1.18,1.1-1,1.2-1,1.1-.91,2.94-2,1.2-.73,1.29-.73,2.76-1.27,1.56-.55,1.47-.45,3.13-.73,1.56-.27L161.19,7,164,6.77l2-.18,1.38.09,2,.09,3.4.45,1.29.27,2.11.36,3.22.91,1.29.55,2,1.18,1.29.73,2.39,1.64,2.85,2,1,.73.55.45.64.64.18.73-.09.73-.55.73-.83,1-1,1-1,.91-1,.82-1,1-1.56,1.82-1,1.09-.46.45-.83.73-.64.27-.64.09-.64-.18-1-.55L177.65,26l-1.2-.64-2-.91L173.14,24l-2-.55-1.38-.27-2.3-.18H166l-2,.18-1.47.36-2,.64-1.38.54-1.2.45-1.84.91-1.29.91-.64.54L153,28.77,152.18,30l-.64,1.18-.64,1.27-.55,1.36-.46,1.45-.28,1.54-.18,1.36-.18,2.73V42.4l.09,2.27.09,1.36.46,2.09.46,1.36L151,51l.74,1.36,1.38,2,1,1.09,1.75,1.45,1.2.82,1.84.91,1.38.54,2,.54,1.47.27,2.21.09h2.12l1.29-.27.74-.18,1.38-.45,2.3-.82,1.47-.64,1.38-.64,1.2-.64,1.75-1.09,1.2-.91.92-.64.55-.18.83.18,1,.64,1,.91.37.55.92,1,1.47,1.82.92,1.09,2.48,2.82.83,1.09.46.45L193,65Z"/><path class="cls-1" d="M260.86,36.58l.09,1.54L260.59,44v8.54l-.18,3.82v5.36l-.09,1-.55.91L259,64.85,258.2,66l-1.56,1.54-1.1,1-.55.55-1.2.82-.64.36-1.2.73-1.84.91-1.38.54-1.29.45-2.12.64-1.38.36-1.47.27-1.38.27-2.11.27-1.29.18-1.38.27-3.68.45-1.38.09-2.85-.18-2.11-.18-1.47-.18-1.47-.27L222,74.57l-3.22-.91-1.38-.36L216,72.84l-1.84-.64-1.2-.64-1.84-1-1.1-.82-1.2-.82-1.1-.91-1.1-.82-1-.91-1.47-1.45-.92-1.09-1-1.36-.83-1.27L199.07,57l-.64-1.45-.64-1.36-.46-1.45-.46-1.55-.28-1.45-.28-1.54-.18-1.45-.37-2-.18-1.45-.09-1.36V40.58l.28-4.09.18-.73.28-1.54.37-1.55.46-1.45.46-1.54.46-1.45.46-1.36.64-1.45.64-1.54.64-1.27,1.2-1.64.83-1.09,1-1.18,1-1.09,1.1-1,2.39-2,1.2-.91,1.1-.82,1.1-.73,3-1.73,1.38-.82L217.28,9l1.56-.45,1.47-.36,3.4-.55,2.67-.36L227.76,7l1.38-.18,2.11-.18,1.47-.09,2,.18,1.38.09,2.11.27,1.29.27,2,.36,1.38.36,2,.64,1.38.45,3.31,1.64,1.38.82,1.2.82.46.27,1,.64,1,.73.46.45,1,.73.55.45.55.64V17l-.28.64-.55.82-.83,1.18-.92,1-2.57,2.54-1.66,1.45-1.1.91-1,.73-.74.55-.55.36-.74.09-1-.64-1.2-.82-1.2-.73-1.29-.73-1.47-.64-1.47-.55-1.56-.36-1.56-.27-4.32-.27h-.64l-1.47.09-2.39.18-1.47.36-2.76,1.27-1.2.82-1.2.91-1,1L218.2,28l-.83,1.18-.74,1.27-.55,1.36-.46,1.45-.37,1.36-.55,2.73-.28,1.45-.09,1.55v1.54l.18,2.18.28,1.45.46,2.09.46,1.45.92,2.18.64,1.27,1.1,1.64.92,1.09L221,56.85l1.2.91,1.84,1,1.38.54,2.76.64,1.56.18,1.56.09h1.47L234.2,60l1.38-.27,5-1.18L242,58l1.38-.64.92-.64.28-.54v-1l.09-.82V53l-.18-2.73V48.76l-.37-.55-1-.18h-2.21l-1.47.09-2.11.27-1.47.09h-2.11l-1.47-.09-3.13-.54-.55-.18-.37-.45L228,46.13l-.09-.73-.09-1.45.09-2.27-.18-2.73-.18-1.36V35.67l.28-1,.46-.45,1.1-.18,2.3-.27,1.56-.09h4.23l6-.27,7.36.45h1.47l3.77-.45,1.47-.09.74.09,1.38.27.64.36.18.55.28,1.27Z"/><path class="cls-1" d="M325.32,65.3l-.09,1.45-.37,4.91-.09.91-.37.64-.46.36-12,.36h-1.47l-4.87-.36-1.47.09L299.3,74l-1.47.09h-6.34l-4.78-.36h-1.47l-7.91.45L274.19,74l-1.1-.18-.64-.45-.28-.64-.18-1-.18-2.09-.09-1.45.09-1.36V65.48l.37-4.82V59.21l.09-4.82-.09-1.45-.28-4.82-.09-1.45.18-4.91V34l.37-4.82-.09-1.45L272,22.95l-.09-1.45V19.31l.18-2.73V15.22l.28-4.73.09-1.27.28-.73.46-.36.74-.09,1.2-.18,6,.36,5.61-.09h1.47l5.52.36h1.47l5.52-.36h1.47l12.5.18,1.56-.09L319.34,8h2.3l1.29.27.55.45.18.64.18,1.18V13l-.18,2.27v1.55l.09,2.27.09,1.36-.09,1.36-.18,1.09-.37.64-.46.36-1.1.18h-.74l-1.47.09-8.64-.18h-1.47l-4.69.18h-1.47l-4.78-.18-4.14-.27h-1.38l-.74.09-.92.18-.46.45-.09.55-.18,1-.18,2.18v1.45l.09,1.54.09,1,.18.64.37.45,1,.27,2.94.18,2.94-.18h8.74l10.3-.54,2.85.18,1,.18.55.45.28.55.09,1,.18,1.54L322,38.4v3l.18,2.09L322,46.22l-.18,1.09-.37.64-.64.45-.92.18h-1.84l-4.14-.46L312.45,48l-7.36.46-5.88-.18h-1.47L294.06,48l-1.56.09-1.1.09-.46.27-.28.64-.09,1.36-.28,2.27-.09,1.45v2l.09.91.28.64.37.36,1,.09,5.06.18h1.47l5-.36,6.53.36h1.47L318,58h1.38l1.38.09,3.31.36.55.27.37.54.09,1Z"/><path class="cls-1" d="M398.51,22.5l-.09,1.45V37.4l.28,5.27v1.45l.18,12v1.54l-.09.73-.09,1.54-.28,4.36.09,5.27-.09,1.27-.37,1.09-.74,1-.92.64-.83.27-1.29.09-4.69.18-1.47.09-2.3.09h-1.47l-1.2-.27-1.1-.45-1.1-.82-.83-1.18-1.38-2.63-.83-1.18-3.59-4.45-.92-1.09-3.59-4.36L369,56.67l-3.22-4.73-.83-1.09-3.59-4.36-.92-1.09L357,40.94l-.83-.73-.64.27-.28,1.09-.18,4.54v1.45l.09,4.54v1.45l.09,5.09v1.45L355,65.21l.09,1.45.55,3.64.09,1.45-.28,1.18-.64.64-.64.18-1.1.18-.74.09-1.56.09L346.56,74h-1.47l-3.77.18h-1.47l-1.38-.09-1-.18-.74-.45-.37-.64-.18-.91-.09-.64V69.94l.18-3,.09-1.45-.28-4.82V59.21l.18-11.09.09-1.45.28-4.82.09-1.45V34.13l-.37-4.82V27.86l.37-4.82-.09-1.45-.37-4.91-.09-1.45V13.13l.09-1.36.18-1.36.18-1,.28-.64.55-.27,1-.18,2.76-.18,2.76.18h6.9l1.1.09.46.36.55.82,3.86,4.09.92,1.09,3.4,4.36.92,1.09,3.4,4.45.92,1.09,3.31,4.54.83,1.09,3.49,4.36.92,1.09,3.31,4.54L379,42l.74.09.64-.45v-1l-.64-3.82-.09-1.45.28-3.91V30l-.37-5.54V23l.37-5.54L379.85,16l-.28-3.36V10.41l.28-1.18.37-.73.64-.36L382,8h.83l1.56-.09,4.14.27H390L393.09,8l1.38.09,2.11.09,1,.18.64.27.55.64L399,10.5l.09.82.09,1.54L399,15.68l-.18,1.45Z"/></svg>