<?xml version="1.0" encoding="UTF-8"?>
<svg xmlns="http://www.w3.org/2000/svg" width="152.068" height="37.735" viewBox="0 0 152.068 37.735">
  <g id="Group_19" data-name="Group 19" transform="translate(-713.526 -72.109)">
    <path id="Path_84" data-name="Path 84" d="M875.77,76.612h-.107c-1.126-2.144-3.591-4.5-8.094-4.5-5.95,0-11.685,4.985-11.685,13.775,0,7.183,4.609,12.65,11.042,12.65a9.262,9.262,0,0,0,8.254-4.341h.107v2.894c0,6.54-3.538,9.059-8.361,9.059a14.631,14.631,0,0,1-7.611-2.037l-1.179,3.591a16.743,16.743,0,0,0,8.63,2.144c3.27,0,6.914-.75,9.434-3.109,2.519-2.251,3.7-5.9,3.7-11.846V79.828c0-3.163.107-5.253.214-7.129h-4.127ZM875.234,87.6a8.2,8.2,0,0,1-.375,2.519,6.9,6.9,0,0,1-6.539,4.824c-5.092,0-7.665-4.234-7.665-9.326,0-6,3.216-9.809,7.719-9.809a6.8,6.8,0,0,1,6.593,4.985,6.718,6.718,0,0,1,.268,2.144Z" transform="translate(-71.067 0)" fill="#b3cadb"></path>
    <path id="Path_85" data-name="Path 85" d="M720.437,87.064c3.484,1.287,4.824,2.519,4.824,4.771a3.548,3.548,0,0,1-.641,2.091h4.787a7.72,7.72,0,0,0,.41-2.519c0-3.86-2.3-6.111-6.807-7.827-3.377-1.286-4.931-2.251-4.931-4.394,0-1.93,1.555-3.538,4.341-3.538a10.1,10.1,0,0,1,5.307,1.5l1.179-3.431a12.952,12.952,0,0,0-6.378-1.608c-5.575,0-8.951,3.431-8.951,7.612,0,3.109,2.2,5.682,6.861,7.343" transform="translate(-0.05 0)" fill="#b3cadb"></path>
    <path id="Path_86" data-name="Path 86" d="M762.191,93.926c-1.975-1.415-3.287-3.814-3.347-7.4h18.224a17.781,17.781,0,0,0,.161-2.2c0-4.77-2.251-12.221-10.72-12.221-7.557,0-12.167,6.164-12.167,13.99a14.288,14.288,0,0,0,2.091,7.826Zm3.942-18.439c5.307,0,6.593,4.663,6.539,7.665H758.9c.375-3.27,2.466-7.665,7.236-7.665" transform="translate(-20.393 0)" fill="#b3cadb"></path>
    <path id="Path_87" data-name="Path 87" d="M807.948,85.991a14.19,14.19,0,0,0,2.23,7.987h6.417c-2.376-1.614-3.876-4.459-3.876-8.2,0-5.413,3.216-9.809,9.166-9.809a10.939,10.939,0,0,1,5.468,1.233l1.072-3.645a15.776,15.776,0,0,0-6.54-1.34c-8.468,0-13.936,5.789-13.936,13.775" transform="translate(-47.145 -0.053)" fill="#b3cadb"></path>
    <path id="Path_88" data-name="Path 88" d="M920.2,86.529h18.224a17.79,17.79,0,0,0,.161-2.2c0-4.77-2.251-12.221-10.72-12.221-7.558,0-12.167,6.164-12.167,13.99a14.29,14.29,0,0,0,2.091,7.826h5.758c-1.975-1.415-3.287-3.814-3.347-7.4m7.29-11.042c5.307,0,6.593,4.663,6.539,7.665H920.252c.375-3.27,2.466-7.665,7.236-7.665" transform="translate(-100.915 0)" fill="#b3cadb"></path>
    <path id="Path_89" data-name="Path 89" d="M990.2,83.688V93.926h4.717V83.152c0-8.9-5.575-11.042-9.166-11.042a9.539,9.539,0,0,0-8.576,4.878h-.107L976.8,72.7h-4.181c.161,2.144.214,4.342.214,7.022v14.2h4.717V83.044a6.784,6.784,0,0,1,.322-2.2,6.7,6.7,0,0,1,6.325-4.824c4.449,0,6,3.484,6,7.665" transform="translate(-129.322 0)" fill="#b3cadb"></path>
</g>
</svg>
