<svg id="Layer_1" data-name="Layer 1" xmlns="http://www.w3.org/2000/svg" viewBox="0 0 286.67 386"><defs><style>.cls-1{fill:#eacc4e;}</style></defs><title>yellowframe</title><path class="cls-1" d="M214.92,315.58H4.42V28.66A25.61,25.61,0,0,1,30,3.08H214.92Zm-210-.5h209.5V3.58H30A25.11,25.11,0,0,0,4.92,28.66Z"/><path class="cls-1" d="M282.92,383.25H100a27.61,27.61,0,0,1-27.58-27.58V70.75H251.5a31.45,31.45,0,0,1,31.42,31.42Zm-210-312V355.66A27.11,27.11,0,0,0,100,382.75H282.42V102.16A31,31,0,0,0,251.5,71.25Z"/></svg>