<svg version="1.1" id="Layer_1" xmlns="http://www.w3.org/2000/svg" xmlns:xlink="http://www.w3.org/1999/xlink" x="0px" y="0px"
	 viewBox="0 0 464.7 330" style="enable-background:new 0 0 464.7 330;" xml:space="preserve">
<style type="text/css">
	.st0{fill:#EACC4E;}
</style>
<g>
	<path class="st0" d="M376.2,246.3H5.8V39.7c0-19.8,16.1-35.9,35.9-35.9h334.6V246.3z M6.3,245.8h369.5V4.3H41.7
		C22.1,4.3,6.3,20.1,6.3,39.7V245.8z"/>
</g>
<g>
	<path class="st0" d="M459.9,324.6H148.3c-21.8,0-39.6-17.8-39.6-39.6V91.4H417c23.7,0,42.9,19.3,42.9,42.9V324.6z M109.2,91.9V285
		c0,21.6,17.5,39.1,39.1,39.1h311.1V134.3c0-23.4-19-42.4-42.4-42.4H109.2z"/>
</g>
</svg>
